<svg width="364" height="364" viewBox="0 0 364 364" fill="none" xmlns="http://www.w3.org/2000/svg">
<path d="M363.764 181.885C363.764 282.329 282.328 363.761 181.884 363.761C81.4323 363.761 0 282.329 0 181.885C0 81.4293 81.4323 -6.10352e-05 181.884 -6.10352e-05C282.328 -6.10352e-05 363.764 81.4293 363.764 181.885Z" fill="#6F62E4"/>
<path d="M52.7329 105.227V252.688C52.7329 257.303 56.7772 261.039 61.7644 261.039H302.035C307.027 261.039 311.071 257.303 311.071 252.688V105.227L285.563 105.432L181.927 186.141L83.3764 105.227H52.7329Z" fill="#D9F6FB"/>
<path d="M305.843 249.955C305.843 254.384 301.958 257.969 297.167 257.969H66.5044C61.7151 257.969 57.8298 254.384 57.8298 249.955V108.388H80.3658L181.927 192.205L287.188 108.54L305.843 108.388V249.955ZM285.586 105.432L181.952 186.141L83.4018 105.227H52.7554V252.688C52.7554 257.303 56.8022 261.039 61.7924 261.039H302.06C307.046 261.039 311.092 257.303 311.092 252.688V105.227L285.586 105.432Z" fill="#EDFFFF"/>
<path d="M53.0454 105.572C53.0454 105.572 157.534 224.424 181.499 224.424C203.027 224.424 310.568 105.717 310.568 105.717C310.568 105.717 306.387 108.328 301.918 108.328C257.656 108.328 112.196 108.328 60.4777 108.328C57.0621 108.328 53.0454 105.572 53.0454 105.572Z" fill="#96B1B6"/>
<path d="M207.599 166.153L213.875 161.268L300.422 246.703L197.942 171.275L207.599 166.153Z" fill="#96B1B6"/>
<path d="M157.587 166.055L149.946 159.877L64.2485 248.471L165.859 171.275L157.587 166.055Z" fill="#96B1B6"/>
<path d="M54.833 257.987C54.833 257.987 157.942 152.057 181.902 152.057C203.43 152.057 309.015 257.987 309.015 257.987C309.015 257.987 306.504 261.039 302.035 261.039C257.768 261.039 112.311 261.039 60.6005 261.039C57.1794 261.039 54.833 257.987 54.833 257.987Z" fill="#D9F6FB"/>
<path d="M303.187 252.269C302.111 252.838 300.741 253.3 299.093 253.3C255.919 253.3 114.049 253.3 63.6139 253.3C62.4165 253.3 61.3605 252.876 60.4939 252.348C56.9361 255.933 54.8555 258.073 54.8555 258.073C54.8555 258.073 57.1987 261.125 60.6205 261.125C112.331 261.125 257.797 261.125 302.055 261.125C306.525 261.125 309.035 258.073 309.035 258.073C309.035 258.073 306.867 255.902 303.187 252.269Z" fill="#EDFFFF"/>
<path d="M308.691 258.277C308.691 258.277 203.103 152.348 181.575 152.348C157.612 152.348 54.5063 258.277 54.5063 258.277C54.5063 258.277 157.612 154.92 181.575 154.92C203.103 154.92 308.691 258.277 308.691 258.277Z" fill="#EDFFFF"/>
<path d="M52.7329 105.227C52.7329 105.227 158.123 214.375 182.086 214.375C203.616 214.375 311.071 105.227 311.071 105.227C311.071 105.227 306.691 105.396 302.218 105.396C257.955 105.396 112.495 105.396 60.7817 105.396C57.3605 105.396 52.7329 105.227 52.7329 105.227Z" fill="#D9F6FB"/>
<path d="M311.071 105.227C311.071 105.227 306.63 105.335 302.155 105.335C257.899 105.335 112.434 105.335 60.7232 105.335C57.3022 105.335 52.6716 105.161 52.6716 105.161C52.6716 105.161 52.5622 105.117 57.844 110.46C109.88 110.46 261.598 110.361 305.752 110.361L311.071 105.227Z" fill="#EDFFFF"/>
<path d="M308.875 107.444C308.875 107.444 203.284 214.085 181.756 214.085C157.796 214.085 53.4224 105.96 53.4224 105.96C53.4224 105.96 157.983 206.549 181.943 206.549C203.471 206.549 308.875 107.444 308.875 107.444Z" fill="#EDFFFF"/>
<path d="M106.669 158.634C135.033 187.225 167.943 217.384 180.547 217.384C189.839 217.384 215.14 197.917 238.528 174.802C214.352 196.221 189.303 213.412 180.547 213.412C168.537 213.412 136.069 185.993 106.669 158.634Z" fill="#AEB5B6"/>
</svg>
