<svg width="639" height="571" viewBox="0 0 639 571" fill="none" xmlns="http://www.w3.org/2000/svg">
<g clip-path="url(#clip0_136_2984)">
<path d="M545.006 256.141C669.683 328.124 669.681 444.829 545.004 516.814C420.326 588.795 218.184 588.796 93.5075 516.814C-31.1695 444.831 -31.1691 328.124 93.5086 256.141C218.187 184.159 420.328 184.159 545.006 256.141Z" fill="#EDEDEB"/>
<path d="M58.1199 430.965C56.6586 430.965 55.4064 430.464 54.7715 429.627C54.4819 429.247 53.672 428.849 52.5528 428.849C52.4304 428.849 52.3064 428.855 52.1819 428.864L50.4606 429.005C50.2939 429.02 50.1294 429.027 49.9663 429.027C48.5428 429.027 47.2642 428.523 46.6304 427.715C46.257 427.237 46.1252 426.675 46.2606 426.127C46.2794 426.049 46.2846 425.94 46.158 425.777C45.8715 425.412 45.06 425.017 43.958 425.017C43.8335 425.017 43.7095 425.023 43.5824 425.033C43.4132 425.047 43.248 425.055 43.084 425.055C41.6616 425.055 40.3851 424.551 39.7496 423.741C39.3772 423.267 39.2466 422.703 39.3819 422.156C39.3996 422.079 39.4059 421.968 39.2783 421.804C38.9919 421.44 38.1819 421.047 37.0819 421.047C36.9575 421.047 36.8314 421.052 36.7032 421.063C36.5366 421.076 36.3715 421.084 36.209 421.084C34.7856 421.084 33.5054 420.58 32.872 419.769C32.4975 419.293 32.3668 418.731 32.5023 418.183C32.5204 418.105 32.5262 417.996 32.3991 417.833C32.1132 417.468 31.3032 417.075 30.2023 417.075C30.0778 417.075 29.9507 417.08 29.8242 417.091C29.6559 417.104 29.4903 417.111 29.3272 417.111C27.9048 417.111 26.6262 416.607 25.9914 415.799C25.619 415.323 25.4871 414.759 25.6226 414.212C25.6408 414.135 25.6471 414.025 25.5184 413.861C25.2319 413.496 24.422 413.101 23.3199 413.101C23.1955 413.101 23.071 413.108 22.9444 413.117C22.7762 413.132 22.61 413.139 22.4475 413.139C21.0236 413.139 19.7471 412.636 19.1127 411.827C18.7392 411.351 18.6086 410.788 18.7439 410.24L18.9882 409.247C19.0611 408.947 18.598 408.485 17.7215 408.263C15.8756 407.797 15.2835 406.711 15.3356 405.847C15.409 404.653 16.596 403.737 18.3595 403.516L19.0808 403.425C19.9699 403.313 20.5174 402.976 20.7304 402.697C20.859 402.531 20.845 402.424 20.8387 402.387L20.6611 401.039C20.5919 400.505 20.7616 399.988 21.1507 399.543C21.8054 398.796 23.0532 398.332 24.4064 398.332L24.6747 398.337L26.319 398.407C27.3824 398.407 28.1752 398.044 28.4908 397.685C28.6554 397.497 28.6382 397.373 28.633 397.332L28.5231 396.5C28.4532 395.967 28.6226 395.448 29.0142 395.003C29.669 394.256 30.9147 393.792 32.2679 393.792L32.5362 393.797L34.183 393.867C35.246 393.867 36.0387 393.505 36.3518 393.148C36.5174 392.96 36.5002 392.835 36.4944 392.793L36.3846 391.96C36.3152 391.427 36.4846 390.911 36.8742 390.465C37.5304 389.717 38.7762 389.253 40.1294 389.253L40.3975 389.26L42.0414 389.328C43.1059 389.328 43.8986 388.965 44.2132 388.608C44.3788 388.42 44.3616 388.295 44.3559 388.255L44.2455 387.423C44.1767 386.888 44.346 386.371 44.7366 385.927C45.3914 385.179 46.6387 384.713 47.9923 384.713L48.2606 384.72L49.9059 384.789C50.9695 384.789 51.7616 384.428 52.0752 384.069C52.2398 383.881 52.2231 383.757 52.2179 383.716L52.109 382.88C52.0382 382.349 52.2075 381.833 52.5975 381.388C53.2518 380.64 54.4991 380.176 55.8538 380.176L56.122 380.181L58.6638 380.289C59.8642 380.289 60.7862 379.813 60.9528 379.373L61.1116 378.957C61.6252 377.592 63.4054 377.108 64.7726 377.108C66.2324 377.108 67.4846 377.607 68.1215 378.444C68.409 378.827 69.2204 379.223 70.3408 379.223C70.4638 379.223 70.5862 379.219 70.709 379.209L72.4304 379.068C72.5986 379.053 72.7652 379.047 72.9272 379.047C74.3496 379.047 75.6272 379.549 76.2606 380.359C76.6346 380.835 76.7658 381.397 76.6304 381.945C76.6122 382.023 76.6064 382.133 76.7335 382.296C77.0199 382.66 77.8299 383.055 78.9319 383.055C79.0564 383.055 79.1819 383.048 79.31 383.039C79.4767 383.025 79.6414 383.017 79.8038 383.017C81.2283 383.017 82.5065 383.521 83.1403 384.332C83.5142 384.807 83.6455 385.371 83.5095 385.917C83.4914 385.995 83.4862 386.104 83.6133 386.268C83.8991 386.633 84.7106 387.027 85.8142 387.027C85.9382 387.027 86.0622 387.021 86.1898 387.012C86.357 386.997 86.5226 386.989 86.6866 386.989C88.1086 386.989 89.3856 387.493 90.0204 388.303C90.3934 388.779 90.5247 389.343 90.3893 389.888C90.371 389.967 90.3647 390.076 90.4934 390.24C90.7804 390.605 91.5903 390.999 92.6923 390.999C92.8163 390.999 92.9403 390.993 93.0674 390.984C93.2366 390.969 93.4032 390.963 93.5652 390.963C94.9876 390.963 96.2652 391.465 96.8986 392.275C97.2726 392.751 97.4038 393.313 97.2685 393.861C97.2502 393.939 97.2444 394.048 97.3715 394.211C97.658 394.576 98.4679 394.971 99.569 394.971C99.6928 394.971 99.8199 394.964 99.9471 394.955C100.114 394.94 100.278 394.933 100.44 394.933C101.866 394.933 103.144 395.437 103.78 396.247C104.152 396.723 104.284 397.287 104.148 397.832L103.904 398.827C103.83 399.127 104.293 399.589 105.17 399.811C107.015 400.275 107.608 401.361 107.555 402.225C107.482 403.42 106.296 404.336 104.531 404.557L103.812 404.648C102.923 404.76 102.377 405.097 102.161 405.375C102.032 405.541 102.047 405.649 102.052 405.687L102.23 407.035C102.299 407.567 102.13 408.085 101.739 408.532C101.085 409.277 99.8382 409.741 98.4846 409.741L98.2163 409.736L96.5699 409.667C95.5075 409.667 94.7158 410.028 94.4007 410.387C94.2362 410.575 94.2529 410.699 94.2581 410.74L94.369 411.573C94.4376 412.107 94.2685 412.623 93.8789 413.069C93.2242 413.816 91.9767 414.28 90.6231 414.28L90.3548 414.275L88.7111 414.205C87.6475 414.205 86.8538 414.568 86.5393 414.925C86.3747 415.115 86.3914 415.239 86.3966 415.28L86.507 416.112C86.5757 416.645 86.4065 417.163 86.0158 417.609C85.3611 418.356 84.1138 418.82 82.7622 418.82L82.4939 418.813L80.8466 418.745C79.7841 418.745 78.9914 419.107 78.6783 419.463C78.5127 419.652 78.5299 419.777 78.5356 419.817L78.6455 420.651C78.7142 421.185 78.5455 421.701 78.1559 422.147C77.4997 422.895 76.2532 423.359 74.9002 423.359L74.6324 423.352L72.9876 423.284C71.9242 423.284 71.1314 423.647 70.8168 424.003C70.6512 424.192 70.6684 424.317 70.6742 424.357L70.7841 425.189C70.8533 425.724 70.684 426.241 70.2923 426.687C69.6382 427.433 68.3908 427.899 67.0387 427.899L66.7704 427.892L64.2335 427.784C63.0299 427.784 62.1048 428.26 61.9392 428.7L61.7819 429.115C61.2674 430.48 59.4876 430.964 58.1199 430.965Z" fill="#DADBD8"/>
<path d="M111.216 462.849C109.754 462.849 108.502 462.348 107.866 461.512C107.578 461.13 106.768 460.733 105.649 460.733C105.526 460.733 105.402 460.737 105.278 460.748L103.556 460.889C103.39 460.902 103.225 460.911 103.063 460.911C101.639 460.911 100.36 460.406 99.7247 459.596C99.3528 459.121 99.2215 458.558 99.3569 458.012C99.3752 457.935 99.3813 457.824 99.2523 457.66C98.9657 457.294 98.1559 456.901 97.0537 456.901C96.9299 456.901 96.8059 456.906 96.6788 456.917C96.5095 456.93 96.3428 456.937 96.1808 456.937C94.758 456.937 93.4808 456.436 92.8475 455.625C92.4736 455.15 92.3419 454.586 92.4772 454.04C92.496 453.961 92.5017 453.852 92.3747 453.688C92.0881 453.324 91.2783 452.93 90.1772 452.93C90.0528 452.93 89.9272 452.936 89.7991 452.945C89.6299 452.96 89.4663 452.966 89.3037 452.966C87.8799 452.966 86.6012 452.462 85.9663 451.653C85.5939 451.177 85.4627 450.614 85.598 450.068C85.6168 449.99 85.622 449.88 85.4939 449.717C85.2075 449.352 84.3975 448.957 83.2955 448.957C83.1709 448.957 83.0465 448.964 82.9195 448.973C82.7501 448.986 82.584 448.994 82.4215 448.994C80.9991 448.994 79.7225 448.492 79.0887 447.681C78.7141 447.206 78.5835 446.643 78.7189 446.096C78.7371 446.018 78.7428 445.908 78.6152 445.744C78.3288 445.38 77.5189 444.986 76.4189 444.986C76.2944 444.986 76.1689 444.992 76.0408 445.002C75.8741 445.016 75.7085 445.024 75.5465 445.024C74.1215 445.024 72.8428 444.519 72.208 443.709C71.8351 443.233 71.7037 442.672 71.8397 442.125L72.0835 441.13C72.1575 440.829 71.6944 440.368 70.8179 440.147C68.972 439.681 68.3793 438.594 68.4313 437.73C68.5048 436.537 69.6919 435.621 71.4553 435.4L72.1756 435.309C73.0641 435.197 73.6105 434.86 73.8261 434.582C73.9548 434.416 73.9403 434.308 73.9351 434.27L73.7575 432.922C73.6876 432.389 73.8575 431.872 74.248 431.426C74.9032 430.678 76.1491 430.214 77.5023 430.214L77.7704 430.22L79.4173 430.29C80.4799 430.29 81.2715 429.929 81.5851 429.569C81.7517 429.382 81.7345 429.257 81.7288 429.216L81.6189 428.382C81.5496 427.849 81.7189 427.333 82.1085 426.888C82.7632 426.141 84.0105 425.676 85.3641 425.676L85.6319 425.682L87.2788 425.75C88.3413 425.75 89.1345 425.389 89.4475 425.032C89.6127 424.842 89.596 424.718 89.5903 424.677L89.4799 423.845C89.4111 423.312 89.5804 422.793 89.9715 422.348C90.6261 421.601 91.8731 421.137 93.2256 421.137L93.4939 421.142L95.1403 421.212C96.2028 421.212 96.996 420.85 97.3095 420.493C97.4741 420.304 97.4575 420.181 97.4523 420.14L97.3423 419.305C97.2725 418.772 97.4419 418.256 97.8313 417.81C98.4881 417.062 99.7329 416.598 101.087 416.598L101.355 416.604L103.002 416.672C104.065 416.672 104.858 416.31 105.171 415.954C105.336 415.765 105.319 415.641 105.314 415.6L105.203 414.766C105.135 414.234 105.304 413.716 105.694 413.27C106.349 412.524 107.597 412.058 108.95 412.058L109.218 412.065L111.753 412.173C112.957 412.173 113.882 411.698 114.049 411.257L114.207 410.84C114.721 409.477 116.501 408.99 117.867 408.99C119.329 408.99 120.58 409.492 121.217 410.329C121.505 410.709 122.315 411.108 123.434 411.108C123.557 411.108 123.68 411.102 123.805 411.093L125.527 410.952C125.693 410.937 125.859 410.93 126.02 410.93C127.444 410.93 128.723 411.433 129.357 412.244C129.731 412.72 129.862 413.282 129.726 413.828C129.708 413.906 129.702 414.016 129.83 414.18C130.117 414.545 130.927 414.938 132.031 414.938C132.154 414.938 132.279 414.933 132.406 414.924C132.574 414.909 132.74 414.902 132.903 414.902C134.325 414.902 135.603 415.405 136.236 416.214C136.609 416.69 136.741 417.253 136.605 417.801C136.587 417.878 136.581 417.988 136.708 418.152C136.995 418.516 137.805 418.91 138.905 418.91C139.031 418.91 139.156 418.904 139.284 418.894C139.451 418.88 139.616 418.873 139.777 418.873C141.201 418.873 142.481 419.377 143.116 420.186C143.489 420.662 143.62 421.226 143.484 421.773C143.467 421.85 143.461 421.96 143.588 422.124C143.875 422.489 144.685 422.882 145.788 422.882C145.912 422.882 146.036 422.877 146.163 422.868C146.331 422.853 146.497 422.845 146.66 422.845C148.084 422.845 149.361 423.348 149.995 424.158C150.369 424.633 150.5 425.197 150.364 425.744C150.345 425.821 150.34 425.932 150.467 426.096C150.753 426.46 151.564 426.853 152.664 426.853C152.788 426.853 152.915 426.848 153.043 426.838C153.209 426.824 153.375 426.817 153.536 426.817C154.96 426.817 156.24 427.32 156.873 428.13C157.248 428.606 157.379 429.169 157.244 429.717L157 430.71C156.925 431.01 157.389 431.472 158.265 431.693C160.111 432.16 160.704 433.246 160.651 434.109C160.579 435.304 159.392 436.22 157.627 436.441L156.908 436.532C156.019 436.642 155.473 436.98 155.257 437.258C155.128 437.425 155.143 437.535 155.148 437.57L155.325 438.918C155.395 439.452 155.225 439.969 154.836 440.414C154.181 441.161 152.933 441.625 151.581 441.625L151.313 441.619L149.665 441.55C148.603 441.55 147.812 441.912 147.499 442.269C147.332 442.457 147.348 442.584 147.355 442.625L147.464 443.457C147.533 443.99 147.364 444.508 146.975 444.953C146.319 445.7 145.069 446.165 143.716 446.165L143.452 446.16L141.804 446.09C140.741 446.09 139.949 446.452 139.635 446.809C139.471 446.997 139.487 447.123 139.493 447.162L139.603 447.997C139.672 448.53 139.503 449.047 139.113 449.49C138.457 450.238 137.211 450.704 135.857 450.704L135.589 450.697L133.943 450.628C132.88 450.628 132.089 450.989 131.775 451.347C131.609 451.536 131.626 451.661 131.631 451.702L131.741 452.536C131.811 453.069 131.641 453.585 131.25 454.03C130.595 454.778 129.348 455.242 127.997 455.242L127.728 455.237L126.081 455.168C125.018 455.168 124.226 455.529 123.913 455.886C123.747 456.076 123.764 456.2 123.77 456.241L123.88 457.074C123.949 457.608 123.779 458.124 123.39 458.569C122.734 459.317 121.487 459.781 120.133 459.781L119.865 459.776L117.329 459.666C116.125 459.666 115.202 460.142 115.035 460.582L114.877 461.001C114.362 462.364 112.582 462.849 111.216 462.849Z" fill="#DADBD8"/>
<path d="M560.633 297.719C585.857 312.281 585.857 335.893 560.633 350.456C535.409 365.019 494.512 365.019 469.288 350.456C444.064 335.893 444.065 312.281 469.289 297.719C494.513 283.155 535.409 283.155 560.633 297.719Z" fill="#DADBD8"/>
<path d="M171.813 414.769L112.236 380.373L339.709 249.041L399.287 283.437L171.813 414.769Z" fill="#DADBD8"/>
<path d="M112.117 380.441L52.54 346.045L280.015 214.712L339.591 249.109L112.117 380.441Z" fill="#DADBD8"/>
<path d="M316.088 556.447L165.423 469.46C161.544 467.221 161.544 463.59 165.423 461.35L388.557 332.524C392.436 330.284 398.725 330.284 402.604 332.524L553.269 419.509C557.148 421.749 557.148 425.378 553.269 427.618L330.135 556.447C326.256 558.685 319.967 558.685 316.088 556.447Z" fill="#DADBD8"/>
<path d="M547.215 285.152C547.215 285.152 545.274 269.088 550.167 255.099C555.06 241.109 563.948 230.989 573.736 227.828C583.524 224.668 593.762 231.929 584.588 240.769C575.415 249.609 557.982 260.551 554.863 286.197L547.215 285.152Z" fill="#857CF4"/>
<path d="M554.863 286.197L547.214 285.152C547.214 285.152 546.834 282.008 546.834 277.291C546.834 271.345 547.439 262.9 550.167 255.099C555.06 241.109 563.948 230.989 573.736 227.828C575.329 227.313 576.937 227.075 578.469 227.075C583.76 227.075 588.169 229.916 588.167 234.025C588.164 236.032 587.109 238.34 584.588 240.769C575.415 249.609 557.981 260.551 554.863 286.197Z" fill="#49BA7C"/>
<path d="M549.173 280.395L549.06 280.389C548.76 280.344 548.556 280.064 548.603 279.765C552.963 251.337 570.428 235.747 579.055 231.475C579.324 231.339 579.654 231.452 579.788 231.723C579.922 231.993 579.812 232.321 579.54 232.456C571.091 236.64 553.978 251.949 549.686 279.931C549.644 280.192 549.425 280.381 549.173 280.395Z" fill="white"/>
<path d="M597.292 263.85C596.92 265.978 595.077 267.497 593.324 268.765C591.582 270.025 589.672 271.401 589.072 273.474C587.864 277.66 592.622 281.94 591.236 286.069C590.653 287.8 589.074 289.029 587.408 289.777C586.025 290.409 584.548 290.774 583.108 291.265C582.397 291.425 581.684 291.548 580.977 291.622C578.888 291.83 576.674 292.282 575.084 293.774C572.584 296.132 572.602 300.028 571.542 303.298C570.268 307.216 567.077 310.368 563.276 311.882C560.086 313.14 554.958 313.63 553.744 312.384C552.818 311.436 553.92 307.612 553.641 306.317C552.925 302.998 552.528 299.612 552.448 296.218C552.409 294.565 552.38 293.22 551.969 291.613C551.537 289.932 551.117 288.246 550.708 286.558C550.266 284.732 549.482 283.405 549.682 281.406C549.872 279.5 550.6 277.66 551.34 275.91C552.077 274.172 552.828 272.44 553.594 270.714C554.5 268.68 555.438 266.632 556.816 264.881C559.206 261.845 562.901 259.869 566.754 259.566C569.948 259.316 573.377 260.293 576.502 259.36C579.541 258.453 582.349 256.88 585.542 256.317C588.882 255.728 592.578 256.286 595.152 258.638C596.598 259.96 597.629 261.921 597.292 263.85Z" fill="#27975A"/>
<path d="M554.419 303.532L554.378 303.533C554.111 303.528 553.896 303.307 553.901 303.039C554.404 272.476 583.571 260.816 590.763 259.567C591.024 259.524 591.277 259.699 591.325 259.963C591.371 260.227 591.195 260.479 590.93 260.525C583.895 261.747 555.367 273.153 554.872 303.056C554.868 303.311 554.668 303.516 554.419 303.532Z" fill="white"/>
<path d="M584.355 280.656L584.072 280.585C583.977 280.528 574.385 274.852 562.081 279.913C561.832 280.012 561.547 279.897 561.445 279.649C561.344 279.4 561.463 279.116 561.709 279.014C574.491 273.761 584.477 279.694 584.577 279.756C584.807 279.894 584.879 280.193 584.74 280.424C584.653 280.564 584.508 280.646 584.355 280.656Z" fill="white"/>
<path d="M106.148 320.736C106.279 309.821 98.6579 287.122 87.5031 272.817C76.3495 258.51 58.6694 247.934 45.9698 252.11C34.1413 255.998 35.2313 271.466 49.4006 281.88C63.5698 292.292 84.8985 305.414 90.9703 323.192L103.897 345.07L106.148 320.736Z" fill="#96DE5E"/>
<path d="M106.774 335.679C106.427 335.647 106.129 335.387 106.064 335.028C99.2038 297.687 69.4314 267.045 51.4742 260.139C51.0632 259.98 50.8575 259.517 51.0158 259.108C51.172 258.699 51.6252 258.484 52.0466 258.649C70.3455 265.688 100.668 296.833 107.632 334.74C107.712 335.173 107.425 335.588 106.992 335.668L106.774 335.679Z" fill="white"/>
<path d="M100.932 359.457C99.252 353.301 91.8805 343.088 79.8629 334.58C66.5671 325.169 49.6525 320.71 45.8275 313.464C41.2332 304.758 48.6223 296.674 62.3723 298.548C76.1233 300.421 100.11 319.501 103.641 347.836L100.932 359.457Z" fill="#33B758"/>
<path d="M103.674 353.052C103.371 353.024 103.099 352.822 102.993 352.516C91.9525 320.464 67.7378 308.97 56.4769 307.37C56.0416 307.309 55.7384 306.904 55.7993 306.469C55.8613 306.032 56.2482 305.728 56.7009 305.79C69.1529 307.56 93.2316 319.281 104.501 351.997C104.645 352.413 104.422 352.868 104.007 353.012L103.674 353.052Z" fill="white"/>
<path d="M99.2437 194.045L320.045 66.5651L328.88 71.6664C331.165 72.9851 333.033 76.2224 333.033 78.8597V241.741C333.033 244.378 331.165 247.617 328.88 248.936L116.387 371.618C114.103 372.937 110.364 372.937 108.08 371.618L103.398 368.916C101.114 367.597 99.2447 364.36 99.2447 361.721L99.2437 194.045Z" fill="#857CF4"/>
<path d="M118.724 370.269L158.371 347.376V347.38L118.724 370.269ZM114.407 202.803L110.189 200.367L110.999 200.833L114.408 202.803C114.408 202.803 114.408 202.803 114.407 202.803ZM114.433 202.793C114.641 202.7 114.864 202.636 115.088 202.588C115.322 202.547 115.564 202.525 115.814 202.525C115.904 202.525 115.994 202.528 116.085 202.533C116.005 202.529 115.926 202.527 115.847 202.527C115.338 202.527 114.861 202.62 114.433 202.793ZM118.979 201.297L117.881 200.895L105.918 194.092L118.979 186.549V201.297ZM313.984 95.6693V73.9572L320.112 70.4199L328.008 74.9719C327.82 75.0906 327.641 75.2226 327.477 75.3693C327.473 75.3719 327.471 75.3746 327.468 75.3773C327.467 75.3786 327.467 75.3786 327.467 75.3786C327.293 75.5333 327.129 75.7093 326.981 75.9159L313.984 95.6693Z" fill="#6A5EDE"/>
<path d="M318.827 52.2467L319.729 51.7547L316.299 49.7613V49.764C316.005 49.5933 315.7 49.444 315.389 49.3293L218.213 13.3214C215.641 12.368 212.3 13.4307 210.751 15.6934L102.049 174.437C100.499 176.7 99.2437 180.757 99.2437 183.5C99.2437 188.037 99.2437 194.043 99.2437 194.043L102.613 196L320.045 66.5653V56.0213C320.045 54.7373 319.576 53.4054 318.827 52.2467Z" fill="#857CF4"/>
<path d="M103.381 180.92L100.018 178.975C100.266 178.147 100.564 177.336 100.895 176.575L100.928 176.508C101.077 176.177 101.226 175.863 101.392 175.548L101.475 175.399C101.657 175.051 101.856 174.72 102.054 174.439L118.979 149.721V156.585L105.414 176.392C105.27 176.607 105.128 176.836 104.989 177.079C104.36 178.168 103.799 179.528 103.381 180.92ZM159.53 90.5013L210.749 15.7012C210.866 15.5239 210.993 15.3733 211.128 15.2213C211.184 15.16 211.24 15.0986 211.297 15.0386C211.285 15.0506 211.273 15.0626 211.261 15.0759C211.272 15.0639 211.284 15.0506 211.294 15.0386C211.308 15.0266 211.321 15.0133 211.333 14.9999C211.321 15.0133 211.309 15.0253 211.297 15.0386C211.333 15.0026 211.368 14.9666 211.404 14.932C211.472 14.8666 211.54 14.8026 211.609 14.7399C211.697 14.6613 211.786 14.5853 211.877 14.5106L215.233 16.452C214.805 16.8 214.426 17.2013 214.12 17.6493L167.31 86.0093L159.53 90.5013ZM211.7 14.66C211.757 14.608 211.816 14.5586 211.874 14.5093L211.877 14.5106C211.817 14.56 211.757 14.6093 211.7 14.66Z" fill="#574EC5"/>
<path d="M316.065 49.6348C315.845 49.5174 315.619 49.4148 315.389 49.3294L313.984 48.8081V48.8028L315.388 49.3228C315.62 49.4081 315.844 49.5121 316.065 49.6348ZM263.895 30.2481L218.213 13.3215C217.716 13.1361 217.189 13.0281 216.652 12.9881C217.188 13.0268 217.715 13.1334 218.215 13.3174L263.9 30.2454L263.895 30.2481Z" fill="white"/>
<path d="M319.42 51.5811C319.204 51.4691 318.982 51.369 318.757 51.2864L313.984 49.517V48.8077L315.389 49.329C315.618 49.4144 315.845 49.517 316.065 49.6344C316.144 49.677 316.221 49.721 316.298 49.769L319.42 51.5811ZM263.148 30.6784L221.575 15.2703C220.94 15.0343 220.256 14.9224 219.565 14.9224C218.924 14.9224 218.276 15.0184 217.653 15.2024C216.769 15.457 215.933 15.8824 215.233 16.4517L211.877 14.5104L211.875 14.509C213.079 13.5344 214.664 12.973 216.212 12.973C216.358 12.973 216.507 12.9771 216.652 12.9877C217.189 13.0277 217.716 13.1357 218.213 13.3211L263.894 30.2477L263.148 30.6784Z" fill="#6A5EDE"/>
<path d="M211.297 15.0386C211.48 14.8519 211.675 14.6759 211.88 14.5092C211.675 14.6759 211.477 14.8479 211.297 15.0386Z" fill="#857CF4"/>
<path d="M100.013 178.979C100.262 178.147 100.562 177.328 100.896 176.571C100.56 177.329 100.262 178.147 100.013 178.979Z" fill="#857CF4"/>
<path d="M100.924 176.501C101.072 176.169 101.23 175.854 101.39 175.55C101.229 175.854 101.072 176.169 100.924 176.501Z" fill="#857CF4"/>
<path d="M210.758 15.6813C210.908 15.4653 211.077 15.2653 211.261 15.076C211.216 15.1253 211.17 15.1734 211.128 15.2214C210.996 15.3694 210.87 15.52 210.758 15.6813Z" fill="#574EC5"/>
<path d="M211.128 15.2212C211.171 15.1732 211.216 15.1251 211.261 15.0758C211.273 15.0625 211.285 15.0505 211.297 15.0385C211.24 15.0985 211.184 15.1599 211.128 15.2212Z" fill="#0EAE96"/>
<path d="M214.12 17.6494L105.418 176.395C103.869 178.657 102.613 182.715 102.613 185.457C102.613 189.993 102.613 196 102.613 196L323.418 68.512L323.415 57.9774C323.415 55.2347 321.33 52.24 318.758 51.2867L221.583 15.2774C219.011 14.3254 215.67 15.3867 214.12 17.6494Z" fill="#857CF4"/>
<path d="M103.395 180.928L103.381 180.92C103.893 179.218 104.616 177.565 105.418 176.394L118.979 156.589V171.908L103.395 180.928ZM167.311 86.0091L214.12 17.6491C215.284 15.9504 217.459 14.9277 219.559 14.9277C220.255 14.9277 220.943 15.0397 221.583 15.2771L263.148 30.6797L167.311 86.0091ZM313.984 59.0411V49.5171L318.757 51.2864C321.32 52.2357 323.399 55.2131 323.415 57.9477C323.407 56.6971 322.955 55.4024 322.235 54.2664L313.984 59.0411Z" fill="#564DC3"/>
<path d="M102.617 195.993L102.613 195.99C102.613 195.99 102.613 195.99 102.613 195.989L102.617 195.992C102.617 195.992 102.617 190 102.617 185.464C102.617 184.14 102.916 182.517 103.396 180.928L118.979 171.908V186.549L105.918 194.092L105.867 194.062L102.617 195.993Z" fill="#352F6C"/>
<path d="M313.984 73.957V59.041L322.235 54.2664C322.955 55.4024 323.407 56.6971 323.415 57.9477C323.415 57.9584 323.415 57.9677 323.415 57.9771L323.417 68.509L320.105 70.4117L320.115 70.417L320.112 70.4197L313.984 73.957Z" fill="#352F6C"/>
<path d="M313.984 13.2333C313.984 12.0999 313.588 11.2986 312.948 10.9213C312.299 10.5386 306.858 7.40525 306.208 7.03059C305.56 6.65725 304.664 6.71194 303.675 7.2826L122.565 111.841C120.586 112.985 118.981 115.764 118.981 118.049L118.982 334.947C118.982 336.089 119.383 336.892 120.031 337.267C120.679 337.641 126.109 340.775 126.757 341.149C127.405 341.524 128.301 341.469 129.291 340.899L310.402 236.339C312.38 235.196 313.986 232.416 313.986 230.131L313.984 13.2333Z" fill="#EDEDEB"/>
<path d="M129.291 340.898L310.401 236.338C312.38 235.196 313.985 232.416 313.985 230.13L313.984 13.233C313.984 10.9477 312.378 10.021 310.4 11.1637L129.289 115.724C127.31 116.866 125.706 119.646 125.706 121.932L125.707 338.829C125.707 341.114 127.311 342.041 129.291 340.898Z" fill="#FAFAF9"/>
<path d="M125.7 338.826C125.7 339.837 126.014 340.581 126.544 341.012C125.336 340.333 120.634 337.601 120.038 337.27C119.376 336.89 118.979 336.096 118.979 334.953V118.045C118.979 116.902 119.376 115.644 120.038 114.518L126.759 118.392C126.097 119.518 125.7 120.793 125.7 121.934V338.826Z" fill="#DADBD8"/>
<path d="M293.493 44.3278L261.316 62.9051C259.721 63.8264 258.429 65.9718 258.429 67.6984C258.431 69.4264 259.724 70.0798 261.317 69.1598L293.495 50.5811C295.088 49.6598 296.381 47.5144 296.381 45.7878C296.38 44.0611 295.088 43.4064 293.493 44.3278Z" fill="#DADBD8"/>
<path d="M147.616 141.056L206.837 106.867C208.432 105.947 209.724 106.6 209.724 108.327C209.724 110.055 208.43 112.2 206.837 113.121L147.617 147.311C146.024 148.232 144.73 147.577 144.73 145.849C144.729 144.124 146.022 141.977 147.616 141.056Z" fill="#DADBD8"/>
<path d="M147.617 159.818L293.494 75.5972C295.088 74.6758 296.381 75.3305 296.381 77.0572C296.38 78.7852 295.088 80.9305 293.493 81.8505L147.616 166.072C146.022 166.992 144.73 166.339 144.73 164.612C144.73 162.885 146.024 160.738 147.617 159.818Z" fill="#DADBD8"/>
<path d="M147.617 172.326L293.494 88.105C295.088 87.1837 296.381 87.8383 296.381 89.565C296.38 91.293 295.088 93.4383 293.493 94.3596L147.616 178.58C146.022 179.5 144.73 178.846 144.73 177.12C144.73 175.393 146.024 173.246 147.617 172.326Z" fill="#DADBD8"/>
<path d="M147.617 184.835L293.494 100.613C295.088 99.6919 296.381 100.347 296.381 102.073C296.38 103.8 295.088 105.947 293.493 106.868L147.616 191.088C146.022 192.009 144.73 191.355 144.73 189.628C144.73 187.901 146.024 185.756 147.617 184.835Z" fill="#DADBD8"/>
<path d="M147.617 205.389L293.494 121.168C295.088 120.248 296.381 120.901 296.381 122.628C296.38 124.356 295.088 126.503 293.493 127.423L147.617 211.644C146.022 212.564 144.73 211.909 144.73 210.183C144.73 208.457 146.024 206.311 147.617 205.389Z" fill="#DADBD8"/>
<path d="M147.617 217.899L293.494 133.676C295.088 132.756 296.381 133.409 296.381 135.137C296.38 136.864 295.088 139.011 293.493 139.931L147.617 224.152C146.022 225.072 144.73 224.419 144.73 222.691C144.73 220.964 146.024 218.819 147.617 217.899Z" fill="#DADBD8"/>
<path d="M147.617 230.406L293.494 146.184C295.088 145.264 296.381 145.917 296.381 147.645C296.38 149.372 295.088 151.517 293.493 152.438L147.617 236.658C146.022 237.58 144.73 236.926 144.73 235.2C144.73 233.472 146.024 231.326 147.617 230.406Z" fill="#DADBD8"/>
<path d="M327.432 243.911L327.201 244.241L235.189 215.067C227.964 211.857 219.503 214.471 215.305 221.187L116.94 367.388L113.302 369.488L113.269 369.505C112.166 370.117 111.179 370.2 110.455 369.819L211.619 219.12C215.816 212.403 224.292 209.789 231.519 212.983L327.432 243.911Z" fill="#857CF4"/>
<path d="M332.957 77.8185H332.94C332.742 76.6265 332.113 76.2971 331.302 76.8585C330.986 77.0745 330.624 77.4385 330.242 77.9518L329.778 78.5971L238.98 216.64L225.421 235.529C223.898 237.68 220.554 238.922 217.956 238.326L206.252 235.545L116.909 202.654C116.263 202.505 115.651 202.488 115.088 202.588C114.856 202.637 114.624 202.704 114.41 202.802L117.777 200.856L203.433 232.249L214.71 236.273C217.293 236.886 220.637 235.645 222.177 233.476L235.734 214.604L326.981 75.9158C327.278 75.5012 327.642 75.2038 328.008 74.9718L320.112 70.4198L323.421 68.5158L328.885 71.6611C330.87 72.8198 332.542 75.4185 332.957 77.8185Z" fill="#857CF4"/>
<path d="M313.984 95.6719V95.6692L326.981 75.9159L313.984 95.6719Z" fill="#6459D6"/>
<path d="M274.686 155.393L279.571 147.969L279.58 147.964L274.696 155.388L274.686 155.393ZM286.207 137.884L292.843 127.798L292.85 127.794L286.215 137.878L286.207 137.884ZM296.376 122.436C296.375 122.433 296.375 122.432 296.375 122.43L313.984 95.6691V95.6717L296.376 122.436Z" fill="#EAEAE7"/>
<path d="M292.843 127.798L296.375 122.43C296.375 122.432 296.375 122.433 296.376 122.436L292.849 127.794L292.843 127.798Z" fill="#CED0CD"/>
<path d="M279.571 147.969L286.207 137.884L286.215 137.879L279.58 147.964L279.571 147.969Z" fill="#CED0CD"/>
<path d="M327.477 75.3691C327.641 75.2224 327.82 75.0904 328.008 74.9717C327.828 75.0864 327.648 75.2157 327.477 75.3691Z" fill="#6459D6"/>
<path d="M331.081 73.6689C331.08 73.6676 331.08 73.6663 331.079 73.6663C331.08 73.6663 331.081 73.6689 331.081 73.6689ZM331.068 73.6516C330.432 72.8263 329.684 72.1263 328.885 71.6609L323.904 68.7929L323.416 68.5116H323.417V68.509L328.879 71.6543C329.68 72.1209 330.431 72.8236 331.068 73.6516Z" fill="#EFEFED"/>
<path d="M320.229 70.3521L323.417 68.5121L323.904 68.7934L323.421 68.5161L320.229 70.3521Z" fill="#6459D6"/>
<path d="M320.115 70.417L320.105 70.4117L323.417 68.509V68.5117L320.229 70.3517L320.115 70.417Z" fill="#685CDB"/>
<path d="M274.696 155.388L279.58 147.964L286.214 137.878L292.849 127.794L296.376 122.436L313.984 95.6717L326.981 75.9157C327.125 75.7157 327.288 75.5384 327.466 75.3784C327.466 75.3784 327.466 75.3784 327.468 75.3771C327.47 75.3744 327.473 75.3717 327.477 75.369C327.648 75.2157 327.828 75.0864 328.008 74.9717L328.021 74.9797L328.001 74.965L320.114 70.417L320.229 70.3517L323.421 68.5157L323.904 68.793L328.885 71.661C329.684 72.1264 330.432 72.8264 331.068 73.6517C331.072 73.657 331.074 73.661 331.078 73.6664C331.08 73.6664 331.08 73.6677 331.081 73.669C331.974 74.837 332.644 76.253 332.916 77.6197C332.75 76.9317 332.426 76.5797 332.001 76.5797C331.626 76.5797 331.17 76.8531 330.673 77.4104C330.532 77.5664 330.385 77.7437 330.237 77.9437L329.773 78.5904L282.052 151.14L274.696 155.388Z" fill="#574EC5"/>
<path d="M118.724 205.296L99.2437 194.045L99.2447 361.721C99.2447 364.36 101.114 367.597 103.398 368.916L108.079 371.618C110.364 372.937 114.103 372.937 116.387 371.618L118.724 370.269V205.296Z" fill="#857CF4"/>
<path d="M112.233 372.608C110.727 372.608 109.221 372.279 108.079 371.619L103.398 368.916C101.114 367.597 99.2447 364.36 99.2447 361.721L99.2437 194.045L102.617 195.993L102.606 196L110.189 200.367L114.407 202.803C113.1 203.343 112.241 204.633 112.241 206.329V366.508L112.235 369.215C112.235 369.552 112.265 369.863 112.322 370.147C112.322 370.148 112.322 370.151 112.323 370.152C112.498 371.029 112.928 371.644 113.532 371.953C113.821 372.104 114.152 372.183 114.515 372.183C114.596 372.183 114.678 372.179 114.761 372.171C115.252 372.128 115.792 371.951 116.362 371.629L116.394 371.613L118.724 370.268V370.269L116.387 371.619C116.271 371.685 116.151 371.749 116.028 371.809C114.938 372.341 113.586 372.608 112.233 372.608H112.233Z" fill="#6A5EDE"/>
<path d="M333.04 78.8624V241.738C333.04 243.113 332.543 244.618 331.749 245.944C331.087 247.036 330.259 248.013 329.315 248.674L329.149 248.757L328.885 248.94L116.396 371.605L116.363 371.622C115.254 372.252 114.26 372.334 113.532 371.953C112.887 371.622 112.44 370.944 112.291 369.966C112.257 369.736 112.241 369.486 112.241 369.222V206.329C112.241 203.697 114.31 202.042 116.909 202.654L206.252 235.545L217.956 238.326C220.555 238.922 223.899 237.68 225.421 235.529L238.98 216.64L329.779 78.597L330.243 77.9517C331.783 75.8157 333.04 76.2144 333.04 78.8624Z" fill="#857CF4"/>
<path d="M114.515 372.183C114.152 372.183 113.821 372.104 113.532 371.953C112.928 371.644 112.498 371.029 112.323 370.152C112.498 371.023 112.928 371.635 113.526 371.947L126.977 352.023L113.532 371.949C113.826 372.103 114.161 372.181 114.528 372.181C114.604 372.181 114.682 372.177 114.761 372.171C114.677 372.179 114.596 372.183 114.515 372.183ZM282.069 151.131L329.778 78.5973L330.242 77.952C330.908 77.0293 331.52 76.58 332.001 76.58C332.634 76.58 333.04 77.3573 333.04 78.8626V121.705L282.069 151.131Z" fill="#574EC5"/>
<path d="M112.241 366.508V206.329C112.241 204.632 113.101 203.341 114.408 202.802H114.41L114.416 202.8C114.849 202.622 115.331 202.526 115.847 202.526C116.188 202.526 116.543 202.568 116.909 202.654L163.261 219.718L162.692 220.048C162.204 220.329 161.736 220.693 161.299 221.118C160.66 221.734 160.091 222.477 159.629 223.277C158.859 224.617 158.371 226.14 158.371 227.501V298.092L112.241 366.508Z" fill="#574EC5"/>
<path d="M205.703 235.344L113.526 371.946C112.732 371.532 112.235 370.589 112.235 369.214L112.241 366.508L202.903 232.054L205.703 235.344Z" fill="#857CF4"/>
<path d="M113.526 371.946L158.37 305.488V305.494L126.977 352.022L113.526 371.946Z" fill="#4E47BA"/>
<path d="M112.241 366.508L158.371 298.092V298.097L112.241 366.508Z" fill="#4E47BA"/>
<path d="M113.526 371.946C112.928 371.634 112.498 371.022 112.323 370.152C112.265 369.866 112.235 369.553 112.235 369.214L112.241 366.508L158.371 298.097V305.488L113.526 371.946Z" fill="#564DC3"/>
<path d="M328.883 248.941L329.155 248.765L329.313 248.669C330.257 248.014 331.091 247.038 331.745 245.952C332.531 244.646 333.019 243.157 333.033 241.816L238.985 216.642L301.965 264.481L328.883 248.941Z" fill="#857CF4"/>
<path d="M331.745 245.952C331.091 247.038 330.257 248.014 329.313 248.669L329.155 248.765L116.394 371.613L116.362 371.629C115.259 372.252 114.268 372.332 113.532 371.949L215.284 221.144C219.501 214.412 228.023 211.797 235.289 215.005L331.745 245.952Z" fill="#857CF4"/>
<path d="M114.528 372.181C114.161 372.181 113.826 372.102 113.532 371.949L158.371 305.494V347.376L116.394 371.613L116.362 371.629C115.701 372.002 115.079 372.181 114.528 372.181Z" fill="#564DC3"/>
<path d="M99.2438 194.04L99.2407 194.039C99.2407 194.039 99.2407 188.029 99.2407 183.493C99.2407 182.967 99.2886 182.389 99.3777 181.784C99.2907 182.391 99.2438 182.969 99.2438 183.5C99.2438 187.989 99.2438 193.916 99.2438 194.04Z" fill="#D2D4D1"/>
<path d="M102.613 195.989L99.2437 194.04C99.2437 193.916 99.2437 187.989 99.2437 183.5C99.2437 182.969 99.2906 182.391 99.3775 181.784C99.5092 180.885 99.7311 179.924 100.018 178.975L103.381 180.92C102.957 182.331 102.679 183.776 102.623 185.009C102.623 185.015 102.623 185.02 102.623 185.025C102.622 185.028 102.622 185.031 102.622 185.033C102.616 185.179 102.612 185.32 102.613 185.457C102.613 189.888 102.613 195.721 102.613 195.989Z" fill="#695FCD"/>
<path d="M102.624 185.009C102.679 183.776 102.957 182.331 103.381 180.92L103.395 180.928L103.374 180.963C102.957 182.361 102.68 183.788 102.624 185.009Z" fill="#685CDB"/>
<path d="M102.613 185.457C102.612 185.32 102.615 185.178 102.622 185.033C102.616 185.178 102.613 185.32 102.613 185.457Z" fill="#0EAE97"/>
<path d="M102.617 195.992L102.613 195.989C102.613 195.721 102.613 189.888 102.613 185.457C102.613 185.32 102.616 185.178 102.623 185.033C102.623 185.03 102.623 185.028 102.623 185.025C102.623 185.02 102.623 185.014 102.624 185.009C102.68 183.788 102.958 182.361 103.374 180.962L103.396 180.928C102.916 182.517 102.617 184.14 102.617 185.464C102.617 190 102.617 195.992 102.617 195.992Z" fill="#06A088"/>
<path d="M117.777 200.856L114.41 202.803L111 200.833L102.606 196L105.867 194.063L117.777 200.856Z" fill="#857CF4"/>
<path d="M117.881 200.895L117.777 200.856L105.918 194.092L117.881 200.895Z" fill="#6459D6"/>
<path d="M163.263 219.718L123.693 205.152L116.903 202.646C116.527 202.56 116.163 202.518 115.811 202.518C115.56 202.518 115.317 202.54 115.082 202.581C114.865 202.626 114.649 202.693 114.445 202.782L117.777 200.856L117.881 200.894L117.927 200.92L165.581 218.38L163.263 219.718Z" fill="#574EC5"/>
<path d="M114.41 202.803L111 200.833L110.189 200.367L102.606 196L105.867 194.063L105.918 194.092L117.777 200.856L114.445 202.783L114.41 202.803Z" fill="#574EC5"/>
<path d="M158.4 227.482C158.4 224.744 160.321 221.416 162.692 220.048L374.455 97.7958C376.825 96.4278 380.669 96.4265 383.039 97.7958L387.877 100.589C390.249 101.957 392.171 105.285 392.171 108.024V276.342C392.171 279.068 390.239 282.413 387.877 283.776L176.116 406.028C173.755 407.39 169.892 407.39 167.531 406.028L162.693 403.236C160.333 401.872 158.401 398.526 158.401 395.8L158.4 227.482Z" fill="#857CF4"/>
<path d="M159.629 223.277L171.813 230.303L390.887 103.816C390.115 102.476 389.039 101.299 387.861 100.608L383.008 97.8267C380.652 96.4454 376.795 96.4454 374.439 97.8267L162.675 220.069C161.477 220.76 160.401 221.937 159.629 223.277Z" fill="#857CF4"/>
<path d="M171.813 230.303L159.629 223.277C160.401 221.937 161.477 220.76 162.675 220.069L374.439 97.8267C375.616 97.1361 377.171 96.7907 378.724 96.7907C380.277 96.7907 381.831 97.1361 383.008 97.8267L387.861 100.608C389.039 101.299 390.115 102.476 390.887 103.816L171.813 230.303Z" fill="#6A5EDE"/>
<path d="M171.805 407.07C171.351 407.07 170.896 407.042 170.452 406.985C169.823 406.904 169.235 406.762 168.685 406.58C168.26 406.437 167.873 406.254 167.508 406.052L162.675 403.249C160.3 401.889 158.371 398.558 158.371 395.817V353.737L158.401 353.72V395.8C158.401 398.526 160.333 401.872 162.693 403.236L167.531 406.028C168.711 406.709 170.267 407.05 171.823 407.05C172.901 407.05 173.981 406.886 174.935 406.558C175.023 406.536 175.111 406.508 175.201 406.476C175.047 406.537 174.868 406.594 174.685 406.656C174.421 406.737 174.131 406.809 173.847 406.87C173.185 407.005 172.495 407.07 171.805 407.07Z" fill="#C0C1BF"/>
<path d="M158.371 353.737V347.38L158.401 347.361V353.72L158.371 353.737Z" fill="#C0C1BF"/>
<path d="M158.371 347.38V347.376L158.401 347.359V347.361L158.371 347.38Z" fill="#069983"/>
<path d="M158.371 298.092V227.501C158.371 226.14 158.859 224.617 159.629 223.277L159.639 223.282C158.873 224.62 158.4 226.124 158.4 227.482V298.048L158.371 298.092Z" fill="#09AC93"/>
<path d="M158.371 305.495V305.488L158.4 305.444V305.451L158.371 305.495Z" fill="#6459D6"/>
<path d="M158.371 298.097V298.092L158.4 298.048V298.052L158.371 298.097Z" fill="#6459D6"/>
<path d="M158.371 305.488V298.097L158.4 298.052V305.444L158.371 305.488Z" fill="#05A58D"/>
<path d="M158.371 347.376V305.495L158.4 305.451L158.401 347.359L158.371 347.376Z" fill="#6A5EDE"/>
<path d="M171.823 407.05C170.267 407.05 168.711 406.709 167.531 406.028L162.693 403.236C160.333 401.872 158.401 398.526 158.401 395.8V353.72V347.361V347.358L158.4 305.45V305.444V298.052V298.048V227.482C158.4 226.124 158.873 224.62 159.639 223.282L171.813 230.302C171.813 230.302 171.813 233.49 171.813 235.258V403.574C171.813 404.996 172.321 405.97 173.133 406.397C173.456 406.558 173.824 406.653 174.227 406.653C174.452 406.653 174.688 406.624 174.935 406.558C173.981 406.886 172.901 407.05 171.823 407.05Z" fill="#665AD8"/>
<path d="M195.21 244.913L256.736 209.389C257.694 208.837 258.468 209.285 258.47 210.389V210.874C258.47 211.98 257.695 213.322 256.738 213.874L195.21 249.398C194.252 249.95 193.478 249.502 193.478 248.398V247.913C193.478 246.809 194.252 245.466 195.21 244.913Z" fill="#5048BC"/>
<path d="M195.21 255.18L256.736 219.655C257.694 219.103 258.468 219.551 258.47 220.655V221.14C258.47 222.245 257.695 223.588 256.738 224.14L195.21 259.664C194.252 260.216 193.478 259.768 193.478 258.664V258.18C193.478 257.075 194.252 255.732 195.21 255.18Z" fill="#5048BC"/>
<path d="M195.21 265.445L256.736 229.921C257.694 229.369 258.468 229.816 258.47 230.921V231.405C258.47 232.51 257.695 233.853 256.738 234.405L195.21 269.929C194.252 270.481 193.478 270.034 193.478 268.929V268.445C193.478 267.34 194.252 265.997 195.21 265.445Z" fill="#5048BC"/>
<path d="M306.975 262.284L368.501 226.76C369.459 226.208 370.235 226.654 370.235 227.76V228.245C370.235 229.349 369.46 230.692 368.503 231.245L306.975 266.768C306.017 267.32 305.243 266.873 305.243 265.768V265.284C305.243 264.18 306.017 262.836 306.975 262.284Z" fill="#5048BC"/>
<path d="M306.975 272.549L368.501 237.025C369.459 236.473 370.235 236.921 370.235 238.025V238.511C370.235 239.615 369.46 240.959 368.503 241.511L306.975 277.033C306.017 277.587 305.243 277.139 305.243 276.033V275.549C305.243 274.445 306.017 273.101 306.975 272.549Z" fill="#5048BC"/>
<path d="M306.975 282.815L368.501 247.29C369.459 246.738 370.235 247.185 370.235 248.29V248.776C370.235 249.88 369.46 251.224 368.503 251.776L306.975 287.298C306.017 287.852 305.243 287.404 305.243 286.298V285.815C305.243 284.711 306.017 283.368 306.975 282.815Z" fill="#5048BC"/>
<path d="M306.975 293.08L368.501 257.556C369.459 257.004 370.235 257.452 370.235 258.556V259.041C370.235 260.146 369.46 261.489 368.503 262.041L306.975 297.565C306.017 298.117 305.243 297.669 305.243 296.565V296.08C305.243 294.976 306.017 293.632 306.975 293.08Z" fill="#5048BC"/>
<path d="M336.375 212.624C335.616 212.624 335.093 211.603 335.448 209.999L335.452 209.979C335.708 208.819 335.496 207.791 334.932 207.463L334.213 207.047C333.376 206.561 333.376 204.628 334.213 203.176C335.051 201.725 335.051 199.791 334.213 199.305C333.376 198.82 333.376 196.887 334.213 195.435C335.051 193.984 335.051 192.049 334.213 191.565C333.376 191.08 333.376 189.147 334.213 187.695C335.051 186.243 335.051 184.309 334.213 183.824C333.376 183.339 333.376 181.405 334.213 179.955C335.051 178.503 335.051 176.569 334.213 176.084C333.376 175.599 333.376 173.664 334.213 172.213L334.932 170.967C335.496 169.988 335.708 168.715 335.452 167.851L335.448 167.836C334.939 166.123 336.237 163.52 337.447 163.52C337.552 163.52 337.659 163.54 337.761 163.583L337.925 163.649C337.152 164.519 336.613 166.167 336.973 167.375L336.977 167.389C337.235 168.252 337.023 169.527 336.457 170.505L335.74 171.751C334.903 173.203 334.903 175.136 335.74 175.621C336.576 176.107 336.576 178.04 335.74 179.492C334.903 180.944 334.903 182.877 335.74 183.363C336.576 183.847 336.576 185.781 335.74 187.233C334.903 188.684 334.903 190.619 335.74 191.103C336.576 191.588 336.576 193.521 335.74 194.973C334.903 196.425 334.903 198.359 335.74 198.844C336.576 199.329 336.576 201.263 335.74 202.715C334.903 204.165 334.903 206.1 335.74 206.585L336.457 207.001C337.023 207.328 337.235 208.356 336.977 209.517L336.973 209.536C336.696 210.787 336.952 211.683 337.437 212.017C337.073 212.433 336.701 212.624 336.375 212.624ZM341.552 211.639C341.313 211.639 341.092 211.537 340.913 211.319L340.124 210.359C340.065 210.288 340.001 210.228 339.935 210.181C340.287 209.787 340.668 209.577 341.011 209.577C341.251 209.577 341.472 209.681 341.649 209.897L342.439 210.856C342.497 210.928 342.561 210.988 342.628 211.035C342.28 211.424 341.897 211.639 341.552 211.639ZM347.297 208.321C347.06 208.321 346.839 208.22 346.659 208.001L346.172 207.408C346.113 207.336 346.049 207.277 345.981 207.231C346.329 206.841 346.712 206.627 347.059 206.627C347.296 206.627 347.517 206.728 347.697 206.947L348.185 207.54C348.244 207.611 348.308 207.671 348.375 207.717C348.027 208.107 347.644 208.321 347.297 208.321ZM353.043 205.004C352.805 205.004 352.584 204.903 352.405 204.684L351.917 204.092C351.857 204.02 351.795 203.96 351.728 203.913C352.076 203.524 352.459 203.309 352.804 203.309C353.043 203.309 353.263 203.411 353.443 203.629L353.929 204.221C353.989 204.293 354.052 204.353 354.12 204.4C353.772 204.789 353.389 205.004 353.043 205.004ZM358.789 201.687C358.551 201.687 358.329 201.584 358.149 201.367L357.663 200.773C357.604 200.703 357.54 200.643 357.473 200.596C357.821 200.207 358.204 199.992 358.549 199.992C358.788 199.992 359.009 200.093 359.189 200.312L359.676 200.905C359.735 200.976 359.799 201.036 359.867 201.083C359.517 201.472 359.135 201.687 358.789 201.687ZM364.535 198.369C364.296 198.369 364.076 198.268 363.896 198.049L363.409 197.456C363.349 197.385 363.287 197.325 363.219 197.279C363.567 196.889 363.951 196.675 364.296 196.675C364.535 196.675 364.756 196.776 364.935 196.995L365.421 197.587C365.481 197.659 365.544 197.717 365.612 197.765C365.264 198.155 364.881 198.369 364.535 198.369ZM369.749 193.357C369.643 193.357 369.537 193.337 369.433 193.295L369.28 193.231C369.62 192.856 369.995 192.643 370.34 192.643C370.443 192.643 370.543 192.661 370.639 192.701L370.796 192.765C370.472 193.129 370.107 193.357 369.749 193.357ZM339.907 163.311C339.804 163.311 339.704 163.292 339.608 163.252L339.44 163.184C339.699 162.899 339.936 162.523 340.124 162.075L340.913 160.205C341.361 159.144 342.065 158.508 342.66 158.508C342.82 158.508 342.972 158.553 343.109 158.649C342.859 158.929 342.627 159.299 342.439 159.743L341.649 161.613C341.213 162.649 340.512 163.311 339.907 163.311ZM345.951 159.279C345.791 159.279 345.639 159.233 345.501 159.137C345.752 158.857 345.984 158.487 346.172 158.043L346.659 156.888C347.107 155.827 347.811 155.189 348.405 155.189C348.565 155.189 348.717 155.236 348.855 155.332C348.604 155.612 348.372 155.981 348.185 156.427L347.697 157.581C347.249 158.643 346.545 159.279 345.951 159.279ZM351.696 155.961C351.536 155.961 351.384 155.916 351.247 155.819C351.497 155.54 351.729 155.169 351.917 154.725L352.405 153.571C352.852 152.509 353.557 151.873 354.152 151.873C354.312 151.873 354.464 151.919 354.6 152.015C354.349 152.295 354.117 152.664 353.929 153.108L353.443 154.264C352.995 155.325 352.291 155.961 351.696 155.961ZM357.443 152.644C357.283 152.644 357.131 152.599 356.993 152.501C357.243 152.223 357.476 151.852 357.663 151.408L358.149 150.253C358.597 149.192 359.303 148.556 359.897 148.556C360.057 148.556 360.209 148.601 360.347 148.697C360.096 148.977 359.864 149.347 359.676 149.791L359.189 150.947C358.741 152.008 358.037 152.644 357.443 152.644ZM363.188 149.327C363.028 149.327 362.876 149.281 362.739 149.185C362.989 148.905 363.221 148.535 363.409 148.091L363.896 146.936C364.344 145.875 365.048 145.239 365.643 145.239C365.803 145.239 365.955 145.284 366.092 145.381C365.841 145.66 365.609 146.031 365.421 146.475L364.935 147.629C364.487 148.691 363.783 149.327 363.188 149.327ZM369.236 146.376C369.075 146.376 368.923 146.329 368.787 146.233C368.899 146.108 369.009 145.963 369.113 145.799L369.433 145.296C369.895 144.575 370.396 144.252 370.821 144.252C370.989 144.252 371.145 144.303 371.284 144.399C371.175 144.523 371.067 144.668 370.96 144.835L370.639 145.337C370.208 146.011 369.688 146.376 369.236 146.376Z" fill="#665AD8"/>
<path d="M344.824 158.367L345.31 158.957C345.938 159.721 347.07 159.068 347.697 157.581L348.185 156.427C348.81 154.939 349.942 154.287 350.57 155.048L351.057 155.641C351.685 156.404 352.814 155.751 353.442 154.264L353.929 153.108C354.557 151.621 355.689 150.968 356.314 151.732L356.804 152.324C357.43 153.087 358.561 152.433 359.189 150.947L359.676 149.791C360.304 148.304 361.433 147.652 362.061 148.413L362.548 149.007C363.176 149.769 364.308 149.116 364.934 147.629L365.421 146.475C366.049 144.987 367.18 144.335 367.808 145.097L368.596 146.056C369.106 146.677 369.977 146.371 370.638 145.337L370.96 144.835C372.241 142.827 373.826 143.912 373.273 146.417L373.268 146.436C373.012 147.596 373.224 148.625 373.789 148.952L374.506 149.368C375.344 149.853 375.344 151.788 374.506 153.239C373.669 154.691 373.669 156.624 374.506 157.109C375.344 157.595 375.344 159.528 374.506 160.98C373.669 162.431 373.669 164.365 374.506 164.849C375.344 165.335 375.344 167.268 374.506 168.72C373.669 170.172 373.669 172.105 374.506 172.591C375.344 173.076 375.344 175.009 374.506 176.461C373.669 177.913 373.669 179.847 374.506 180.332C375.344 180.817 375.344 182.751 374.506 184.203L373.788 185.448C373.224 186.427 373.012 187.701 373.268 188.564L373.272 188.579C373.826 190.444 372.241 193.36 370.96 192.832L370.638 192.701C369.977 192.429 369.106 193.128 368.596 194.34L367.808 196.211C367.18 197.697 366.049 198.349 365.421 197.587L364.934 196.995C364.308 196.232 363.176 196.885 362.548 198.372L362.061 199.527C361.433 201.013 360.304 201.667 359.676 200.905L359.189 200.312C358.561 199.549 357.43 200.203 356.804 201.689L356.314 202.845C355.689 204.332 354.557 204.985 353.929 204.221L353.442 203.629C352.814 202.867 351.685 203.52 351.057 205.007L350.57 206.161C349.942 207.649 348.81 208.301 348.185 207.54L347.697 206.947C347.07 206.184 345.938 206.837 345.31 208.324L344.824 209.479C344.197 210.967 343.066 211.62 342.438 210.856L341.649 209.897C341.14 209.276 340.266 209.583 339.608 210.616L339.286 211.119C338.005 213.127 336.418 212.041 336.973 209.536L336.977 209.517C337.234 208.356 337.022 207.328 336.457 207.001L335.74 206.585C334.902 206.1 334.902 204.165 335.74 202.715C336.576 201.263 336.576 199.329 335.74 198.844C334.902 198.359 334.902 196.425 335.74 194.973C336.576 193.521 336.576 191.588 335.74 191.103C334.902 190.619 334.902 188.684 335.74 187.233C336.576 185.781 336.576 183.847 335.74 183.363C334.902 182.877 334.902 180.944 335.74 179.492C336.576 178.04 336.576 176.107 335.74 175.621C334.902 175.136 334.902 173.203 335.74 171.751L336.457 170.505C337.022 169.527 337.234 168.252 336.977 167.389L336.973 167.375C336.418 165.509 338.005 162.593 339.286 163.121L339.608 163.252C340.266 163.524 341.14 162.824 341.649 161.613L342.438 159.743C343.066 158.256 344.197 157.603 344.824 158.367Z" fill="#EDEDEB"/>
<path d="M343.412 163.516L366.834 149.993C369.066 148.704 370.876 149.749 370.876 152.327V185.436C370.876 188.013 369.066 191.148 366.834 192.436L343.412 205.96C341.18 207.249 339.369 206.204 339.369 203.627V170.516C339.369 167.939 341.18 164.805 343.412 163.516Z" fill="white"/>
<path d="M362.898 178.199L362.731 178.156L361.282 175.583L358.603 165.551C358.559 165.383 358.598 165.141 358.702 164.949L360.186 162.213V161.864L359.579 162.213C359.47 162.277 359.379 162.191 359.379 162.02C359.379 161.849 359.47 161.66 359.579 161.597L360.268 161.199C360.442 161.097 360.584 161.236 360.584 161.507V162.044C360.584 162.191 360.542 162.353 360.468 162.489L358.999 165.2L361.648 175.127L363.063 177.625C363.124 177.732 363.098 177.937 363.007 178.084L362.898 178.199Z" fill="#857CF4"/>
<path d="M362.897 171.292C360.549 172.648 358.64 176.71 358.64 180.349C358.64 183.986 360.549 185.844 362.897 184.489C365.244 183.133 367.153 179.072 367.153 175.432C367.153 171.793 365.244 169.936 362.897 171.292ZM362.897 185.312C360.256 186.837 358.108 184.746 358.108 180.654C358.108 176.562 360.256 171.993 362.897 170.469C365.536 168.944 367.685 171.033 367.685 175.125C367.685 179.218 365.536 183.788 362.897 185.312Z" fill="#EDEDEB"/>
<path d="M368.072 175.108L367.939 174.98C367.939 170.669 365.677 168.469 362.897 170.075C360.116 171.68 357.855 176.492 357.855 180.801L357.721 181.084L357.588 180.956C357.588 176.419 359.971 171.353 362.897 169.664C365.824 167.973 368.204 170.289 368.204 174.825L368.072 175.108Z" fill="#857CF4"/>
<path d="M357.721 181.084L357.588 180.956C357.588 176.419 359.971 171.353 362.897 169.664C363.547 169.289 364.169 169.111 364.745 169.111C366.764 169.111 368.204 171.296 368.204 174.825L368.072 175.108L367.939 174.98C367.939 171.627 366.569 169.551 364.652 169.551C364.105 169.551 363.515 169.719 362.897 170.075C362.153 170.505 361.445 171.164 360.809 171.983C360.687 172.139 360.568 172.303 360.451 172.471C358.903 174.7 357.855 177.868 357.855 180.801L357.721 181.084Z" fill="#574EC5"/>
<path d="M352.525 184.085L352.392 183.956C352.392 179.646 350.131 177.446 347.35 179.05C344.57 180.656 342.307 185.469 342.307 189.778L342.174 190.061L342.042 189.93C342.042 185.394 344.423 180.329 347.35 178.64C350.276 176.95 352.657 179.265 352.657 183.802L352.525 184.085Z" fill="#857CF4"/>
<path d="M342.174 190.061L342.042 189.93C342.042 185.394 344.423 180.329 347.35 178.64C347.999 178.265 348.621 178.086 349.197 178.086C351.216 178.086 352.657 180.272 352.657 183.802L352.525 184.085L352.392 183.956C352.392 180.602 351.023 178.526 349.104 178.526C348.557 178.526 347.967 178.694 347.35 179.05C344.57 180.656 342.307 185.469 342.307 189.778L342.174 190.061Z" fill="#574EC5"/>
<path d="M347.35 180.268C345.002 181.624 343.091 185.687 343.091 189.325C343.091 192.963 345.002 194.82 347.35 193.465C349.698 192.111 351.607 188.047 351.607 184.409C351.607 180.771 349.698 178.913 347.35 180.268ZM347.35 194.289C344.708 195.813 342.562 193.724 342.562 189.631C342.562 185.54 344.708 180.969 347.35 179.445C349.99 177.921 352.139 180.011 352.139 184.103C352.139 188.195 349.99 192.764 347.35 194.289Z" fill="#EDEDEB"/>
<path d="M353.864 184.912L353.834 184.926L347.32 187.189L347.161 187.08L347.2 186.746L351.605 176.582C351.68 176.412 351.806 176.33 351.886 176.396C351.969 176.462 351.976 176.653 351.902 176.822L347.745 186.417L353.786 184.318L359.946 170.102C360.021 169.933 360.146 169.85 360.228 169.917C360.31 169.984 360.316 170.174 360.244 170.344L354.012 184.724L353.864 184.912Z" fill="#857CF4"/>
<path d="M353.862 184.912L353.676 184.817L350.502 172.93C350.466 172.792 350.52 172.584 350.622 172.466C350.725 172.35 350.84 172.368 350.877 172.506L354.05 184.392C354.088 184.53 354.033 184.738 353.93 184.856L353.862 184.912Z" fill="#857CF4"/>
<path d="M353.399 183.169L353.383 183.178L348.016 185.609C347.907 185.658 347.824 185.557 347.833 185.382C347.843 185.208 347.947 185.024 348.047 184.976L353.415 182.544C353.524 182.494 353.605 182.597 353.596 182.77C353.588 182.937 353.501 183.11 353.399 183.169Z" fill="#857CF4"/>
<path d="M351.292 171.192C350.892 171.316 350.917 171.117 350.187 171.6C349.572 172.008 349.232 172.561 349.196 173.412C349.189 173.604 349.296 173.697 349.417 173.605C349.623 173.449 349.919 173.247 350.052 173.253C350.269 173.264 350.54 173.269 350.78 173.053C351.019 172.837 351.332 172.272 351.765 171.884C352.2 171.495 352.384 171.521 352.767 171.284L353.013 171.117C353.14 171.027 353.225 170.781 353.184 170.62C353.123 170.387 352.993 170.132 352.725 170.244C352.343 170.404 351.74 171.053 351.292 171.192Z" fill="#857CF4"/>
<path d="M349.325 173.641C349.25 173.641 349.196 173.561 349.196 173.43C349.196 173.425 349.196 173.418 349.196 173.412C349.232 172.561 349.572 172.008 350.186 171.6C350.917 171.117 350.892 171.316 351.292 171.192C351.74 171.053 352.342 170.404 352.725 170.244C352.77 170.225 352.81 170.217 352.849 170.217C353.034 170.217 353.133 170.426 353.184 170.62C353.19 170.648 353.194 170.678 353.194 170.709C353.194 170.861 353.117 171.042 353.013 171.117L352.766 171.284C352.384 171.521 352.2 171.494 351.765 171.884C351.437 172.177 351.177 172.573 350.966 172.842C350.9 172.928 350.837 173.001 350.78 173.053C350.712 173.114 350.642 173.158 350.57 173.188C350.442 173.244 350.31 173.257 350.189 173.257C350.141 173.257 350.096 173.254 350.052 173.253C350.05 173.253 350.048 173.253 350.045 173.253C349.909 173.253 349.618 173.452 349.417 173.605C349.384 173.629 349.353 173.641 349.325 173.641Z" fill="#574EC5"/>
<path d="M353.128 182.154L352.941 182.065C352.903 181.928 352.953 181.72 353.056 181.6C356.44 177.632 358.451 172.732 359.031 167.032C359.048 166.853 359.149 166.681 359.259 166.646C359.368 166.612 359.441 166.729 359.422 166.908C358.817 172.852 356.724 177.961 353.199 182.093L353.128 182.154Z" fill="#857CF4"/>
<path d="M357.412 176.726L357.285 176.729L356.717 176.337C356.632 176.278 356.62 176.09 356.69 175.918C356.759 175.746 356.886 175.654 356.97 175.713L357.536 176.106C357.623 176.165 357.635 176.352 357.566 176.524L357.412 176.726Z" fill="#857CF4"/>
<path d="M353.864 183.132C353.34 183.433 352.913 184.341 352.913 185.153C352.913 185.964 353.34 186.378 353.864 186.076C354.387 185.774 354.813 184.868 354.813 184.056C354.813 183.244 354.387 182.829 353.864 183.132ZM353.864 186.51C353.185 186.902 352.633 186.365 352.633 185.314C352.633 184.264 353.185 183.089 353.864 182.697C354.541 182.305 355.093 182.842 355.093 183.893C355.093 184.945 354.541 186.12 353.864 186.51Z" fill="#EDEDEB"/>
<path d="M356.013 186.217L355.925 186.22L353.776 184.824C353.716 184.785 353.705 184.654 353.753 184.533C353.803 184.41 353.891 184.344 353.951 184.384L356.099 185.78C356.16 185.82 356.171 185.95 356.123 186.072L356.013 186.217Z" fill="#EDEDEB"/>
<path d="M356.456 185.961L355.408 186.566L355.268 186.43L355.408 186.132L356.456 185.528L356.595 185.664L356.456 185.961Z" fill="#857CF4"/>
<path d="M355.408 186.566L355.268 186.43L355.408 186.132L356.456 185.528L356.595 185.664L356.456 185.961L355.408 186.566Z" fill="#574EC5"/>
<path d="M358.542 162.504C358.542 161.989 358.773 161.437 359.06 161.272C359.347 161.107 359.58 161.391 359.58 161.905C359.58 162.42 359.347 162.971 359.06 163.136C358.773 163.301 358.542 163.019 358.542 162.504Z" fill="#857CF4"/>
<path d="M358.902 163.184C358.771 163.184 358.664 163.081 358.602 162.902L359.055 162.641C359.152 162.585 359.2 162.341 359.2 162.125C359.2 161.934 359.163 161.765 359.088 161.765C359.078 161.765 359.067 161.768 359.055 161.774L358.602 162.037C358.688 161.69 358.86 161.388 359.06 161.272C359.116 161.24 359.17 161.225 359.219 161.225C359.428 161.225 359.58 161.489 359.58 161.905C359.58 162.42 359.347 162.97 359.06 163.136C359.006 163.168 358.951 163.184 358.902 163.184Z" fill="#4E47BA"/>
<path d="M359.055 162.641L357.319 163.643C357.099 163.769 357.099 162.904 357.319 162.777L359.055 161.775C359.249 161.663 359.249 162.529 359.055 162.641Z" fill="#857CF4"/>
<path d="M357.278 163.656C357.195 163.656 357.153 163.49 357.155 163.304C357.155 163.088 357.209 162.84 357.319 162.777L359.055 161.774C359.067 161.768 359.077 161.765 359.088 161.765C359.163 161.765 359.2 161.934 359.2 162.125C359.2 162.341 359.152 162.585 359.055 162.641L358.601 162.902L357.319 163.642C357.304 163.652 357.291 163.656 357.278 163.656Z" fill="#574EC5"/>
<path d="M362.565 178.081C362.565 177.799 362.713 177.483 362.897 177.377C363.08 177.272 363.228 177.416 363.228 177.7C363.228 177.983 363.08 178.299 362.897 178.404C362.713 178.509 362.565 178.365 362.565 178.081Z" fill="#EDEDEB"/>
<path d="M347.019 187.059C347.019 186.775 347.167 186.46 347.349 186.353C347.533 186.248 347.681 186.392 347.681 186.676C347.681 186.96 347.533 187.275 347.349 187.38C347.167 187.487 347.019 187.341 347.019 187.059Z" fill="#EDEDEB"/>
<path d="M544.624 408.438L544.607 408.228V408.162L544.575 407.968L544.509 407.693L544.38 407.385C544.185 406.962 543.828 406.573 543.343 406.233L543.293 406.184L543.132 406.088L542.953 405.973L542.888 405.925L403.287 325.314L403.011 325.168C400.497 323.773 397.675 323.141 394.901 323.254L394.772 323.27C392.387 323.384 390.035 324.065 387.911 325.297L387.879 325.314L377.741 331.153L201.679 432.816L179.248 445.76L179.183 445.809C177.868 446.83 177.172 448.323 177.089 449.847V449.896V461.914V461.962V462.272C177.089 464.137 177.999 465.969 179.832 467.04L179.848 467.056L182.053 468.321L318.881 547.326C320.081 548.024 321.671 548.364 323.244 548.331C324.703 548.316 326.147 547.974 327.265 547.342L327.315 547.326L515.575 438.64L542.888 422.874L543.147 422.696L543.311 422.598C544.169 421.998 544.575 421.252 544.624 420.506C544.624 420.294 544.575 409.185 544.624 408.438Z" fill="#857CF4"/>
<path d="M323.113 548.326L322.78 548.314C322.508 548.305 322.236 548.3 321.968 548.27L321.956 548.268C321.585 548.228 321.22 548.168 320.867 548.086L320.557 547.993C320.312 547.928 320.064 547.862 319.833 547.774C319.551 547.668 319.281 547.547 319.028 547.409C319.025 547.408 319.023 547.405 319.019 547.404C319.016 547.402 319.013 547.401 319.009 547.398C318.967 547.374 318.924 547.35 318.881 547.326L182.053 468.321L179.848 467.056L179.832 467.04C177.999 465.969 177.089 464.137 177.089 462.272V461.962V461.914V450.392C177.12 451.28 177.356 452.156 177.801 452.94C178.104 453.494 178.499 453.965 178.971 454.361C179.231 454.585 179.517 454.79 179.832 454.973L179.848 454.989L182.053 456.254L208.832 471.705L316.497 533.882V533.884L318.875 535.257C318.959 535.305 319.045 535.352 319.133 535.397C319.837 535.762 320.652 536.009 321.513 536.143C322.027 536.224 322.556 536.265 323.087 536.265C323.095 536.265 323.104 536.265 323.113 536.265V548.326Z" fill="#564DC3"/>
<path d="M323.244 548.332H323.113V536.265C323.119 536.265 323.125 536.265 323.131 536.265C323.168 536.265 323.207 536.265 323.244 536.265C324.172 536.254 325.093 536.113 325.929 535.848C326.408 535.697 326.861 535.505 327.272 535.273L327.273 535.272L327.315 535.259L401.535 492.407L471.42 452.047L509.783 429.894L515.555 426.562L515.58 426.564L542.888 410.798L543.148 410.629L543.307 410.534C543.307 410.533 543.308 410.533 543.308 410.532H543.311C544.169 409.932 544.575 409.185 544.624 408.438C544.607 408.689 544.601 410.101 544.601 411.878C544.601 411.882 544.601 411.888 544.601 411.893C544.601 411.898 544.601 411.904 544.601 411.909C544.603 415.413 544.624 420.308 544.624 420.502C544.624 420.504 544.624 420.504 544.624 420.504C544.624 420.504 544.624 420.504 544.624 420.505C544.624 420.505 544.624 420.505 544.624 420.506C544.575 421.252 544.169 421.998 543.311 422.598L543.147 422.696L542.888 422.874L515.575 438.64L327.315 547.326L327.265 547.342C326.147 547.974 324.703 548.316 323.244 548.332Z" fill="#564DC3"/>
<path d="M177.089 449.847C177.172 448.323 177.868 446.83 179.183 445.809L179.248 445.76L201.679 432.816L377.741 331.153L387.879 325.314L377.773 331.153L201.679 432.816L179.248 445.76L179.183 445.809C177.868 446.83 177.172 448.323 177.089 449.847ZM542.888 405.925L409.353 328.833L403.287 325.314L542.888 405.925Z" fill="#4E47BA"/>
<path d="M544.624 408.439C544.574 409.185 544.169 409.932 543.31 410.532L543.146 410.628L515.557 426.556L401.534 492.407L327.314 535.259L327.265 535.275C326.146 535.908 324.702 536.248 323.244 536.265C321.67 536.281 320.081 535.957 318.881 535.259L316.496 533.88L209.966 472.36L182.053 456.255L179.848 454.99L179.832 454.973C177.933 453.871 177.025 451.94 177.089 450.009V449.896V449.847C177.786 449.653 178.646 449.507 179.637 449.409L204.63 446.928L334.289 434.017H334.306L354.546 431.989C359.008 431.552 362.997 429.929 363.436 428.389L367.49 414.845V414.829L392.809 330.051L394.706 323.741L394.722 323.66C394.772 323.515 394.82 323.368 394.901 323.255C397.674 323.141 400.497 323.773 403.01 325.168L403.286 325.315L409.353 328.833L542.888 405.925L542.953 405.973L543.132 406.088L543.293 406.184L543.342 406.233C543.828 406.573 544.185 406.963 544.38 407.385L544.509 407.693L544.574 407.968L544.606 408.163V408.228L544.624 408.439Z" fill="#857CF4"/>
<path d="M515.58 426.564L515.555 426.563L543.148 410.629L542.888 410.799L515.58 426.564Z" fill="#069C86"/>
<path d="M544.62 408.388L544.607 408.228V408.162L544.575 407.968L544.509 407.693L544.38 407.385C544.372 407.365 544.363 407.346 544.352 407.328C544.54 407.672 544.629 408.03 544.62 408.388Z" fill="#A9ABAA"/>
<path d="M543.508 406.354C543.455 406.313 543.4 406.273 543.343 406.233L543.325 406.217C543.389 406.262 543.449 406.308 543.508 406.354Z" fill="#A9ABAA"/>
<path d="M543.191 406.123L543.132 406.088L542.953 405.973L542.949 405.971C543.033 406.02 543.113 406.071 543.191 406.123Z" fill="#A9ABAA"/>
<path d="M385.369 414.192L385.393 413.972L385.397 413.937L385.429 413.631L542.945 405.968C542.946 405.969 542.948 405.971 542.949 405.971L542.953 405.973L543.132 406.088L543.19 406.123C543.237 406.153 543.281 406.185 543.325 406.217L543.342 406.233C543.4 406.273 543.454 406.313 543.508 406.355C543.884 406.656 544.166 406.985 544.352 407.328C544.362 407.347 544.372 407.365 544.38 407.385L544.509 407.693L544.574 407.968L544.606 408.163V408.228L544.62 408.388C544.618 408.407 544.618 408.425 544.617 408.444L385.369 414.192Z" fill="#564DC3"/>
<path d="M322.792 536.26C322.36 536.247 321.93 536.208 321.513 536.144C320.654 536.008 319.838 535.76 319.133 535.397C319.048 535.353 318.964 535.307 318.881 535.259C319.966 535.889 321.369 536.216 322.792 536.26ZM318.881 535.259L316.497 533.883V533.881L318.881 535.259Z" fill="#564DC3"/>
<path d="M323.086 536.265C322.556 536.265 322.026 536.224 321.513 536.143C321.93 536.207 322.36 536.247 322.792 536.259C322.889 536.262 322.988 536.265 323.086 536.265ZM319.133 535.397C319.045 535.352 318.958 535.305 318.874 535.257L316.497 533.883L318.881 535.258C318.964 535.306 319.048 535.353 319.133 535.397Z" fill="#544BC1"/>
<path d="M323.092 536.265C323.089 536.265 323.088 536.265 323.086 536.265C322.988 536.265 322.889 536.262 322.792 536.259C321.369 536.216 319.966 535.889 318.881 535.258L316.497 533.881L332.44 444.397L333.177 444.382L323.248 536.264C323.196 536.265 323.144 536.265 323.092 536.265ZM327.308 535.256L401.525 492.402L401.529 492.405L327.308 535.256Z" fill="#564DC3"/>
<path d="M544.617 408.444C544.576 409.186 544.165 409.925 543.307 410.534L543.148 410.629L327.308 535.256L327.272 535.273C326.143 535.912 324.703 536.242 323.248 536.264L335.372 424.065C335.875 419.416 346.544 415.593 360.423 415.093L544.617 408.444Z" fill="#857CF4"/>
<path d="M177.089 449.847C177.172 448.323 177.868 446.83 179.183 445.809L179.248 445.76L201.679 432.816L377.773 331.153L387.879 325.314L387.911 325.297C390.035 324.065 392.387 323.384 394.772 323.27L394.901 323.254C394.82 323.368 394.772 323.514 394.723 323.66L394.707 323.741L392.809 330.05L367.491 414.829V414.837L360.423 415.093C346.544 415.593 335.875 419.416 335.372 424.065L334.297 434.017H334.289L204.631 446.928L179.637 449.409C178.647 449.507 177.787 449.653 177.089 449.847Z" fill="#0B6658"/>
<path d="M177.089 450.009V449.847C177.787 449.653 178.647 449.507 179.637 449.409L204.631 446.928L334.289 434.017H334.297L333.179 444.371L332.44 444.397L205.068 448.988L177.089 450.009ZM367.491 414.837V414.829L392.809 330.051L394.707 323.741L394.723 323.66C394.772 323.515 394.82 323.368 394.901 323.255L394.204 329.953L385.429 413.631H385.428L385.393 413.972L385.365 414.18L385.364 414.192L367.491 414.837Z" fill="#564DC3"/>
<path d="M385.394 413.972L385.428 413.63L385.398 413.937L385.394 413.972Z" fill="#544BC1"/>
<path d="M332.44 444.397L333.179 444.37L333.177 444.382L332.44 444.397Z" fill="#544BC1"/>
<path d="M333.177 444.383L333.179 444.371L334.297 434.017L335.372 424.065C335.875 419.416 346.544 415.593 360.423 415.093L367.491 414.837L385.364 414.192L385.153 416.24L383.24 434.487C382.753 439.143 372.081 442.971 358.181 443.473L345.707 443.928H345.692L333.187 444.381L333.177 444.383Z" fill="#564DC3"/>
<path d="M394.772 323.27L394.723 323.66L394.707 323.741L393.668 329.985L379.833 414.229L379.801 414.392L379.575 415.802L377.028 431.308C376.313 435.688 366.583 439.305 353.623 440.035L341.977 440.682H341.961L333.528 441.153L333.008 441.186L204.939 448.338L177.089 449.896V449.847C177.172 448.323 177.868 446.83 179.183 445.809L179.248 445.76L201.679 432.817L377.773 331.153L387.879 325.314L387.911 325.297C390.035 324.065 392.387 323.384 394.772 323.27Z" fill="#857CF4"/>
<path d="M368.716 450.371C358.509 450.371 352.593 448.488 349.976 447.366C345.492 445.448 342.658 442.319 342.201 438.78C341.801 435.682 343.218 432.702 346.193 430.385C349.588 427.741 354.705 426.222 360.23 426.222C360.97 426.222 361.71 426.252 362.445 426.309C362.358 425.521 362.397 424.728 362.564 423.944C363.186 421.037 365.502 418.63 369.086 417.168C371.482 416.189 374.358 415.672 377.402 415.672C382.864 415.672 388.314 417.31 391.984 420.054C394.388 421.853 401.888 428.701 397.504 441.353L395.386 447.413L385.21 448.996C379.312 449.908 373.764 450.371 368.718 450.371H368.716Z" fill="#FAFAF9"/>
<path d="M370.093 419.637C364.721 421.83 363.571 426.16 367.057 429.816C360.507 427.93 352.341 428.977 347.831 432.49C342.769 436.43 344.2 441.995 351.025 444.916C354.467 446.389 364.645 449.478 384.8 446.361L393.397 445.024L394.984 440.481C398.673 429.833 392.999 424.142 390.388 422.19C385.209 418.318 376.124 417.174 370.093 419.637Z" fill="#292929"/>
<path d="M24.6423 397.48L26.0857 397.542C27.9434 397.624 29.4903 396.73 29.3491 395.657L29.2398 394.825C29.0986 393.752 30.6455 392.858 32.5043 392.94L33.9475 393.004C35.8054 393.085 37.3523 392.192 37.2111 391.12L37.1018 390.286C36.9606 389.213 38.5075 388.32 40.3653 388.401L41.809 388.464C43.6669 388.546 45.2142 387.653 45.0731 386.58L44.9633 385.746C44.8221 384.674 46.3695 383.781 48.2273 383.862L49.671 383.926C51.5289 384.008 53.0757 383.114 52.9346 382.041L52.8253 381.208C52.6841 380.134 54.2309 379.241 56.0898 379.322L58.4262 379.426C59.9393 379.492 61.3054 378.905 61.6294 378.049L61.7862 377.633C62.4138 375.969 66.3622 375.742 67.5445 377.302L67.5543 377.314C68.1018 378.037 69.4163 378.458 70.7685 378.348L72.4898 378.206C74.4961 378.042 76.2138 379.036 75.9294 380.193C75.645 381.35 77.3633 382.344 79.369 382.18C81.3747 382.014 83.0934 383.006 82.8081 384.165C82.5237 385.322 84.2423 386.316 86.2481 386.15C88.2543 385.986 89.9726 386.978 89.6877 388.137C89.4029 389.294 91.1215 390.288 93.1273 390.122C95.133 389.957 96.8518 390.95 96.5669 392.108C96.2825 393.266 98.0013 394.258 100.007 394.094C102.013 393.93 103.731 394.922 103.446 396.08L103.202 397.074C103.01 397.854 103.742 398.613 104.993 398.929L105.014 398.934C107.714 399.618 107.322 401.897 104.441 402.26L103.721 402.35C102.239 402.537 101.22 403.326 101.336 404.2L101.513 405.549C101.654 406.621 100.107 407.514 98.2491 407.433L96.8065 407.37C94.9481 407.289 93.4007 408.181 93.5419 409.254L93.6513 410.088C93.7929 411.161 92.2461 412.054 90.3877 411.973L88.9445 411.909C87.0862 411.828 85.5387 412.721 85.6799 413.793L85.7903 414.626C85.9314 415.7 84.3841 416.593 82.5257 416.512L81.0825 416.448C79.2242 416.366 77.6773 417.26 77.819 418.333L77.9283 419.166C78.0695 420.238 76.5226 421.132 74.6642 421.05L73.221 420.986C71.3627 420.905 69.8153 421.798 69.957 422.872L70.0663 423.704C70.2081 424.777 68.6606 425.67 66.8023 425.589L64.4658 425.486C62.9529 425.42 61.5857 426.008 61.2627 426.864L61.1059 427.28C60.4773 428.942 56.5294 429.169 55.3466 427.61L55.3377 427.598C54.7903 426.876 53.4757 426.453 52.1231 426.564L50.4023 426.705C48.3961 426.869 46.6773 425.877 46.9627 424.72C47.2471 423.561 45.5283 422.569 43.5231 422.733H43.5226C41.5163 422.898 39.7986 421.905 40.083 420.748C40.3685 419.589 38.6491 418.597 36.6434 418.762C34.6377 418.926 32.919 417.933 33.2038 416.776C33.4887 415.618 31.7699 414.626 29.7638 414.789C27.7581 414.954 26.0393 413.962 26.3247 412.804C26.609 411.646 24.8909 410.653 22.8851 410.818C20.8794 410.982 19.1606 409.99 19.445 408.833L19.6898 407.838C19.8819 407.058 19.1491 406.298 17.8981 405.984L17.8773 405.977C15.1767 405.294 15.5695 403.014 18.4502 402.652L19.1699 402.562C20.6533 402.374 21.671 401.586 21.5554 400.713L21.3778 399.364C21.2366 398.292 22.7841 397.397 24.6423 397.48Z" fill="#FAFAF9"/>
<path d="M26.5617 400.82L58.6101 382.316C61.6642 380.553 65.9971 380.196 68.2871 381.517L97.7122 398.506C100.002 399.828 99.3841 402.329 96.3299 404.093L64.2809 422.597C61.2267 424.36 56.895 424.717 54.6043 423.396L25.1794 406.406C22.8887 405.084 23.5075 402.582 26.5617 400.82Z" fill="#F6FFFC"/>
<path d="M76.2687 398.732C76.1801 398.784 76.0504 398.809 75.9182 398.792L70.904 398.187L56.9504 394.363C56.716 394.299 56.5749 394.155 56.6004 394.005L56.9608 391.869L56.6504 391.689L55.8201 392.169C55.6696 392.256 55.4244 392.255 55.2733 392.168C55.1217 392.08 55.1212 391.939 55.2712 391.852L56.2144 391.308C56.4525 391.171 56.8416 391.171 57.0821 391.309L57.5597 391.585C57.6905 391.661 57.7556 391.765 57.7384 391.871L57.3811 393.987L71.19 397.772L76.0701 398.356C76.2801 398.38 76.4155 398.499 76.3739 398.62L76.2687 398.732Z" fill="#5048BC"/>
<path d="M70.1302 395.188C66.9182 397.043 66.9354 400.071 70.1693 401.937C73.4026 403.804 78.6469 403.815 81.8583 401.96C85.0702 400.105 85.0526 397.077 81.8197 395.211C78.5859 393.344 73.3421 393.335 70.1302 395.188ZM82.5901 402.383C78.977 404.468 73.0791 404.456 69.4421 402.357C65.8051 400.257 65.7859 396.852 69.3983 394.765C73.0114 392.681 78.9093 392.692 82.5464 394.791C86.1828 396.891 86.2026 400.296 82.5901 402.383Z" fill="#EDEDEB"/>
<path d="M83.2583 394.592L82.8936 394.59C79.0639 392.38 72.8529 392.368 69.0488 394.564C65.2441 396.761 65.2649 400.346 69.0947 402.557L69.0957 402.768L68.7311 402.766C64.6999 400.44 64.678 396.665 68.6827 394.353C72.6873 392.04 79.2253 392.053 83.2572 394.381L83.2583 394.592Z" fill="#857CF4"/>
<path d="M69.096 402.768L68.7314 402.766C66.708 401.598 65.6944 400.066 65.6934 398.536C65.6928 397.018 66.6882 395.504 68.683 394.353C70.6767 393.201 73.298 392.626 75.9256 392.626C78.5762 392.626 81.2324 393.212 83.2575 394.381L83.2586 394.592L82.8939 394.59C80.9704 393.48 78.4466 392.924 75.9288 392.924C73.4324 392.924 70.9428 393.47 69.0491 394.564C68.0308 395.152 67.2866 395.84 66.8158 396.573C66.7256 396.714 66.6455 396.856 66.5756 397C66.3308 397.502 66.2086 398.02 66.209 398.538C66.21 399.992 67.1726 401.448 69.095 402.557L69.096 402.768Z" fill="#574EC5"/>
<path d="M61.9855 406.873L61.6203 406.872C57.7912 404.661 51.5803 404.649 47.7755 406.845C43.9714 409.042 43.9918 412.628 47.8219 414.84L47.823 415.05L47.4584 415.049C43.4266 412.721 43.4052 408.946 47.4099 406.634C51.4146 404.322 57.9527 404.336 61.9839 406.662L61.9855 406.873Z" fill="#857CF4"/>
<path d="M47.8231 415.05L47.4585 415.049C45.4351 413.881 44.4215 412.348 44.4204 410.818C44.4195 409.301 45.4152 407.786 47.41 406.634C49.4032 405.484 52.0252 404.909 54.6523 404.909C57.3028 404.909 59.9589 405.494 61.984 406.662L61.9856 406.873L61.6204 406.872C59.6975 405.762 57.1736 405.206 54.6559 405.206C52.1595 405.206 49.6695 405.752 47.7756 406.845C45.8808 407.94 44.9351 409.378 44.9361 410.82C44.9365 412.273 45.8991 413.729 47.822 414.84L47.8231 415.05Z" fill="#574EC5"/>
<path d="M48.857 407.47C45.6455 409.325 45.6627 412.352 48.8961 414.22C52.1299 416.086 57.3737 416.096 60.5857 414.241C63.7971 412.388 63.7805 409.36 60.5466 407.493C57.3138 405.625 52.0695 405.616 48.857 407.47ZM61.3174 414.664C57.7038 416.75 51.8065 416.738 48.1695 414.638C44.533 412.54 44.5133 409.134 48.1257 407.048C51.7387 404.962 57.6362 404.973 61.2731 407.073C64.9095 409.173 64.9299 412.578 61.3174 414.664Z" fill="#EDEDEB"/>
<path d="M65.2406 406.637L65.1972 406.658L54.9526 411.036C54.8384 411.084 54.6868 411.093 54.5578 411.058C54.4291 411.022 54.3431 410.949 54.3354 410.868L53.5895 403.478C53.5775 403.353 53.7411 403.249 53.9526 403.244C54.166 403.237 54.3488 403.332 54.3614 403.454L55.065 410.43L64.5676 406.37L63.5244 396.034C63.5124 395.912 63.6759 395.806 63.8874 395.8C64.1004 395.794 64.2838 395.889 64.2963 396.012L65.3526 406.466L65.2406 406.637Z" fill="#5048BC"/>
<path d="M65.2407 406.637C65.1287 406.701 64.9547 406.721 64.8021 406.68L48.2697 402.149C48.0771 402.096 47.9927 401.963 48.0833 401.851C48.1735 401.741 48.4036 401.693 48.5979 401.745L65.1303 406.277C65.3229 406.331 65.4063 406.464 65.3156 406.575L65.2407 406.637Z" fill="#5048BC"/>
<path d="M62.8166 405.973L62.7937 405.985L54.8578 409.881C54.6953 409.961 54.4515 409.949 54.3119 409.856C54.1734 409.761 54.2073 409.616 54.3541 409.541L62.2901 405.644C62.4521 405.565 62.6963 405.576 62.8354 405.67C62.9677 405.76 62.9567 405.892 62.8166 405.973Z" fill="#5048BC"/>
<path d="M48.2086 400.866C47.5654 401.128 47.4368 401.013 46.492 401.622C45.6952 402.134 45.5509 402.586 46.2394 403.04C46.3957 403.144 46.6801 403.137 46.8258 403.03C47.0738 402.849 47.4488 402.598 47.7072 402.536C48.1249 402.434 48.64 402.304 48.8982 402.074C49.1572 401.846 49.2436 401.401 49.7149 400.988C50.1868 400.573 50.555 400.496 51.0649 400.185L51.3801 399.978C51.5368 399.869 51.4805 399.702 51.2582 399.64C50.9368 399.55 50.4681 399.482 50.0624 399.673C49.4837 399.944 48.9285 400.574 48.2086 400.866Z" fill="#857CF4"/>
<path d="M46.525 403.114C46.4202 403.114 46.315 403.089 46.2395 403.04C45.9411 402.842 45.7988 402.646 45.7988 402.445C45.7988 402.184 46.0411 401.912 46.492 401.622C47.4368 401.013 47.5655 401.128 48.2087 400.866C48.9286 400.574 49.4838 399.944 50.0624 399.673C50.253 399.584 50.4578 399.55 50.654 399.55C50.8759 399.55 51.0879 399.592 51.2583 399.64C51.3958 399.678 51.4696 399.757 51.4692 399.837C51.4692 399.886 51.44 399.937 51.3802 399.978L51.065 400.185C50.5551 400.496 50.1868 400.573 49.715 400.988C49.3578 401.301 49.2218 401.632 49.0644 401.873C49.0139 401.95 48.9614 402.02 48.8983 402.074C48.8254 402.14 48.7327 402.196 48.627 402.246C48.3578 402.376 48.0072 402.462 47.7072 402.536C47.4488 402.598 47.0739 402.849 46.8259 403.03C46.751 403.086 46.6379 403.114 46.525 403.114Z" fill="#574EC5"/>
<path d="M61.404 405.587C61.2952 405.649 61.1244 405.671 60.9739 405.631C60.7786 405.58 60.69 405.449 60.7759 405.336C63.6171 401.629 63.0431 398.123 59.0702 394.912C58.9447 394.812 58.9832 394.673 59.1587 394.6C59.3322 394.529 59.5744 394.553 59.6978 394.653C63.8426 398.003 64.4431 401.659 61.4838 405.519L61.404 405.587Z" fill="#5048BC"/>
<path d="M64.6396 400.685L64.4052 400.749L62.9874 400.828C62.775 400.84 62.5854 400.751 62.5636 400.627C62.5417 400.504 62.6973 400.396 62.9078 400.384L64.325 400.305C64.538 400.293 64.727 400.383 64.7494 400.505L64.6396 400.685Z" fill="#5048BC"/>
<path d="M63.6577 405.723C62.9399 406.137 62.9441 406.813 63.6654 407.229C64.3873 407.647 65.5582 407.649 66.2749 407.235C66.9915 406.82 66.9873 406.145 66.2654 405.728C65.5441 405.312 64.3738 405.309 63.6577 405.723ZM66.6602 407.457C65.7321 407.993 64.217 407.991 63.2826 407.451C62.3482 406.911 62.3435 406.037 63.2711 405.5C64.1998 404.964 65.7149 404.968 66.6487 405.507C67.5831 406.047 67.5883 406.921 66.6602 407.457Z" fill="#EDEDEB"/>
<path d="M70.4425 406.245L70.2815 406.291L64.9977 406.635C64.8487 406.645 64.7138 406.583 64.6957 406.496C64.6785 406.411 64.7853 406.332 64.9337 406.323L70.2175 405.979C70.3665 405.968 70.5019 406.031 70.5195 406.116L70.4425 406.245Z" fill="#EDEDEB"/>
<path d="M71.0487 405.896L69.6149 406.723H69.231L69.229 406.5L70.6629 405.673H71.0477L71.0487 405.896Z" fill="#857CF4"/>
<path d="M69.6149 406.723H69.231L69.229 406.5L70.6629 405.673H71.0477L71.0487 405.896L69.6149 406.723Z" fill="#574EC5"/>
<path d="M54.1267 392.829C53.669 392.567 53.6163 392.168 54.0081 391.941C54.4002 391.716 55.0887 391.747 55.5461 392.011C56.0033 392.275 56.057 392.672 55.6642 392.899C55.2726 393.124 54.5835 393.093 54.1267 392.829Z" fill="#857CF4"/>
<path d="M55.0034 393.049C54.867 393.049 54.7274 393.035 54.5919 393.005L55.2129 392.647C55.2509 392.625 55.2681 392.596 55.2681 392.565C55.2675 392.409 54.8545 392.171 54.5847 392.171C54.5301 392.171 54.4815 392.18 54.443 392.203L53.8227 392.561C53.7722 392.484 53.7462 392.404 53.7451 392.327C53.7441 392.183 53.8301 392.044 54.0077 391.941C54.1842 391.84 54.4201 391.791 54.6686 391.791C54.9722 391.791 55.2935 391.865 55.5457 392.011C55.7957 392.155 55.9253 392.339 55.9269 392.513C55.9285 392.659 55.8419 392.796 55.6638 392.899C55.4878 393 55.2514 393.049 55.0034 393.049Z" fill="#4E47BA"/>
<path d="M55.2132 392.647L52.8381 394.017C52.5371 394.192 51.7679 393.747 52.0684 393.573L54.4433 392.203C54.7089 392.049 55.4788 392.493 55.2132 392.647Z" fill="#857CF4"/>
<path d="M52.6656 394.057C52.3849 394.057 51.9989 393.834 52 393.673C52 393.634 52.0208 393.601 52.0683 393.573L54.4432 392.202C54.4817 392.18 54.5303 392.17 54.5849 392.17C54.8547 392.17 55.2677 392.409 55.2683 392.565C55.2683 392.596 55.2511 392.625 55.2131 392.646L54.5921 393.005L52.838 394.017C52.7901 394.045 52.7307 394.057 52.6656 394.057Z" fill="#574EC5"/>
<path d="M75.541 398.836C75.2888 398.69 75.2878 398.456 75.5378 398.31C75.7883 398.166 76.1951 398.168 76.4471 398.313C76.6992 398.457 76.7003 398.693 76.4503 398.837C76.1998 398.982 75.793 398.981 75.541 398.836Z" fill="#EDEDEB"/>
<path d="M54.268 411.117C54.0159 410.972 54.0148 410.737 54.2648 410.593C54.5154 410.448 54.9227 410.449 55.1743 410.595C55.4263 410.74 55.4279 410.975 55.1779 411.12C54.9268 411.264 54.52 411.264 54.268 411.117Z" fill="#EDEDEB"/>
<path d="M77.7373 429.364L79.181 429.426C81.0389 429.508 82.5867 428.614 82.4451 427.541L82.3353 426.708C82.1941 425.636 83.7415 424.742 85.5992 424.824L87.043 424.888C88.9008 424.969 90.4477 424.076 90.3066 423.002L90.1971 422.17C90.056 421.097 91.6028 420.204 93.4607 420.285L94.9039 420.348C96.7623 420.43 98.3096 419.537 98.1686 418.464L98.0586 417.63C97.9175 416.558 99.4648 415.665 101.323 415.746L102.766 415.809C104.624 415.892 106.172 414.998 106.03 413.925L105.921 413.092C105.779 412.018 107.327 411.126 109.185 411.206L111.521 411.31C113.035 411.376 114.401 410.789 114.724 409.932L114.882 409.517C115.509 407.853 119.458 407.626 120.64 409.186L120.65 409.198C121.197 409.921 122.512 410.344 123.864 410.233L125.585 410.092C127.591 409.926 129.31 410.92 129.025 412.077C128.74 413.236 130.458 414.228 132.464 414.064C134.47 413.898 136.189 414.89 135.904 416.049C135.62 417.206 137.338 418.2 139.344 418.034C141.349 417.87 143.068 418.862 142.782 420.021C142.498 421.178 144.217 422.17 146.222 422.006C148.228 421.842 149.948 422.834 149.662 423.992C149.377 425.15 151.096 426.142 153.102 425.978C155.108 425.814 156.826 426.806 156.541 427.964L156.297 428.958C156.105 429.738 156.838 430.497 158.089 430.814L158.109 430.818C160.809 431.502 160.417 433.781 157.537 434.144L156.816 434.234C155.334 434.421 154.316 435.21 154.43 436.084L154.609 437.433C154.75 438.506 153.202 439.398 151.344 439.318L149.901 439.254C148.044 439.173 146.496 440.066 146.637 441.138L146.748 441.972C146.889 443.045 145.341 443.938 143.482 443.856L142.04 443.793C140.181 443.712 138.634 444.605 138.776 445.678L138.885 446.51C139.026 447.584 137.478 448.477 135.621 448.396L134.178 448.331C132.32 448.25 130.773 449.143 130.914 450.217L131.023 451.05C131.165 452.123 129.618 453.016 127.76 452.935L126.316 452.872C124.458 452.79 122.911 453.682 123.052 454.756L123.162 455.589C123.303 456.661 121.756 457.554 119.898 457.473L117.561 457.37C116.048 457.304 114.682 457.892 114.358 458.748L114.201 459.164C113.573 460.826 109.625 461.053 108.442 459.494L108.433 459.482C107.885 458.761 106.571 458.337 105.219 458.448L103.497 458.589C101.492 458.754 99.7727 457.761 100.058 456.604C100.342 455.445 98.6243 454.453 96.6186 454.617H96.6175C94.6118 454.782 92.8941 453.79 93.1785 452.631C93.4634 451.473 91.7446 450.481 89.7389 450.647C87.7331 450.81 86.0143 449.817 86.2992 448.66C86.5842 447.502 84.8654 446.51 82.8591 446.674C80.8534 446.838 79.1347 445.847 79.4195 444.688C79.7045 443.53 77.9862 442.538 75.9804 442.702C73.9743 442.866 72.2561 441.874 72.541 440.717L72.7853 439.723C72.9769 438.942 72.2446 438.182 70.9935 437.866L70.9727 437.861C68.2722 437.178 68.6643 434.898 71.5457 434.537L72.2659 434.446C73.7487 434.26 74.7665 433.47 74.6514 432.597L74.4738 431.248C74.3321 430.174 75.8795 429.281 77.7373 429.364Z" fill="#FAFAF9"/>
<path d="M79.6573 432.704L111.706 414.2C114.76 412.436 119.093 412.078 121.383 413.402L150.808 430.39C153.097 431.712 152.48 434.213 149.425 435.977L117.376 454.481C114.323 456.244 109.99 456.601 107.7 455.278L78.275 438.29C75.9843 436.968 76.6035 434.466 79.6573 432.704Z" fill="#FCAB32"/>
<path d="M125.848 425.941C125.848 425.941 126.215 424.849 124.995 424.477C123.775 424.104 122.225 425.011 122.225 425.011C122.225 425.011 121.509 424.331 119.403 424.531C117.248 424.736 115.919 425.605 114.7 428.245C114.573 428.52 114.503 428.768 114.459 429.005C114.31 428.372 114.028 427.78 113.575 427.207C112.682 426.076 110.719 423.707 107.671 423.955C104.799 424.189 105.051 425.291 105.051 425.291C105.051 425.291 103.367 424.752 102.375 425.307C101.384 425.861 102.398 426.992 102.398 426.992C102.398 426.992 101.057 427.175 100.736 428.393C100.408 429.64 101.368 430.595 105.534 431.892C106.731 432.264 108.034 432.613 109.276 432.921C107.028 432.749 104.647 432.583 103.64 432.557C101.489 432.504 96.8771 432.74 96.3443 434.491C95.8432 436.14 97.7339 436.343 97.7339 436.343C97.7339 436.343 96.3271 437.1 96.9344 437.816C97.5417 438.532 99.7177 438.324 99.7177 438.324C99.7177 438.324 99.6047 439.119 101.513 439.671C103.465 440.236 105.335 440.004 108.758 438.117C109.677 437.61 110.59 437.047 111.431 436.497C110.468 437.664 109.481 438.891 109.134 439.428C108.381 440.593 107.345 443.198 110.064 444.032C112.625 444.817 113.542 443.841 113.542 443.841C113.542 443.841 114.357 444.848 115.723 444.735C117.091 444.623 117.421 443.364 117.421 443.364C117.421 443.364 118.693 443.672 120.193 442.795C121.727 441.897 121.923 440.798 119.872 438.336C119.262 437.601 118.531 436.847 117.815 436.156C119.465 437.061 121.231 438.01 122.023 438.373C123.71 439.147 127.681 440.52 129.895 439.285C131.979 438.121 130.655 437.316 130.655 437.316C130.655 437.316 132.565 437.18 132.803 436.395C133.04 435.609 131.069 435.039 131.069 435.039C131.069 435.039 131.968 434.435 130.986 433.341C129.982 432.221 128.044 431.54 123.353 431.903C123.096 431.924 122.835 431.945 122.573 431.973C123.692 431.649 124.719 431.268 125.166 431.052C126.988 430.171 130.208 428.564 128.857 426.967C127.584 425.463 125.848 425.941 125.848 425.941Z" fill="#EDEDEB"/>
<path d="M122.649 427.825C120.648 428.105 118.313 429.544 117.107 430.437C116.231 431.086 114.438 432.457 115.257 433.36C115.347 433.46 115.633 433.461 115.79 433.422C117.375 433.026 117.94 431.722 118.812 430.908C119.964 429.833 121.61 429.121 122.994 428.16C123.236 427.992 123.035 427.77 122.649 427.825Z" fill="#DADBD8"/>
<path d="M114.647 434.12L114.645 434.14L114.5 434.236C114.502 434.11 114.459 433.993 114.369 433.894C114.593 433.825 114.774 433.702 114.791 433.568C115.107 431.085 109.804 428.472 106.155 427.756C106.036 427.732 105.565 427.821 105.75 427.922C107.474 428.869 109.102 429.821 110.479 430.966C111.373 431.709 112.159 432.84 113.188 433.585C112.943 433.569 112.697 433.562 112.438 433.562C111.351 433.561 110.229 433.657 109.209 433.858C106.651 434.364 103.161 435.228 101.727 436.656C101.569 436.816 102.083 436.804 102.207 436.762C104.135 436.11 106.086 435.612 108.27 435.333C109.7 435.15 111.502 434.873 112.944 435.16C113.295 435.23 113.615 435.17 113.874 435.044C113.318 436.11 113.146 437.616 113.12 438.042C113.054 439.124 113.376 440.456 114.657 441.297C114.864 441.433 115.575 441.249 115.413 441.066C115.007 440.61 115.192 439.886 115.101 439.364C114.971 438.613 115.051 437.89 115.205 437.145C115.309 436.642 115.436 436.157 115.663 435.67C115.741 435.504 115.806 435.34 115.869 435.17L115.876 435.149L115.954 435.008C116.952 435.168 118.247 435.158 118.866 435.197C121.017 435.326 123.744 435.673 125.624 436.308C125.828 436.376 126.404 436.238 126.191 436.082C124.578 434.897 122.271 434.35 119.871 433.873C118.674 433.634 115.038 432.865 114.647 434.12Z" fill="#DADBD8"/>
<path d="M116.767 432.596C117.95 433.28 117.95 434.388 116.767 435.07C115.583 435.754 113.664 435.754 112.48 435.07C111.296 434.388 111.296 433.28 112.48 432.596C113.664 431.912 115.583 431.912 116.767 432.596Z" fill="#857CF4"/>
<path d="M114.623 435.584C113.864 435.584 113.105 435.42 112.518 435.092C112.505 435.085 112.492 435.079 112.48 435.071C112.476 435.069 112.472 435.067 112.469 435.065C112.467 435.064 112.465 435.063 112.463 435.061C112.462 435.06 112.46 435.06 112.459 435.059C112.454 435.056 112.45 435.053 112.446 435.051C112.445 435.051 112.445 435.051 112.445 435.051C111.729 434.624 111.464 434.039 111.65 433.493C111.965 434.231 113.201 434.901 114.629 434.901C114.826 434.901 115.027 434.888 115.229 434.861C116.614 434.676 117.307 434.027 117.56 433.423C117.783 433.956 117.575 434.536 116.923 434.975C116.92 434.976 116.917 434.979 116.914 434.98C116.913 434.98 116.912 434.981 116.911 434.981C116.87 435.009 116.826 435.036 116.781 435.063C116.776 435.065 116.771 435.068 116.767 435.071C116.751 435.08 116.736 435.089 116.72 435.097C116.134 435.421 115.379 435.584 114.623 435.584Z" fill="#574EC5"/>
<path d="M490.516 89.6917C485.868 85.9224 474.075 78.5291 470.724 76.3424C466.863 73.8211 461.753 70.2544 458.016 67.553C458.016 67.553 442.948 43.4544 442.815 41.1064L439.469 32.0491C438.973 30.6024 439.5 27.0677 439.767 24.829C440.065 22.3357 440.668 20.1544 440.847 19.0797C441.552 14.8184 435.417 12.8517 432.648 14.9411C431.028 16.1651 429.041 18.5264 427.913 21.9477C424.384 32.633 431.411 45.1264 431.411 45.1264C431.411 45.1264 441.343 67.6491 443.364 71.7117C445.515 76.0384 447.343 78.3731 449.193 79.9784C449.193 79.9784 467.287 94.605 471.173 97.5717C476.056 101.297 478.088 103.082 481.515 103.794C483.417 104.19 483.432 104.142 489.076 104.165C489.765 102.705 490.461 100.965 490.707 99.3637C490.907 98.061 491.527 90.5117 490.516 89.6917Z" fill="#C35363"/>
<path d="M473.004 99.7906L479.733 104.905L495.588 90.0613C493.637 88.4853 489.551 86.7986 485.899 85.0279C484.011 84.1133 481.963 83.1373 479.06 81.4333C479.06 81.4333 473.063 89.9079 473.004 99.7906Z" fill="#5048BC"/>
<path d="M405.946 11.0319C405.848 10.6412 406.095 10.2359 406.499 10.1266L443.887 0.0332135C444.291 -0.0761198 445.024 0.0638593 445.527 0.345193L446.55 0.921234C447.051 1.2039 447.536 1.74919 447.636 2.13985L453.66 26.1772C453.758 26.5666 453.51 26.9746 453.107 27.0826L415.719 37.1759C415.318 37.2852 414.58 37.1439 414.082 36.8625L413.056 36.2879C412.558 36.0065 412.07 35.4585 411.972 35.0692L405.946 11.0319Z" fill="#857CF4"/>
<path d="M406.035 10.4731C406.087 10.3865 406.157 10.3092 406.243 10.2478C406.159 10.3092 406.087 10.3865 406.035 10.4731ZM446.763 1.05719C446.693 1.00786 446.621 0.961192 446.549 0.921192L446.145 0.693197L446.551 0.921192C446.623 0.961192 446.693 1.00786 446.763 1.05719ZM445.045 0.139812C444.761 0.0478118 444.463 -0.00413349 444.211 -0.00413349C444.208 -0.00413349 444.205 -0.00413349 444.203 -0.00413349C444.207 -0.00413349 444.211 -0.00413349 444.215 -0.00413349C444.465 -0.00413349 444.764 0.0478118 445.045 0.139812Z" fill="white"/>
<path d="M408.611 11.9209L406.035 10.4729C406.087 10.3862 406.159 10.3089 406.243 10.2475C406.319 10.1942 406.404 10.1516 406.5 10.1262L443.888 0.0341804C443.979 0.00884706 444.085 -0.00309304 444.203 -0.00442637C444.205 -0.00442637 444.208 -0.00442637 444.211 -0.00442637C444.463 -0.00442637 444.761 0.0475189 445.045 0.139519C445.215 0.194186 445.379 0.263558 445.524 0.346225L446.145 0.692904L446.549 0.920899C446.621 0.960899 446.693 1.00757 446.763 1.0569C446.937 1.18224 447.103 1.3329 447.243 1.49023L408.611 11.9209Z" fill="#5CC8BC"/>
<path d="M412.632 35.9839C412.304 35.7012 412.039 35.3452 411.969 35.0679L405.944 11.0306C405.896 10.8372 405.933 10.6372 406.035 10.4732C405.935 10.6372 405.896 10.8359 405.945 11.0319L411.972 35.0692C412.04 35.3452 412.305 35.6999 412.632 35.9839Z" fill="#C3C5C2"/>
<path d="M415.319 37.2104C415.117 37.2024 414.895 37.1651 414.676 37.1038C414.553 37.0691 414.435 37.0278 414.324 36.9811L414.081 36.8624L413.057 36.2864C412.911 36.2051 412.767 36.0998 412.632 35.9838C412.305 35.6998 412.04 35.3451 411.972 35.0691L405.945 11.0318C405.896 10.8358 405.935 10.6371 406.035 10.4731L408.611 11.9211L409.085 12.1891C408.848 12.2184 408.725 12.3771 408.788 12.6291L414.713 36.2664L414.813 36.6664C414.865 36.8691 414.996 37.0264 415.167 37.1171C415.269 37.1704 415.381 37.1998 415.501 37.1998C415.52 37.1998 415.54 37.1998 415.56 37.1984L415.471 37.2091L415.319 37.2104Z" fill="#574EC5"/>
<path d="M447.305 1.56104C447.304 1.56104 447.304 1.5597 447.303 1.55837L447.381 1.45173L447.305 1.56104Z" fill="#C3C5C2"/>
<path d="M415.167 37.1172C414.996 37.0265 414.866 36.8692 414.814 36.6665L414.714 36.2665L426.607 20.5839L408.611 11.9212L429.387 21.0572C430.051 21.3492 430.711 21.4932 431.289 21.4932C431.999 21.4932 432.584 21.2759 432.901 20.8505L435.124 17.8732L447.303 1.55853C447.304 1.55986 447.304 1.5612 447.305 1.5612L435.779 18.1266L453.663 26.1879C453.708 26.3839 453.667 26.5865 453.56 26.7505L435.747 18.1732L433.21 21.8186C432.898 22.2652 432.3 22.4919 431.574 22.4919C430.94 22.4919 430.211 22.3198 429.487 21.9705L426.695 20.6266L415.167 37.1172Z" fill="#574EC5"/>
<path d="M445.033 31.4974C445.168 29.1228 444.596 26.7934 445.105 24.4347C445.231 23.8521 445.263 23.0281 444.684 22.8908C444.52 22.8521 444.348 22.8908 444.189 22.9441C442.72 23.4414 441.961 24.6734 441.447 26.1361C441.012 27.3721 440.767 29.7828 439.029 31.0241L442.979 41.7188C442.823 38.9468 444.832 35.0268 445.033 31.4974Z" fill="#C35363"/>
<path d="M496.717 304.497C497.012 304.581 497.241 304.764 497.34 305.098C497.719 306.388 497.704 307.857 497.967 309.18C498.377 311.249 498.818 314.228 498.479 315.889C498.142 317.55 495.895 319.164 491.682 320.36C489.143 321.08 484.611 323.273 482.537 325.157C479.999 327.465 474.569 329.392 470.899 329.502C466.593 329.632 462.107 328.484 461.069 325.384C460.633 324.082 460.294 321.849 466.444 319.433C469.648 318.174 470.908 317.518 472.448 316.61C475.303 314.929 479.593 312.701 481.967 310.486C482.847 309.666 485.512 306.42 485.468 302.292C487.107 301.737 489.02 302.077 490.368 303.162C491.716 304.249 492.456 306.045 492.264 307.765C492.557 307.928 492.923 307.65 493.028 307.332C493.132 307.014 493.079 306.666 493.133 306.337C493.251 305.622 493.868 305.07 494.548 304.821C495.143 304.604 496.084 304.318 496.717 304.497Z" fill="#273E47"/>
<path d="M555.617 304.634C555.156 305.6 555.216 306.565 555.088 307.593C554.981 308.448 554.735 309.212 554.739 310.11C554.743 310.856 554.563 311.75 553.867 312.02C553.321 312.23 552.697 311.932 552.299 311.502C551.9 311.073 551.653 310.528 551.309 310.054C550.583 309.057 549.393 308.412 548.161 308.344C546.928 308.276 546.841 308.39 546.009 309.301C546.109 309.536 546.625 310.762 546.717 310.998C549.096 317.061 549.239 322.434 547.76 328.716C547.459 329.997 545.607 332.084 544.589 333.1C543.987 333.702 543.356 334.272 542.683 334.794C542.087 335.257 541.492 335.808 541.421 336.32C541.323 337.036 541.436 337.782 541.787 338.414C542.3 339.34 543.153 339.78 544.117 340.113C547.76 341.37 551.719 341.336 555.235 339.752C556.983 338.962 558.624 337.225 558.993 336.58C561.053 332.982 560.823 329.557 560.851 326.461C560.911 319.622 562.039 316.088 562.588 312.666C563.252 308.526 556.913 304.013 555.617 304.634Z" fill="#273E47"/>
<path d="M482.632 308.353C485.165 305.614 485.651 302.973 485.304 297.893C484.956 292.813 482.419 247.874 481.38 236.789C479.64 218.166 478.759 165.817 480.305 152.897L529.963 156.804C533.571 165.821 536.221 176.924 535.661 194.344C535.235 207.629 535.545 243.666 535.545 243.666C535.545 243.666 541.605 248.962 545.933 259.421C549.759 268.661 554.163 300.586 554.163 300.586C554.839 302.704 555.384 304.318 555.617 304.634C556.661 306.05 557.407 307.569 557.407 309.293C557.405 314.809 556.817 320.324 555.656 325.714C555.055 328.506 553.312 330.302 550.528 331.41C549.912 331.656 549.243 331.781 548.581 331.732C548.243 331.708 547.88 331.625 547.639 331.382C547.168 330.91 547.596 329.793 547.687 329.233C547.829 328.33 547.908 327.418 547.935 326.505C547.988 324.71 547.932 322.521 547.813 320.733C547.504 316.049 546.821 312.25 545.884 308.834C545.884 308.833 545.5 307.921 544.919 306.534C544.919 306.534 523.365 263.074 517.244 252.481C512.376 244.169 509.144 211.9 505.692 194.258L499.865 236.424C499.865 236.424 502.421 244.041 503.093 249.866C503.997 257.689 498.475 288.348 496.821 299.248C496.516 301.273 496.492 303.322 496.751 305.354C496.168 310.078 492.623 311.536 488.956 314.21C487.133 315.541 479.117 320.41 474.276 321.392C470.337 322.19 467.316 319.832 469.737 318.316C474.328 315.204 480.097 311.092 482.632 308.353Z" fill="#C35363"/>
<path d="M507.716 207.661C507.213 202.921 505.845 196.437 505.845 196.437L504.249 207.4L501.849 235.696C501.849 235.696 502.655 238.823 503.405 244.22C504.189 249.861 503.816 258.925 502.787 264.983C501.756 271.04 499.611 281.907 499.611 281.907C490.605 286.608 483.779 281.792 483.779 281.792C483.779 281.792 482.903 269.676 481.223 251.909C479.544 234.144 478.96 216.385 478.837 201.627C478.837 201.627 476.704 164.821 482.921 139.991C490.227 145.133 511.931 146.163 520.692 139.253C520.692 139.253 524.203 145.057 531.867 158.009C537.884 168.179 536.117 184.515 536.221 198.172C536.383 219.241 536.269 243.033 536.269 243.033C536.269 243.033 539.864 246.821 543.703 253.011C547.543 259.199 549.513 272.943 549.513 272.943C549.513 272.943 545.636 281.189 532.397 281.543C532.397 281.543 519.536 258.125 516.304 252.811C513.071 247.496 508.217 212.404 507.716 207.661Z" fill="#273E47"/>
<path d="M505.845 196.437L501.012 177.841C501.012 177.841 491.755 176.853 484.548 171.558C484.548 171.558 486.035 178.36 498.779 180.361L504.267 198.614L503.947 209.824L505.845 196.437Z" fill="#17282F"/>
<path d="M477.988 107.033C482.816 99.5636 492.448 92.453 495.575 89.977L513.772 90.109C517.351 90.2903 522.581 90.7556 522.581 90.7556C526.372 92.777 526.187 97.477 526.313 101.924C526.463 106.8 526.487 108.944 525.145 117L522.7 127.264L522.325 128.84C522.259 129.112 522.201 129.382 522.136 129.661C521.284 133.47 521.589 137.514 523.589 141.329C527.757 149.28 532.688 155.294 534.079 161.972C534.079 161.972 530.871 161.293 527.788 158.338C525.103 155.768 523.485 154.574 521.336 151.542C521.336 151.542 521.121 156.065 516.627 161.993C515.557 163.413 514.261 164.825 512.7 166.132C504.635 172.892 480.363 175.822 479.569 154.654C479.569 154.654 480.483 145.013 480.632 137.846C480.483 131.425 479.977 126.224 479.925 124.74C474.384 119.761 474.472 112.466 477.988 107.033Z" fill="#857CF4"/>
<path d="M498.7 129.674C491.922 129.674 488.705 123.916 488.705 123.916C488.705 123.916 492.873 127.6 498.521 127.6C499.636 127.6 500.808 127.457 502.018 127.113C509.356 125.029 510.805 118.824 510.805 118.824C510.805 118.824 511.04 127.074 501.81 129.292C500.701 129.558 499.664 129.674 498.7 129.674Z" fill="#665AD8"/>
<path d="M510.706 36.5718C502.786 34.9318 497.444 36.4384 493.902 37.8998C477.338 33.6411 468.323 56.3731 483.844 64.1718C483.844 64.1718 487.274 80.0478 500.101 81.7558L512.766 82.0864C515.872 76.4091 525.999 73.7504 526.881 58.9598C528.527 46.5971 519.165 38.3224 510.706 36.5718Z" fill="#17282F"/>
<path d="M541.787 88.8774L541.259 88.9094C533.888 89.3627 527.545 83.756 527.091 76.3854L525.525 50.9254L526.052 50.8934C533.421 50.4387 539.765 56.0467 540.219 63.4174L541.787 88.8774Z" fill="#17282F"/>
<path d="M488.075 46.4721C485.511 48.0521 482.428 54.6281 482.996 68.2854C483.477 79.8614 487.284 82.6521 489.184 83.4427C491.084 84.2334 494.709 83.6641 498.232 83.0094L498.361 89.9601C498.361 89.9601 493.929 93.4934 494.296 96.6747C494.661 99.8561 501.767 100.919 506.281 97.7214C510.793 94.5241 512.94 91.5267 512.94 91.5267L512.608 73.5161C512.608 73.5161 514.959 76.0667 518.812 73.4027C522.667 70.7401 522.236 65.6627 519.924 63.4027C517.613 61.1401 513.316 62.4227 512.464 65.6214C512.464 65.6214 507.443 65.4001 500.112 60.9721C492.171 56.1761 490.179 51.2974 488.075 46.4721Z" fill="#C35363"/>
<path d="M497.955 64.8227C497.928 65.6573 498.559 66.3534 499.363 66.3774C500.167 66.4 500.84 65.7427 500.867 64.9067C500.894 64.072 500.263 63.376 499.459 63.352C498.655 63.3293 497.982 63.988 497.955 64.8227Z" fill="#17282F"/>
<path d="M496.475 74.921L492.313 76.333C492.683 77.525 493.913 78.1743 495.063 77.785C496.211 77.3943 496.844 76.113 496.475 74.921Z" fill="#AA3B4B"/>
<path d="M485.145 60.8638L488.055 58.7664C487.503 57.9358 486.403 57.7304 485.599 58.3091C484.796 58.8878 484.593 60.0318 485.145 60.8638Z" fill="#17282F"/>
<path d="M485.888 64.2694C485.863 65.1054 486.492 65.8001 487.296 65.8241C488.1 65.8481 488.773 65.1894 488.8 64.3534C488.827 63.5187 488.197 62.8227 487.393 62.7987C486.588 62.7761 485.916 63.4334 485.888 64.2694Z" fill="#17282F"/>
<path d="M492.985 63.304L492.916 72.0747L488.276 70.7307L492.985 63.304Z" fill="#AA3B4B"/>
<path d="M498.232 83.009C501.948 82.4517 509.569 80.1103 510.707 77.0596C510.707 77.0596 510.344 78.9703 508.091 80.9743C505.839 82.9783 498.275 85.3276 498.275 85.3276L498.232 83.009Z" fill="#AA3B4B"/>
<path d="M565.552 171.557C565.552 171.557 563.205 145.197 562.571 140.171C561.811 134.172 560.624 131.861 559.075 129.607C559.075 129.607 544.609 106.585 541.241 102.289C537.009 96.8919 535.161 93.8079 531.659 92.0759C529.715 91.1132 528.728 90.9786 523.243 90.7972C517.7 106.992 527.492 116.547 527.492 116.547L547.155 141.184C547.155 141.184 554.303 169.82 553.785 172.396C553.269 174.971 551.391 178.272 550.368 181.455C549.68 183.597 549.649 185.865 548.624 187.904C548.371 188.407 548.144 189.153 548.643 189.417C548.783 189.491 548.949 189.497 549.108 189.485C550.572 189.38 551.559 188.432 552.377 187.215C553.069 186.188 553.187 185.363 553.876 184.336C554.007 186.039 553.548 188.171 553.055 190.64C552.784 191.991 552.563 193.568 552.295 194.755C551.777 197.035 555.043 197.947 557.248 197.467C559.657 196.943 560.951 195.811 562.383 193.919C567.488 187.172 565.552 171.557 565.552 171.557Z" fill="#C35363"/>
<path d="M522.533 90.7503C522.533 90.7503 527.743 90.4956 530.629 91.2743C533.515 92.053 535.832 94.6716 538.935 98.5969C542.036 102.521 546.095 108.808 546.095 108.808C546.095 108.808 537.443 117.142 528.989 119.1L525.917 115.042C525.917 115.042 521.996 110.484 521.016 103.848C519.964 96.7143 522.533 90.7503 522.533 90.7503Z" fill="#5048BC"/>
</g>
<defs>
<clipPath id="clip0_136_2984">
<rect width="638.507" height="570.8" fill="white"/>
</clipPath>
</defs>
</svg>
