<svg width="265" height="265" viewBox="0 0 265 265" fill="none" xmlns="http://www.w3.org/2000/svg">
<path d="M132.5 243.477C189.775 243.477 236.205 236.949 236.205 228.896C236.205 220.844 189.775 214.316 132.5 214.316C75.2253 214.316 28.7949 220.844 28.7949 228.896C28.7949 236.949 75.2253 243.477 132.5 243.477Z" fill="#EBEBEB"/>
<path d="M226.405 28.6624V180.672H111.364V28.6624H113.309L114.04 31.8424L117.183 33.92V36.3156H120.893V32.6056H118.031L118.312 28.6942H126.538L126.781 32.6056H126.251V36.3156H129.961V32.6056H128.371L128.864 28.6942H134.445L135.309 32.6056V36.3156H139.019V32.6056H137.615L138.431 28.6942H144.69L145.019 32.6056H144.356V36.3156H148.066V32.6056H146.519V28.6624H152.534L152.693 29.8284L153.515 32.5738H153.414V36.2838H157.124V32.5738H155.709L155.428 30.051L155.29 28.6624H163.362V30.1146C163.362 30.2047 164.056 32.5738 164.056 32.5738H162.498V36.2838H166.208V32.5738H165.222V28.6624H172.526L172.128 32.5738H171.561V36.2838H175.271V32.5738H174.37L174.163 28.6624H180.439L180.693 32.5738H180.603V36.2838H184.313V32.5738H182.765L181.663 28.6624H189.486L189.661 32.5738V36.2838H193.371V32.5738H191.86L191.415 28.6624H197.69L198.75 33.8617V36.2891H202.46V32.5791H200.414L201.109 28.6677H207.813V36.2891H211.523V32.5791H209.212L208.682 28.6677H214.597L216.881 33.6338V36.2838H220.591V32.5738H218.053L217.851 28.6624H226.405Z" fill="#EBEBEB"/>
<path d="M217.788 48.9349H119.981V49.3324H217.788V48.9349Z" fill="#DBDBDB"/>
<path d="M217.788 54.1925H119.981V54.59H217.788V54.1925Z" fill="#DBDBDB"/>
<path d="M217.788 59.4501H119.981V59.8476H217.788V59.4501Z" fill="#DBDBDB"/>
<path d="M217.788 64.713H119.981V65.1105H217.788V64.713Z" fill="#DBDBDB"/>
<path d="M217.788 69.9706H119.981V70.3681H217.788V69.9706Z" fill="#DBDBDB"/>
<path d="M217.788 75.2282H119.981V75.6257H217.788V75.2282Z" fill="#DBDBDB"/>
<path d="M217.788 80.4858H119.981V80.8833H217.788V80.4858Z" fill="#DBDBDB"/>
<path d="M217.788 85.7434H119.981V86.1409H217.788V85.7434Z" fill="#DBDBDB"/>
<path d="M217.788 91.001H119.981V91.3985H217.788V91.001Z" fill="#DBDBDB"/>
<path d="M217.788 96.2639H119.981V96.6614H217.788V96.2639Z" fill="#DBDBDB"/>
<path d="M217.788 101.521H119.981V101.919H217.788V101.521Z" fill="#DBDBDB"/>
<path d="M217.788 106.779H119.981V107.177H217.788V106.779Z" fill="#DBDBDB"/>
<path d="M217.788 112.037H119.981V112.434H217.788V112.037Z" fill="#DBDBDB"/>
<path d="M217.788 117.294H119.981V117.692H217.788V117.294Z" fill="#DBDBDB"/>
<path d="M217.788 122.552H119.981V122.949H217.788V122.552Z" fill="#DBDBDB"/>
<path d="M217.788 127.81H119.981V128.207H217.788V127.81Z" fill="#DBDBDB"/>
<path d="M217.788 133.072H119.981V133.47H217.788V133.072Z" fill="#DBDBDB"/>
<path d="M217.788 138.33H119.981V138.728H217.788V138.33Z" fill="#DBDBDB"/>
<path d="M217.788 143.588H119.981V143.985H217.788V143.588Z" fill="#DBDBDB"/>
<path d="M217.788 148.845H119.981V149.243H217.788V148.845Z" fill="#DBDBDB"/>
<path d="M217.788 154.103H119.981V154.5H217.788V154.103Z" fill="#DBDBDB"/>
<path d="M217.788 159.36H119.981V159.758H217.788V159.36Z" fill="#DBDBDB"/>
<path d="M217.788 164.618H119.981V165.016H217.788V164.618Z" fill="#DBDBDB"/>
<path d="M217.788 169.881H119.981V170.278H217.788V169.881Z" fill="#DBDBDB"/>
<path d="M123.252 52.8463L134.657 52.7138L146.068 52.6396L168.885 52.5813L191.701 52.6396L203.112 52.7138L214.518 52.8463L203.112 52.9735L191.701 53.0477L168.885 53.1113L146.068 53.0477L134.657 52.9735L123.252 52.8463Z" fill="#263238"/>
<path d="M123.252 58.1039C128.87 57.9926 134.488 57.9449 140.106 57.9025L156.96 57.8389L173.814 57.8972L182.241 57.9714L190.668 58.1039L182.241 58.2311L173.84 58.3L156.986 58.3636L140.132 58.3C134.488 58.2629 128.87 58.2099 123.252 58.1039Z" fill="#263238"/>
<path d="M123.252 63.3615L134.657 63.2343L146.068 63.1601L168.885 63.0965L191.701 63.1601L203.112 63.2343L214.518 63.3615L203.112 63.4887L191.701 63.5629L168.885 63.6265L146.068 63.5629L134.657 63.4887L123.252 63.3615Z" fill="#263238"/>
<path d="M123.252 68.6191C126.93 68.5078 130.603 68.4601 134.281 68.4177L145.31 68.3541L156.334 68.4177L161.851 68.4919C163.685 68.5343 165.524 68.5608 167.363 68.6191C165.524 68.6774 163.685 68.7039 161.851 68.7516L156.334 68.8258L145.31 68.8841L134.281 68.8205C130.603 68.7781 126.93 68.7304 123.252 68.6191Z" fill="#263238"/>
<path d="M123.252 79.1343L134.657 79.0071L146.068 78.9329L168.885 78.8693L191.701 78.9329L203.112 79.0071L214.518 79.1343L203.112 79.2668L191.701 79.341L168.885 79.3993L146.068 79.341L134.657 79.2668L123.252 79.1343Z" fill="#263238"/>
<path d="M123.252 84.3972C128.859 84.2859 134.472 84.2329 140.079 84.1905L156.907 84.1322L173.729 84.1905L182.145 84.2647L190.556 84.3972L182.145 84.5244L173.729 84.5986L156.907 84.6569L140.079 84.5986C134.472 84.5562 128.859 84.5032 123.252 84.3972Z" fill="#263238"/>
<path d="M123.252 89.6548C129.49 89.5435 135.722 89.4905 141.961 89.4481L160.664 89.3898L179.368 89.4481L188.722 89.5223L198.077 89.6548L188.722 89.782L179.368 89.8562L160.664 89.9198L141.961 89.8562C135.722 89.8138 129.49 89.7608 123.252 89.6548Z" fill="#263238"/>
<path d="M123.252 100.17C127.9 100.059 132.548 100.011 137.191 99.9686L151.135 99.905L165.074 99.9633L172.043 100.038L179.013 100.17L172.043 100.297L165.074 100.371L151.135 100.435L137.191 100.371C132.548 100.329 127.9 100.281 123.252 100.17Z" fill="#263238"/>
<path d="M123.252 105.428L134.657 105.3L146.068 105.226L168.885 105.163L191.701 105.226L203.112 105.3L214.518 105.428L203.112 105.56L191.701 105.634L168.885 105.693L146.068 105.629L134.657 105.555L123.252 105.428Z" fill="#263238"/>
<path d="M123.252 110.685C129.49 110.579 135.722 110.526 141.961 110.484L160.664 110.42L179.368 110.484L188.722 110.558L198.077 110.685L188.722 110.818L179.368 110.892L160.664 110.95L141.961 110.892C135.722 110.85 129.49 110.797 123.252 110.685Z" fill="#263238"/>
<path d="M123.252 115.943L134.657 115.816L146.068 115.741L168.885 115.678L191.701 115.741L203.112 115.816L214.518 115.943L203.112 116.075L191.701 116.149L168.885 116.208L146.068 116.149L134.657 116.075L123.252 115.943Z" fill="#263238"/>
<path d="M123.252 121.2C127.794 121.094 132.341 121.041 136.883 120.999L150.515 120.941L164.146 120.999L170.962 121.073L177.778 121.2L170.962 121.333L164.146 121.407L150.515 121.465L136.883 121.407C132.341 121.37 127.794 121.312 123.252 121.2Z" fill="#263238"/>
<path d="M121.529 97.7585H84.4608C83.972 94.6883 83.7045 91.5868 83.6605 88.4782V51.1397H130.301V88.9605C130.279 92.75 121.529 97.7585 121.529 97.7585Z" fill="url(#paint0_linear_202_4)"/>
<path opacity="0.2" d="M130.274 88.9552C130.274 92.6281 122.054 97.4352 121.545 97.732C122.907 96.8098 122.674 89.5117 122.674 89.5117C122.674 89.5117 130.136 88.5418 130.274 88.9552Z" fill="black"/>
<path d="M90.524 62.1531C96.0042 61.7079 101.49 61.6231 106.954 61.5807C112.418 61.5383 117.92 61.7026 123.384 62.1531C117.904 62.6089 112.418 62.6831 106.954 62.7308C101.49 62.7785 96.0042 62.6036 90.524 62.1531Z" fill="white"/>
<path d="M90.524 68.3011C94.8382 67.8506 99.1525 67.7711 103.461 67.7234C107.77 67.6757 112.09 67.8506 116.404 68.3011C112.103 68.7175 107.783 68.9174 103.461 68.9C99.1525 68.8576 94.8382 68.7516 90.524 68.3011Z" fill="white"/>
<path d="M90.524 74.4491C94.8382 73.9986 99.1525 73.8926 103.461 73.8714C107.783 73.847 112.102 74.0398 116.404 74.4491C112.09 74.8996 107.776 75.0056 103.461 75.0268C99.1472 75.048 94.8382 74.8996 90.524 74.4491Z" fill="white"/>
<path d="M209.774 201.702H165.561C165.561 201.702 163.372 197.187 163.372 192.904V157.49H207.585V193.36C207.585 196.948 209.774 201.702 209.774 201.702Z" fill="url(#paint1_linear_202_4)"/>
<path opacity="0.8" d="M209.774 201.702H165.561C165.561 201.702 163.372 197.187 163.372 192.904V157.49H207.585V193.36C207.585 196.948 209.774 201.702 209.774 201.702Z" fill="white"/>
<path d="M207.585 160.505H163.372V160.638H207.585V160.505Z" fill="#DBDBDB"/>
<path d="M207.585 163.68H163.372V163.812H207.585V163.68Z" fill="#DBDBDB"/>
<path d="M207.585 166.86H163.372V166.992H207.585V166.86Z" fill="#DBDBDB"/>
<path d="M207.585 170.035H163.372V170.167H207.585V170.035Z" fill="#DBDBDB"/>
<path d="M207.585 173.215H163.372V173.347H207.585V173.215Z" fill="#DBDBDB"/>
<path d="M207.585 176.389H163.372V176.522H207.585V176.389Z" fill="#DBDBDB"/>
<path d="M207.585 179.564H163.372V179.696H207.585V179.564Z" fill="#DBDBDB"/>
<path d="M207.585 182.744H163.372V182.877H207.585V182.744Z" fill="#DBDBDB"/>
<path d="M207.585 185.919H163.372V186.051H207.585V185.919Z" fill="#DBDBDB"/>
<path d="M207.585 189.099H163.372V189.231H207.585V189.099Z" fill="#DBDBDB"/>
<path d="M207.585 192.273H163.372V192.406H207.585V192.273Z" fill="#DBDBDB"/>
<path d="M207.808 195.57H163.622C163.619 195.526 163.619 195.482 163.622 195.438H207.808C207.792 195.496 207.802 195.57 207.808 195.57Z" fill="#DBDBDB"/>
<path d="M208.645 198.75H164.422C164.405 198.707 164.39 198.663 164.38 198.617H208.603C208.614 198.663 208.628 198.707 208.645 198.75Z" fill="#DBDBDB"/>
<path d="M168.423 201.702H168.286C167.936 200.748 167.586 199.741 167.279 198.761C167.279 198.713 167.252 198.671 167.241 198.628C166.922 197.631 166.663 196.615 166.468 195.586C166.465 195.542 166.465 195.498 166.468 195.453C166.383 194.997 166.336 194.534 166.33 194.07V157.5H166.42V194.07C166.427 194.534 166.473 194.997 166.558 195.453C166.558 195.496 166.558 195.538 166.558 195.586C166.758 196.614 167.018 197.63 167.337 198.628C167.337 198.671 167.363 198.718 167.379 198.761C167.724 199.746 168.074 200.753 168.423 201.702Z" fill="#DBDBDB"/>
<path d="M171.603 201.702H171.466C171.116 200.748 170.766 199.741 170.459 198.761C170.459 198.713 170.432 198.671 170.421 198.628C170.102 197.631 169.843 196.615 169.648 195.586C169.645 195.542 169.645 195.498 169.648 195.453C169.563 194.997 169.516 194.534 169.51 194.07V157.5H169.6V194.07C169.607 194.534 169.653 194.997 169.738 195.453C169.738 195.496 169.738 195.538 169.738 195.586C169.938 196.614 170.198 197.63 170.517 198.628C170.517 198.671 170.543 198.718 170.559 198.761C170.904 199.746 171.254 200.753 171.603 201.702Z" fill="#DBDBDB"/>
<path d="M174.778 201.702H174.64C174.29 200.748 173.941 199.741 173.633 198.761C173.633 198.713 173.607 198.671 173.596 198.628C173.276 197.631 173.018 196.615 172.822 195.586C172.811 195.542 172.802 195.498 172.796 195.453C172.711 194.997 172.665 194.534 172.658 194.07V157.5H172.78V194.07C172.787 194.534 172.833 194.997 172.918 195.453C172.918 195.496 172.918 195.538 172.918 195.586C173.118 196.614 173.378 197.63 173.697 198.628C173.697 198.671 173.697 198.718 173.739 198.761C174.078 199.746 174.428 200.753 174.778 201.702Z" fill="#DBDBDB"/>
<path d="M177.958 201.702H177.82C177.47 200.748 177.121 199.741 176.813 198.761C176.813 198.713 176.787 198.671 176.771 198.628C176.454 197.63 176.195 196.614 175.997 195.586C175.997 195.544 175.997 195.496 175.997 195.453C175.912 194.997 175.866 194.534 175.859 194.07V157.5H175.96V194.07C175.967 194.534 176.013 194.997 176.098 195.453C176.098 195.496 176.098 195.538 176.098 195.586C176.298 196.614 176.558 197.63 176.877 198.628C176.877 198.671 176.877 198.718 176.919 198.761C177.258 199.746 177.608 200.753 177.958 201.702Z" fill="#DBDBDB"/>
<path d="M181.133 201.702H180.995C180.645 200.748 180.295 199.741 179.988 198.761C179.988 198.713 179.962 198.671 179.951 198.628C179.631 197.631 179.373 196.615 179.177 195.586C179.166 195.542 179.157 195.498 179.151 195.453C179.065 194.997 179.019 194.534 179.013 194.07V157.5H179.14V194.07C179.147 194.534 179.193 194.997 179.278 195.453C179.278 195.496 179.278 195.538 179.278 195.586C179.478 196.614 179.738 197.63 180.057 198.628C180.057 198.671 180.083 198.718 180.099 198.761C180.433 199.746 180.783 200.753 181.133 201.702Z" fill="#DBDBDB"/>
<path d="M184.313 201.702H184.175C183.825 200.748 183.475 199.741 183.168 198.761C183.168 198.713 183.141 198.671 183.131 198.628C182.811 197.631 182.553 196.615 182.357 195.586C182.346 195.542 182.337 195.498 182.331 195.453C182.245 194.997 182.199 194.534 182.193 194.07V157.5H182.32V194.07C182.327 194.534 182.373 194.997 182.458 195.453C182.458 195.496 182.458 195.538 182.458 195.586C182.658 196.614 182.918 197.63 183.237 198.628C183.237 198.671 183.263 198.718 183.279 198.761C183.613 199.746 183.963 200.753 184.313 201.702Z" fill="#DBDBDB"/>
<path d="M187.487 201.702H187.35C187 200.748 186.65 199.741 186.343 198.761C186.343 198.713 186.343 198.671 186.3 198.628C185.983 197.63 185.725 196.614 185.526 195.586C185.526 195.544 185.526 195.496 185.526 195.453C185.441 194.997 185.395 194.534 185.389 194.07V157.5H185.5V194.07C185.507 194.534 185.553 194.997 185.638 195.453C185.638 195.496 185.638 195.538 185.638 195.586C185.838 196.614 186.098 197.63 186.417 198.628C186.417 198.671 186.443 198.718 186.459 198.761C186.788 199.746 187.138 200.753 187.487 201.702Z" fill="#DBDBDB"/>
<path d="M190.668 201.702H190.53C190.18 200.748 189.83 199.741 189.523 198.761C189.523 198.713 189.523 198.671 189.48 198.628C189.163 197.63 188.905 196.614 188.707 195.586C188.707 195.544 188.707 195.496 188.707 195.453C188.621 194.997 188.575 194.534 188.569 194.07V157.5H188.68V194.07C188.687 194.534 188.733 194.997 188.818 195.453C188.818 195.496 188.818 195.538 188.818 195.586C189.018 196.614 189.278 197.63 189.597 198.628C189.597 198.671 189.623 198.718 189.639 198.761C189.968 199.746 190.318 200.753 190.668 201.702Z" fill="#DBDBDB"/>
<path d="M193.842 201.702H193.704C193.355 200.748 193.005 199.741 192.697 198.761C192.697 198.713 192.671 198.671 192.66 198.628C192.341 197.631 192.082 196.615 191.886 195.586C191.875 195.542 191.866 195.498 191.86 195.453C191.775 194.997 191.729 194.534 191.722 194.07V157.5H191.86V194.07C191.867 194.534 191.913 194.997 191.998 195.453C191.998 195.496 191.998 195.538 191.998 195.586C192.198 196.614 192.458 197.63 192.777 198.628C192.777 198.671 192.803 198.718 192.819 198.761C193.143 199.746 193.492 200.753 193.842 201.702Z" fill="#DBDBDB"/>
<path d="M197.022 201.702H196.884C196.535 200.748 196.185 199.741 195.877 198.761C195.877 198.713 195.851 198.671 195.84 198.628C195.52 197.631 195.262 196.615 195.066 195.586C195.055 195.542 195.046 195.498 195.04 195.453C194.955 194.997 194.909 194.534 194.902 194.07V157.5H195.04V194.07C195.046 194.534 195.093 194.997 195.178 195.453C195.178 195.496 195.178 195.538 195.178 195.586C195.378 196.614 195.638 197.63 195.957 198.628C195.957 198.671 195.983 198.718 195.999 198.761C196.323 199.746 196.672 200.753 197.022 201.702Z" fill="#DBDBDB"/>
<path d="M200.197 201.702H200.059C199.709 200.748 199.359 199.741 199.052 198.761C199.052 198.713 199.026 198.67 199.01 198.628C198.686 197.625 198.423 196.604 198.22 195.57C198.22 195.528 198.22 195.48 198.22 195.437C198.135 194.981 198.089 194.518 198.082 194.054V157.484H198.22V194.054C198.227 194.518 198.273 194.981 198.358 195.437C198.358 195.48 198.358 195.522 198.358 195.57C198.558 196.598 198.818 197.614 199.137 198.612C199.137 198.655 199.163 198.702 199.179 198.745C199.497 199.746 199.847 200.753 200.197 201.702Z" fill="#DBDBDB"/>
<path d="M203.377 201.702H203.239C202.889 200.748 202.54 199.741 202.232 198.761C202.232 198.713 202.206 198.67 202.19 198.628C201.866 197.625 201.603 196.604 201.4 195.57C201.4 195.528 201.4 195.48 201.4 195.437C201.315 194.981 201.269 194.518 201.262 194.054V157.484H201.4V194.054C201.407 194.518 201.453 194.981 201.538 195.437C201.538 195.48 201.538 195.522 201.538 195.57C201.738 196.598 201.998 197.614 202.317 198.612C202.317 198.655 202.343 198.702 202.359 198.745C202.677 199.746 203.027 200.753 203.377 201.702Z" fill="#DBDBDB"/>
<path d="M206.552 201.702H206.414C206.064 200.748 205.714 199.741 205.407 198.761C205.407 198.713 205.38 198.67 205.37 198.628C205.044 197.626 204.78 196.605 204.58 195.57C204.577 195.526 204.577 195.482 204.58 195.437C204.495 194.981 204.449 194.518 204.442 194.054V157.484H204.58V194.054C204.587 194.518 204.633 194.981 204.718 195.437C204.718 195.48 204.718 195.522 204.718 195.57C204.918 196.598 205.178 197.614 205.497 198.612C205.497 198.655 205.523 198.702 205.539 198.745C205.852 199.746 206.202 200.753 206.552 201.702Z" fill="#DBDBDB"/>
<path d="M170.019 166.197C172.632 166.086 175.25 166.038 177.863 165.996C180.476 165.954 183.088 165.954 185.707 165.932C188.325 165.911 190.932 165.932 193.545 165.996L197.467 166.07C198.776 166.113 200.08 166.139 201.389 166.197C200.08 166.256 198.776 166.282 197.467 166.33L193.545 166.404C190.932 166.441 188.32 166.441 185.707 166.462C183.094 166.484 180.476 166.462 177.863 166.399C175.25 166.335 172.632 166.309 170.019 166.197Z" fill="#263238"/>
<path d="M170.019 169.314C172.632 169.208 175.25 169.155 177.863 169.112C180.476 169.07 183.088 169.07 185.707 169.049C188.325 169.028 190.932 169.049 193.545 169.112L197.467 169.187C198.776 169.229 200.08 169.255 201.389 169.314C200.08 169.377 198.776 169.399 197.467 169.446L193.545 169.52C190.932 169.563 188.32 169.558 185.707 169.579C183.094 169.6 180.476 169.579 177.863 169.52C175.25 169.462 172.632 169.425 170.019 169.314Z" fill="#263238"/>
<path d="M170.019 172.43C171.89 172.324 173.729 172.271 175.626 172.229C177.523 172.186 179.363 172.176 181.233 172.165C183.104 172.155 184.97 172.165 186.841 172.229L189.639 172.303C190.577 172.345 191.51 172.372 192.443 172.43C191.51 172.494 190.577 172.52 189.639 172.563L186.841 172.637C184.97 172.685 183.099 172.69 181.233 172.695C179.368 172.701 177.492 172.695 175.626 172.637C173.76 172.579 171.89 172.542 170.019 172.43Z" fill="#263238"/>
<path d="M170.019 178.668C171.153 178.557 172.287 178.509 173.421 178.467C174.555 178.425 175.69 178.409 176.824 178.403C177.958 178.398 179.092 178.403 180.232 178.462L181.933 178.536C182.5 178.584 183.067 178.605 183.634 178.668C183.067 178.727 182.5 178.753 181.933 178.796L180.232 178.87C179.092 178.917 177.958 178.928 176.824 178.933C175.69 178.939 174.555 178.933 173.421 178.87C172.287 178.806 171.153 178.774 170.019 178.668Z" fill="#263238"/>
<path d="M170.019 181.79C172.632 181.679 175.25 181.631 177.863 181.589C180.476 181.546 183.088 181.546 185.707 181.525C188.325 181.504 190.932 181.525 193.545 181.583L197.467 181.658C198.776 181.705 200.08 181.732 201.389 181.79C200.08 181.848 198.776 181.875 197.467 181.917L193.545 181.991C190.932 182.034 188.32 182.034 185.707 182.055C183.094 182.076 180.476 182.055 177.863 181.991C175.25 181.928 172.632 181.896 170.019 181.79Z" fill="#263238"/>
<path d="M170.019 184.901C172.239 184.795 174.455 184.742 176.675 184.7C178.896 184.657 181.112 184.657 183.332 184.636C185.553 184.615 187.768 184.636 189.989 184.7L193.317 184.774C194.425 184.816 195.538 184.843 196.646 184.901C195.538 184.959 194.425 184.986 193.317 185.034L189.989 185.108C187.768 185.15 185.553 185.145 183.332 185.166C181.112 185.187 178.896 185.166 176.675 185.102C174.455 185.039 172.25 185.012 170.019 184.901Z" fill="#263238"/>
<path d="M170.019 188.017C171.852 187.911 173.681 187.858 175.515 187.816C177.349 187.774 179.177 187.763 181.011 187.752C182.845 187.742 184.673 187.752 186.507 187.816L189.258 187.89C190.175 187.933 191.086 187.959 192.003 188.017C191.086 188.081 190.175 188.108 189.258 188.15L186.507 188.224C184.673 188.272 182.845 188.277 181.011 188.282C179.177 188.288 177.349 188.282 175.515 188.224C173.681 188.166 171.852 188.15 170.019 188.017Z" fill="#263238"/>
<g opacity="0.5">
<path d="M175.668 152.99L173.739 154.246L175.918 153.409L176.739 154.781L175.859 155.55L176.983 155.184L177.296 155.714L176.098 156.583L177.465 155.995L177.704 156.392L161.544 166.049L160.834 164.862L162.1 164.024L160.648 164.544L160.346 164.04L161.295 163.362L160.187 163.77L160.039 163.526L161.549 162.302L159.657 162.89L159.143 162.026L175.303 152.375L175.668 152.99Z" fill="white"/>
<path d="M212.307 165.095L210.521 163.701L211.989 165.466L210.956 166.685L209.96 166.113L210.654 167.04L210.251 167.512L209.064 166.68L210.039 167.766L209.742 168.116L195.628 156.133L196.524 155.078L197.701 155.99L196.763 154.802L197.144 154.347L198.077 155.02L197.346 154.113L197.531 153.896L199.158 154.919L198.008 153.329L198.655 152.566L212.769 164.549L212.307 165.095Z" fill="white"/>
</g>
<path d="M236.656 138.621H206.933L200.282 134.058L206.933 129.5H236.656V138.621Z" fill="url(#paint2_linear_202_4)"/>
<path d="M243.031 127.136H213.304L206.658 122.573L213.304 118.01H243.031V127.136Z" fill="#455A64"/>
<path d="M43.99 227.418L128.657 227.778C149.237 211.618 151.363 187.678 136.682 173.188C127.794 164.411 116.51 166.181 105.767 164.782H105.735C101.941 164.387 98.2492 163.31 94.8382 161.602C83.7771 155.772 77.539 141.992 68.2322 130.417C67.0715 128.965 65.8631 127.55 64.5858 126.177C56.9326 118.004 41.7004 117.739 33.7345 129.225C13.4991 158.396 22.79 201.845 43.99 227.418Z" fill="#DBDBDB"/>
<path d="M42.1191 160.622C44.3345 195.358 84.4555 208.322 109.509 197.918C131.297 188.871 124.163 168.238 105.799 164.761H105.767C101.973 164.366 98.281 163.289 94.87 161.581C83.8089 155.751 77.5708 141.971 68.264 130.396C54.378 123.172 40.492 135.182 42.1191 160.622Z" fill="#C7C7C7"/>
<path d="M71.4917 113.208C77.5284 118.932 81.6783 133.82 78.6202 143.217C74.9738 154.41 64.9886 160.124 56.8001 157.474C49.3801 155.067 46.0888 147.552 48.8183 141.961C51.4683 136.565 56.4927 134.588 57.4255 129.771C57.8707 127.47 57.1022 123.654 57.293 120.188C57.6322 113.897 66.78 108.756 71.4917 113.208Z" fill="#263238"/>
<path d="M47.8219 143.254C48.14 142.083 48.6351 140.968 49.29 139.947C49.9137 138.951 50.6538 138.033 51.4948 137.212C52.3322 136.401 53.1537 135.563 53.9487 134.689C54.7668 133.803 55.4783 132.825 56.0687 131.774C56.3747 131.229 56.6319 130.658 56.8372 130.067C57.0231 129.452 57.1335 128.817 57.1658 128.175C57.2041 126.91 57.1758 125.643 57.081 124.38C56.9997 123.141 57.0602 121.896 57.2612 120.67C57.548 119.466 58.0372 118.319 58.7081 117.278C57.9594 118.278 57.4007 119.406 57.0598 120.607C56.8072 121.848 56.7023 123.115 56.7471 124.38C56.7471 125.642 56.8584 126.903 56.7471 128.128C56.7062 128.728 56.596 129.322 56.4185 129.898C56.2143 130.448 55.9643 130.98 55.6712 131.488C54.537 133.581 52.8251 135.198 51.2245 136.915C50.4058 137.786 49.6941 138.753 49.1045 139.793C48.4939 140.87 48.0608 142.039 47.8219 143.254Z" fill="#263238"/>
<path d="M115.164 243.074C113.918 242.618 85.8069 220.151 85.2769 218.62C85.0755 218.037 88.1071 213.754 91.9178 208.682C92.7393 207.585 93.5979 206.456 94.4724 205.317C100.154 197.897 106.355 190.196 106.355 190.196L125.202 205.168L112.805 219.881L110.086 223.114C110.086 223.114 116.976 236.528 117.4 238.272C117.824 240.016 116.409 243.53 115.164 243.074Z" fill="#D3766A"/>
<path d="M115.164 243.074C113.918 242.618 85.807 220.151 85.277 218.62C85.0332 217.909 89.5594 211.73 94.4725 205.317L112.805 219.881L110.086 223.114C110.086 223.114 116.976 236.528 117.4 238.272C117.824 240.016 116.409 243.53 115.164 243.074Z" fill="white"/>
<path d="M115.164 243.074C113.918 242.618 85.8069 220.151 85.2769 218.62C85.0755 218.037 88.1071 213.754 91.9178 208.682L110.086 223.13C110.086 223.13 116.976 236.544 117.4 238.288C117.824 240.032 116.409 243.53 115.164 243.074Z" fill="url(#paint3_linear_202_4)"/>
<path d="M115.662 241.627C111.04 237.747 92.0398 222.547 87.1797 219.044C87.1373 219.012 87.1161 219.044 87.1532 219.044C91.6476 222.992 110.77 238.06 115.598 241.68C115.699 241.781 115.757 241.712 115.662 241.627Z" fill="#263238"/>
<path d="M116.399 235.818C115.886 235.385 115.29 235.064 114.646 234.874C114.003 234.684 113.327 234.63 112.662 234.716C111.463 234.857 110.365 235.457 109.599 236.391C109.599 236.417 109.63 236.46 109.657 236.433C110.563 235.628 111.706 235.139 112.914 235.038C114.122 234.938 115.33 235.232 116.356 235.877C116.364 235.88 116.372 235.88 116.38 235.878C116.388 235.876 116.395 235.871 116.4 235.864C116.405 235.857 116.408 235.849 116.407 235.841C116.407 235.833 116.404 235.825 116.399 235.818Z" fill="#263238"/>
<path d="M111.538 225.043C109.673 223.506 106.954 222.425 104.548 223.035C104.458 223.035 104.489 223.188 104.548 223.204C106.888 223.657 109.173 224.359 111.364 225.298C111.397 225.321 111.439 225.33 111.479 225.322C111.519 225.315 111.555 225.292 111.578 225.258C111.601 225.224 111.61 225.183 111.603 225.142C111.595 225.102 111.572 225.067 111.538 225.043Z" fill="#263238"/>
<path d="M112.54 226.771C110.675 225.239 107.956 224.158 105.549 224.762C105.459 224.789 105.491 224.921 105.549 224.937C107.889 225.39 110.174 226.092 112.365 227.031C112.4 227.054 112.442 227.063 112.483 227.055C112.523 227.047 112.559 227.023 112.583 226.988C112.606 226.954 112.614 226.912 112.606 226.871C112.598 226.83 112.575 226.794 112.54 226.771Z" fill="#263238"/>
<path d="M113.542 228.504C111.676 226.973 108.957 225.891 106.551 226.496C106.461 226.496 106.493 226.649 106.551 226.665C108.893 227.124 111.178 227.834 113.367 228.785C113.385 228.797 113.406 228.804 113.427 228.808C113.449 228.811 113.471 228.811 113.492 228.806C113.513 228.801 113.533 228.792 113.551 228.779C113.568 228.767 113.583 228.751 113.595 228.732C113.606 228.714 113.614 228.693 113.618 228.672C113.621 228.65 113.62 228.628 113.616 228.607C113.611 228.586 113.602 228.566 113.589 228.548C113.576 228.531 113.56 228.516 113.542 228.504Z" fill="#263238"/>
<path d="M114.544 230.237C112.678 228.7 109.959 227.619 107.558 228.223C107.463 228.25 107.5 228.382 107.558 228.398C109.898 228.85 112.183 229.552 114.374 230.492C114.408 230.514 114.449 230.522 114.489 230.514C114.529 230.506 114.564 230.483 114.586 230.449C114.608 230.416 114.617 230.374 114.609 230.335C114.601 230.295 114.577 230.26 114.544 230.237Z" fill="#263238"/>
<path d="M91.955 215.525C89.835 213.839 87.2115 217.115 89.3368 218.821C91.4621 220.528 94.0803 217.215 91.955 215.525Z" fill="white"/>
<path d="M117.596 221.635C117.278 220.083 115.476 219.897 114.21 220.247C112.085 220.891 110.168 222.082 108.65 223.702C108.642 223.708 108.636 223.716 108.632 223.725C108.627 223.733 108.625 223.743 108.625 223.753C108.625 223.762 108.627 223.772 108.632 223.781C108.636 223.79 108.642 223.797 108.65 223.803C108.631 223.845 108.621 223.89 108.622 223.936C108.623 223.982 108.634 224.027 108.655 224.068C108.676 224.109 108.706 224.145 108.743 224.172C108.78 224.2 108.822 224.218 108.867 224.227C110.955 224.37 113.166 224.784 115.227 224.28C116.446 223.989 117.904 223.13 117.596 221.635ZM112.079 223.798C111.051 223.75 110.033 223.655 109.005 223.644C110.092 222.976 111.125 222.261 112.302 221.699C112.854 221.422 113.424 221.181 114.008 220.978C114.915 220.687 118.026 220.586 116.573 222.791C115.773 224.005 113.303 223.851 112.079 223.798Z" fill="#263238"/>
<path d="M103.398 220.655C104.839 222.218 106.906 223.104 108.698 224.142C108.739 224.162 108.785 224.171 108.831 224.17C108.877 224.168 108.922 224.156 108.963 224.134C109.003 224.112 109.037 224.08 109.063 224.042C109.089 224.004 109.105 223.96 109.111 223.914C109.154 223.914 109.191 223.888 109.18 223.84C108.818 221.647 107.884 219.589 106.472 217.872C105.634 216.887 104.018 216.033 102.884 217.146C101.749 218.259 102.555 219.743 103.398 220.655ZM103.117 218.673C103.117 216.023 105.666 217.846 106.254 218.593C106.63 219.084 106.97 219.601 107.272 220.141C107.882 221.262 108.436 222.414 108.931 223.591C108.072 223.024 107.171 222.531 106.281 222.001C105.242 221.37 103.106 220.125 103.117 218.673Z" fill="#263238"/>
<path d="M144.239 176.379C142.952 186.168 118.799 214.438 116.028 217.682L115.392 218.418L95.4318 203.075L95.6597 202.778L113.24 179.765L60.8069 179.458L80.7137 163.977C80.7137 163.977 82.3302 164.91 85.6851 164.417C97.2603 162.726 123.347 158.974 129.5 159.223C137.434 159.53 145.427 167.39 144.239 176.379Z" fill="#37474F"/>
<path d="M119.552 171.19C118.902 171.929 118.297 172.706 117.74 173.517C117.119 174.333 116.489 175.138 115.869 175.955C115.98 175.716 116.086 175.478 116.203 175.239C116.595 174.428 116.907 173.591 117.369 172.817C117.373 172.808 117.374 172.798 117.371 172.788C117.369 172.778 117.363 172.769 117.355 172.764C117.346 172.758 117.336 172.755 117.326 172.756C117.316 172.757 117.307 172.762 117.3 172.769C116.823 173.543 116.271 174.275 115.863 175.086C115.667 175.467 115.487 175.849 115.333 176.241C115.243 176.458 115.148 176.676 115.063 176.893C115.02 176.995 114.983 177.099 114.952 177.206C114.671 177.582 114.422 177.963 114.13 178.35C113.537 179.209 113.017 180.115 112.418 180.963C112.387 181.011 112.455 181.053 112.493 181.011C113.097 180.211 113.775 179.463 114.395 178.668C115.015 177.873 115.614 177.031 116.203 176.193C116.791 175.356 117.337 174.555 117.909 173.734C118.538 172.93 119.117 172.087 119.642 171.211C119.621 171.217 119.579 171.19 119.552 171.19Z" fill="#263238"/>
<path d="M71.4228 145.639C74.2583 151.082 85.1233 168.498 91.2077 169.203C95.1986 169.664 110.818 166.584 113.187 162.583C114.21 160.839 111.093 149.688 109.032 150.345C106.97 151.002 94.4778 153.917 92.8772 153.621C91.2766 153.324 78.3075 141.054 73.6276 138.15C65.561 133.147 69.8964 142.708 71.4228 145.639Z" fill="#D3766A"/>
<path d="M104.171 149.99L106.185 167.008C106.185 167.008 93.8948 170.522 88.3457 168.98C81.5988 167.109 70.6702 147.25 69.1385 143.99C66.6263 138.606 67.0185 135.23 70.1455 135.855C71.3645 136.088 72.9916 136.915 75.0268 138.505C77.1468 140.148 89.4481 150.902 93.2376 152.815C95.3523 153.939 104.171 149.99 104.171 149.99Z" fill="#455A64"/>
<path d="M104.171 149.99L106.185 167.014C106.185 167.014 104.145 167.597 101.352 168.18C97.292 169.033 91.6369 169.892 88.3456 168.98C81.604 167.109 70.6701 147.25 69.1384 143.985C67.3205 140.095 67.0184 137.249 68.1897 136.21C68.4645 135.999 68.7857 135.856 69.1267 135.793C69.4677 135.73 69.8187 135.75 70.1507 135.85C71.3591 136.088 72.9915 136.91 75.0267 138.5C77.1467 140.143 89.4427 150.902 93.2322 152.841C95.3522 153.944 104.171 149.99 104.171 149.99Z" fill="url(#paint4_linear_202_4)"/>
<path d="M103.053 166.95C102.677 164.443 101.527 154.135 101.431 151.887C101.431 151.734 101.521 151.691 101.548 151.85C102.846 159.334 102.91 164.454 103.138 166.929C103.154 166.992 103.058 167.014 103.053 166.95Z" fill="#263238"/>
<path d="M69.1385 143.99C70.6649 147.271 81.6041 167.12 88.3404 168.985C90.0046 169.446 92.2783 169.452 94.6421 169.245L69.7321 135.797C69.4601 135.752 69.1817 135.767 68.9157 135.839C68.6497 135.911 68.4023 136.04 68.1898 136.215C67.0238 137.27 67.31 140.1 69.1385 143.99Z" fill="#263238"/>
<path d="M50.4188 177.38L82.3036 169.234L79.1607 157.723C79.1607 157.723 81.6835 154.113 80.6076 150.668C79.6536 147.6 72.382 138.478 70.9139 137.254C68.3964 135.171 63.8914 134.472 61.4269 137.381C51.2615 149.365 50.4188 177.38 50.4188 177.38Z" fill="url(#paint5_linear_202_4)"/>
<path opacity="0.1" d="M69.165 136.173L60.685 138.293C60.9235 137.98 61.1673 137.678 61.4164 137.381L61.5913 137.185L67.6757 135.68C68.187 135.796 68.6857 135.961 69.165 136.173ZM71.1631 137.482L59.1957 140.487C59.1427 140.577 59.0844 140.667 59.0367 140.757L71.3486 137.668L71.1631 137.482ZM72.7054 139.189L57.8654 142.899C57.7011 143.227 57.5368 143.566 57.3778 143.906L73.3202 139.92C73.1082 139.66 72.9015 139.417 72.7054 139.189ZM74.5339 141.425L56.4556 145.962L56.3496 146.216L74.6876 141.621L74.5339 141.425ZM75.8854 143.18L55.5652 148.278C55.4486 148.603 55.3373 148.927 55.2313 149.248L76.4313 143.948C76.2617 143.672 76.0709 143.423 75.8854 143.18ZM77.5549 145.459L54.59 151.22C54.5604 151.299 54.5357 151.381 54.5158 151.463L77.6768 145.633C77.645 145.591 77.5973 145.527 77.5549 145.459ZM78.7633 147.245L53.9487 153.472C53.8692 153.785 53.7844 154.103 53.6996 154.416L79.2509 148.008C79.0972 147.764 78.9382 147.51 78.7633 147.245ZM80.1519 149.598L53.2332 156.35C53.2332 156.43 53.1961 156.514 53.1749 156.594L80.2526 149.799C80.2244 149.73 80.1908 149.662 80.1519 149.598ZM80.8038 151.522L52.7456 158.56L52.5548 159.493L80.8727 152.391C80.8733 152.1 80.8503 151.809 80.8038 151.522ZM52.1838 161.396C52.1838 161.475 52.152 161.56 52.1414 161.639L80.5865 154.506C80.5865 154.421 80.6289 154.341 80.6448 154.257L52.1838 161.396ZM51.8128 163.579C51.7651 163.892 51.7174 164.199 51.675 164.501L79.235 157.585C79.4456 157.253 79.6384 156.909 79.8127 156.557L51.8128 163.579ZM79.5795 159.313L51.41 166.383L51.3782 166.621L79.6537 159.53L79.5795 159.313ZM80.1095 161.268L51.1503 168.54C51.1132 168.853 51.0761 169.155 51.0443 169.452L80.3533 162.095L80.1095 161.268ZM80.7985 163.797L50.8482 171.312C50.8482 171.391 50.8482 171.471 50.8482 171.55L80.8992 164.014L80.7985 163.797ZM81.3285 165.752L50.6627 173.448C50.6627 173.766 50.615 174.068 50.5938 174.349L81.5776 166.579L81.3285 165.752ZM82.0175 168.275L50.4825 176.193C50.4825 176.273 50.4825 176.352 50.4825 176.426L82.1182 168.476L82.0175 168.275Z" fill="black"/>
<path d="M75.1646 141.976C75.9649 142.973 76.8341 143.927 77.6609 144.907C77.2952 144.187 76.9294 143.471 76.5319 142.787C77.1303 143.616 77.6418 144.504 78.0584 145.437C78.68 146.172 79.2468 146.952 79.7543 147.769C80.384 148.721 80.8364 149.779 81.09 150.891C81.2894 152.024 81.2405 153.187 80.9469 154.299C80.5937 155.587 80.1218 156.84 79.5371 158.041C79.4629 158.2 79.2244 158.083 79.2827 157.924C80.0671 155.804 80.9522 153.568 80.6024 151.294C80.2526 149.02 78.917 147.091 77.6132 145.252C76.8419 144.123 75.9993 143.045 75.0903 142.024C75.0532 141.987 75.1328 141.934 75.1646 141.976Z" fill="#263238"/>
<path d="M74.4543 156.212C72.9959 156.743 71.5787 157.381 70.2143 158.12C69.5412 158.502 68.8946 158.905 68.2533 159.329C67.93 159.541 67.6068 159.737 67.2782 159.933C66.9485 160.153 66.5924 160.331 66.2182 160.463C66.2111 160.463 66.2044 160.466 66.1994 160.471C66.1944 160.476 66.1917 160.482 66.1917 160.489C66.1917 160.496 66.1944 160.503 66.1994 160.508C66.2044 160.513 66.2111 160.516 66.2182 160.516C66.589 160.438 66.9539 160.333 67.31 160.203C67.6498 160.065 67.9808 159.905 68.301 159.726C68.9847 159.35 69.6472 158.942 70.3309 158.56C71.7036 157.786 73.071 157.013 74.4967 156.339C74.5709 156.297 74.5232 156.186 74.4543 156.212Z" fill="#263238"/>
<path d="M78.4877 156.541C77.221 156.743 75.9664 157.015 74.73 157.357C74.1099 157.527 73.511 157.733 72.9121 157.961C72.6259 158.067 72.345 158.179 72.0641 158.295C71.7832 158.412 71.4546 158.592 71.1472 158.714C71.1101 158.714 71.1472 158.777 71.1472 158.767C71.4493 158.661 71.762 158.602 72.0694 158.512L72.981 158.242C73.5958 158.062 74.2053 157.887 74.8148 157.712C76.0338 157.341 77.2528 156.986 78.4877 156.652C78.5831 156.626 78.5566 156.53 78.4877 156.541Z" fill="#263238"/>
<path d="M64.66 137.297C64.8508 137.869 68.0043 141.409 70.6702 141.033C71.5341 140.911 71.073 136.141 71.073 136.141L71.1207 135.786L71.762 130.746L65.6193 127.566L64.7395 127.147C64.7395 127.147 64.6547 128.541 64.5646 130.269V130.518C64.5646 130.613 64.5646 130.709 64.5646 130.799C64.5646 131.058 64.5328 131.329 64.5222 131.583C64.5116 131.838 64.5222 131.981 64.5222 132.193V132.818C64.4656 134.312 64.5117 135.809 64.66 137.297Z" fill="#D3766A"/>
<path d="M64.5698 130.274C65.1969 131.614 66.1082 132.801 67.2404 133.753C68.3726 134.704 69.6985 135.398 71.1259 135.786L71.7672 130.746L65.6245 127.566L64.7447 127.147C64.7447 127.147 64.6599 128.546 64.5698 130.274Z" fill="#263238"/>
<path d="M78.0689 121.746C80.3426 130.364 75.4189 132.701 73.5798 133.189C71.8944 133.634 66.0909 134.927 62.9374 126.591C59.7839 118.254 63.0699 114.48 66.8753 113.261C70.6807 112.042 75.7899 113.134 78.0689 121.746Z" fill="#D3766A"/>
<path d="M76.5319 121.37C76.3271 121.381 76.1219 121.381 75.9171 121.37C75.6999 121.394 75.4806 121.348 75.2917 121.237C75.2397 121.191 75.2043 121.128 75.1909 121.059C75.1775 120.99 75.1869 120.919 75.2175 120.856C75.2988 120.742 75.409 120.652 75.5366 120.595C75.6643 120.539 75.8048 120.517 75.9436 120.533C76.2308 120.519 76.5127 120.613 76.7333 120.798C76.7771 120.843 76.8075 120.899 76.8209 120.961C76.8344 121.023 76.8305 121.087 76.8095 121.146C76.7886 121.205 76.7516 121.258 76.7026 121.297C76.6535 121.337 76.5944 121.362 76.5319 121.37Z" fill="#263238"/>
<path d="M70.4316 122.223C70.6251 122.155 70.8145 122.075 70.9987 121.985C71.209 121.929 71.3952 121.807 71.5287 121.635C71.5594 121.572 71.5688 121.501 71.5554 121.432C71.542 121.363 71.5066 121.3 71.4545 121.253C71.3372 121.177 71.2017 121.134 71.0621 121.127C70.9224 121.121 70.7835 121.152 70.6595 121.216C70.3888 121.307 70.162 121.496 70.0235 121.746C69.9898 121.806 69.9752 121.875 69.9818 121.943C69.9884 122.011 70.0158 122.076 70.0604 122.128C70.105 122.18 70.1645 122.217 70.231 122.234C70.2974 122.251 70.3674 122.247 70.4316 122.223Z" fill="#263238"/>
<path d="M72.0429 123.66C72.0429 123.66 72.0005 123.702 72.0058 123.723C72.1542 124.312 72.2231 125.011 71.7302 125.313C71.7302 125.313 71.7302 125.356 71.7302 125.345C72.3768 125.122 72.2761 124.195 72.0429 123.66Z" fill="#263238"/>
<path d="M71.3804 123.156C70.4105 123.289 70.7444 125.218 71.6454 125.096C72.5464 124.974 72.1913 123.045 71.3804 123.156Z" fill="#263238"/>
<path d="M71.02 123.326C70.8716 123.463 70.7391 123.686 70.5377 123.739C70.3363 123.792 70.0925 123.633 69.907 123.463C69.907 123.463 69.8752 123.463 69.8752 123.495C69.9388 123.866 70.1455 124.216 70.5483 124.205C70.9511 124.195 71.126 123.819 71.1525 123.432C71.1578 123.357 71.0783 123.267 71.02 123.326Z" fill="#263238"/>
<path d="M75.525 122.828C75.525 122.828 75.5727 122.828 75.578 122.875C75.6575 123.474 75.8536 124.153 76.426 124.259V124.296C75.7529 124.312 75.5038 123.411 75.525 122.828Z" fill="#263238"/>
<path d="M75.9543 122.117C76.903 121.884 77.3005 123.803 76.4207 124.015C75.5409 124.227 75.154 122.313 75.9543 122.117Z" fill="#263238"/>
<path d="M76.3783 122.16C76.5532 122.229 76.7387 122.382 76.9083 122.356C77.0779 122.329 77.2316 122.086 77.327 121.863C77.327 121.836 77.327 121.863 77.3588 121.863C77.4436 122.223 77.4012 122.631 77.0673 122.775C76.7334 122.918 76.4578 122.642 76.2935 122.292C76.2776 122.245 76.32 122.128 76.3783 122.16Z" fill="#263238"/>
<path d="M73.14 128.742C73.299 128.87 73.4686 129.044 73.67 129.034C73.8921 128.999 74.1049 128.92 74.2954 128.801C74.2954 128.801 74.3378 128.801 74.3272 128.801C74.2564 128.93 74.1521 129.037 74.0252 129.112C73.8983 129.187 73.7536 129.226 73.6064 129.225C73.4819 129.206 73.3656 129.151 73.2716 129.067C73.1775 128.983 73.1097 128.874 73.0764 128.753C73.0446 128.748 73.087 128.726 73.14 128.742Z" fill="#263238"/>
<path d="M75.2017 126.14C75.2017 126.14 75.4932 127.009 75.5727 127.428C75.5727 127.465 75.4826 127.507 75.3395 127.539C74.9912 127.673 74.6127 127.708 74.246 127.639C73.8793 127.571 73.5386 127.402 73.2619 127.152C73.2545 127.145 73.2499 127.136 73.2489 127.126C73.2478 127.116 73.2504 127.106 73.2562 127.097C73.262 127.089 73.2705 127.083 73.2803 127.081C73.2901 127.078 73.3005 127.079 73.3096 127.083C73.9143 127.35 74.5889 127.415 75.2335 127.269C75.2335 127.147 74.7035 125.796 74.7512 125.78C75.0835 125.748 75.4185 125.76 75.7476 125.817C75.2176 123.994 74.359 122.271 73.8396 120.443C73.8346 120.429 73.8351 120.414 73.8408 120.4C73.8465 120.387 73.8572 120.376 73.8705 120.37C73.8839 120.364 73.8991 120.363 73.913 120.368C73.9269 120.372 73.9385 120.382 73.9456 120.395C74.901 122.214 75.6716 124.125 76.2458 126.098C76.32 126.32 75.3872 126.167 75.2017 126.14Z" fill="#263238"/>
<path d="M63.0276 127.073C63.5658 126.73 64.0066 126.255 64.3074 125.692C64.6082 125.13 64.7589 124.499 64.7448 123.861C66.2238 123.012 67.4482 121.782 68.2905 120.299C68.2534 120.49 67.9672 121.858 67.8029 122.552C73.3202 120.877 74.5922 116.372 74.5922 116.372C75.7782 117.245 76.7527 118.374 77.4436 119.674C77.4436 119.674 77.0991 116.213 75.0692 114.093C74.4043 113.35 73.5534 112.798 72.6041 112.493C71.6548 112.189 70.6415 112.143 69.6685 112.36C68.2402 112.176 66.7886 112.38 65.4668 112.952C64.1451 113.524 63.0021 114.442 62.1584 115.609C58.936 120.008 63.0276 127.073 63.0276 127.073Z" fill="#263238"/>
<path d="M71.9846 121.147C71.1331 121.743 70.1969 122.208 69.2074 122.525C70.7432 121.917 72.0793 120.893 73.0658 119.568C73.4837 119.002 73.8292 118.386 74.094 117.734C74.419 117.034 74.5992 116.275 74.624 115.503C74.624 115.445 74.7088 115.445 74.7088 115.503C74.7696 116.267 74.7015 117.035 74.5074 117.777C74.2794 118.504 73.9201 119.183 73.4474 119.78C73.0252 120.306 72.533 120.771 71.9846 121.163" fill="#263238"/>
<path d="M64.4851 126.893C64.4851 126.893 62.0948 124.486 60.9659 125.382C59.837 126.278 61.9729 130.004 63.5258 130.295C63.7226 130.346 63.9277 130.357 64.1287 130.326C64.3296 130.296 64.5224 130.225 64.6952 130.118C64.8681 130.011 65.0175 129.87 65.1344 129.704C65.2513 129.538 65.3333 129.349 65.3755 129.15L64.4851 126.893Z" fill="#D3766A"/>
<path d="M61.6019 126.437V126.474C62.699 126.712 63.4039 127.571 63.9498 128.488C63.8717 128.396 63.7746 128.323 63.6653 128.272C63.5559 128.222 63.4369 128.195 63.3165 128.195C63.196 128.195 63.077 128.222 62.9677 128.272C62.8583 128.323 62.7612 128.396 62.6831 128.488C62.6831 128.488 62.6831 128.546 62.7202 128.536C62.8903 128.448 63.0832 128.415 63.2728 128.44C63.4624 128.466 63.6395 128.549 63.7802 128.679C64.0139 128.9 64.2235 129.145 64.4056 129.41C64.4692 129.495 64.6229 129.41 64.5699 129.315C64.3579 127.974 63.0276 126.326 61.6019 126.437Z" fill="#263238"/>
<path d="M57.7328 141.801C52.9628 149.274 47.5038 161.205 47.3554 169.642C47.2812 173.76 54.4044 177.502 57.0014 176.257C63.0964 173.315 71.587 166.563 74.926 162.111C76.1079 160.521 63.4886 149.969 62.5611 151.856C61.6336 153.742 61.0612 154.845 60.1337 155.566C59.6779 155.921 62.3597 150.372 63.7112 142.602C65.5503 131.996 59.4606 139.093 57.7328 141.801Z" fill="#D3766A"/>
<path d="M72.5411 133.73C72.5411 133.73 70.5642 131.281 72.345 130.073C74.1258 128.864 75.6787 131.588 75.6787 131.588L72.5411 133.73Z" fill="#FF91B4"/>
<path d="M75.6026 131.504L72.4681 133.643L84.9378 151.916L88.0723 149.777L75.6026 131.504Z" fill="url(#paint6_linear_202_4)"/>
<path opacity="0.2" d="M75.6026 131.504L72.4681 133.643L84.9378 151.916L88.0723 149.777L75.6026 131.504Z" fill="black"/>
<path d="M75.8002 131.22L72.1404 133.718L72.6363 134.445L76.2961 131.947L75.8002 131.22Z" fill="#37474F"/>
<path d="M76.3418 132.024L72.682 134.522L73.1779 135.249L76.8378 132.751L76.3418 132.024Z" fill="#37474F"/>
<path d="M88.0807 149.757L88.4411 152.82L88.563 153.827L87.662 153.35L84.9431 151.898V151.23L85.5632 151.474V150.801L86.1886 151.045V150.377L86.8193 150.615V149.948L87.4447 150.186V149.518L88.0807 149.757Z" fill="white"/>
<path d="M88.4411 152.82L88.563 153.827L87.662 153.35L88.4411 152.82Z" fill="#37474F"/>
<path d="M81.5722 136.671C82.7011 138.229 78.6254 140.683 78.6254 140.683C79.4527 140.649 80.2654 140.908 80.9203 141.415C82.0386 142.358 81.0475 144.52 81.0475 144.52C81.9135 144.664 82.7156 145.067 83.3477 145.676C84.3229 146.688 83.6339 149.01 83.6339 149.01C84.3565 149.583 84.8478 150.398 85.0172 151.304C85.3776 153.737 82.3248 155.979 80.7083 157.744C78.9752 159.631 75.5779 161.427 74.2635 162.8L62.1583 152.831C62.1583 152.831 66.0326 142.994 69.4299 140.344C71.322 138.86 79.8497 134.291 81.5722 136.671Z" fill="#D3766A"/>
<path d="M78.5618 140.662C76.092 141.531 73.8395 142.983 71.6718 144.414C71.6241 144.446 71.6719 144.52 71.7249 144.489C73.8449 143.042 76.426 142.13 78.6149 140.779C78.6303 140.772 78.6424 140.759 78.6483 140.743C78.6543 140.727 78.6537 140.709 78.6467 140.694C78.6396 140.678 78.6267 140.666 78.6108 140.66C78.5949 140.654 78.5773 140.655 78.5618 140.662Z" fill="#263238"/>
<path d="M80.8779 144.399C80.3367 144.652 79.8308 144.974 79.3727 145.358C78.8427 145.729 78.3604 146.116 77.8675 146.508C76.8711 147.285 75.8977 148.093 74.9472 148.93C74.9048 148.967 74.9472 149.036 74.9949 149.004C75.986 148.225 76.9877 147.462 78.0159 146.725C78.5459 146.354 79.0388 145.994 79.5582 145.628C80.0674 145.328 80.5419 144.972 80.9733 144.568C80.9958 144.555 81.0124 144.534 81.0193 144.51C81.0263 144.485 81.0231 144.458 81.0104 144.436C80.9978 144.413 80.9767 144.397 80.9519 144.39C80.927 144.383 80.9004 144.386 80.8779 144.399Z" fill="#263238"/>
<path d="M83.5915 149.041C83.1059 149.277 82.6634 149.592 82.2824 149.974C81.8372 150.34 81.392 150.706 80.9415 151.066C80.0458 151.787 79.1448 152.508 78.2226 153.186C78.1749 153.218 78.2226 153.292 78.2756 153.26C79.2137 152.561 80.1677 151.877 81.1005 151.172C81.5616 150.827 82.0174 150.478 82.4732 150.112C82.919 149.829 83.3118 149.47 83.6339 149.052C83.6339 149.052 83.618 149.036 83.5915 149.041Z" fill="#263238"/>
<path d="M68.7675 140.938C69.6991 139.789 70.9608 138.955 72.3821 138.547C72.4404 138.547 72.4404 138.547 72.3821 138.59C71.0894 139.225 69.882 140.021 68.7887 140.959L68.7675 140.938Z" fill="#263238"/>
<path d="M75.525 164.332L62.3651 151.373L60.3564 155.014C60.3564 155.014 63.3562 146.911 64.1194 142.491C64.8826 138.07 64.7554 132.887 59.148 139.512C53.6572 145.999 46.3008 164.713 46.6771 169.563C47.0534 174.412 53.2226 177.349 56.3284 176.792C59.4342 176.236 75.525 164.332 75.525 164.332Z" fill="url(#paint7_linear_202_4)"/>
<path d="M72.08 165.731C70.2409 163.987 62.9799 156.578 61.5171 154.871C61.4164 154.749 61.4694 154.659 61.5913 154.771C67.2252 159.859 70.4317 163.85 72.1436 165.652C72.1966 165.699 72.1383 165.773 72.08 165.731Z" fill="#263238"/>
<path d="M50.9435 168.143C51.6537 166.913 52.4805 165.731 53.2702 164.544C54.0599 163.357 54.8602 162.154 55.687 160.988C56.5138 159.822 57.4148 158.682 58.3052 157.543C58.7451 156.97 59.609 155.857 60.0542 155.29C60.4994 154.723 60.5418 154.855 60.1231 155.47C59.7044 156.085 58.8988 157.198 58.496 157.792C57.7063 158.958 56.906 160.134 56.1163 161.284C55.3266 162.434 54.4468 163.574 53.6041 164.713C52.7614 165.853 51.9399 167.061 51.0336 168.185C50.9965 168.233 50.917 168.196 50.9435 168.143Z" fill="#263238"/>
<path d="M61.4482 150.992C61.904 149.651 62.4552 148.342 62.8103 146.953C62.8103 146.9 62.911 146.921 62.8951 146.953C62.6301 147.859 62.4234 148.776 62.1849 149.688C62.2098 149.652 62.2328 149.615 62.2538 149.577C62.4605 149.227 62.6619 148.866 62.858 148.517C62.8845 148.469 62.9587 148.517 62.9322 148.564C62.752 148.93 62.5718 149.301 62.4022 149.672C62.2819 149.978 62.131 150.271 61.9517 150.547C61.8934 150.743 61.8404 150.939 61.7768 151.135C61.3672 152.482 60.8624 153.798 60.2663 155.073C60.2559 155.087 60.2409 155.098 60.2238 155.103C60.2066 155.108 60.1883 155.107 60.1718 155.1C60.1553 155.093 60.1415 155.081 60.1327 155.066C60.1239 155.05 60.1205 155.032 60.1232 155.014C60.5154 153.668 60.9871 152.322 61.4482 150.992Z" fill="#263238"/>
<path d="M62.2644 151.299C62.3068 151.23 62.6301 151.569 62.7944 151.75C62.8209 151.776 62.7944 151.792 62.7467 151.75C62.699 151.707 62.5188 151.622 62.4181 151.538C62.1107 152.152 60.4041 155.052 60.2981 155.179C60.1921 155.306 60.1921 155.179 60.2186 155.105C60.2928 154.802 61.8828 151.93 62.2644 151.299Z" fill="#263238"/>
<path d="M60.6478 174.534C64.4426 171.762 68.3116 169.081 72.2707 166.542C73.3307 165.842 74.3907 165.095 75.4507 164.369C75.3341 164.295 74.2635 163.161 74.2317 163.118C74.1999 163.076 74.2317 163.065 74.2317 163.086C74.3536 163.187 75.721 164.295 75.8217 164.422C75.9224 164.549 71.852 167.247 69.9493 168.593C68.0466 169.939 66.0485 171.217 64.0716 172.489C62.948 173.209 61.8191 173.92 60.6743 174.609C60.6425 174.635 60.6054 174.566 60.6478 174.534Z" fill="#263238"/>
<path d="M103.822 168.842L83.9731 170.559L91.0433 144.293L110.892 142.575L103.822 168.842Z" fill="#EBEBEB"/>
<path d="M105.184 168.726L85.33 170.437L92.4002 144.171L112.249 142.459L105.184 168.726Z" fill="url(#paint8_linear_202_4)"/>
<path d="M94.5096 143.99C94.4116 144.447 94.1374 144.847 93.7464 145.103C93.5662 145.22 93.4973 144.976 93.6722 144.865C93.927 144.7 94.1148 144.45 94.2022 144.16C94.2177 144.113 94.2301 144.065 94.2393 144.017C94.2823 143.857 94.2823 143.689 94.2393 143.529C94.2182 143.462 94.1753 143.405 94.1174 143.365H94.0909C94.0787 143.368 94.066 143.368 94.0538 143.365C94.0092 143.35 93.9607 143.35 93.916 143.365C93.8321 143.405 93.758 143.463 93.6987 143.535C93.6287 143.62 93.5699 143.715 93.5238 143.816C93.5238 143.863 93.4761 143.916 93.4496 143.969V144.001V144.054C93.4479 144.066 93.4479 144.079 93.4496 144.091L93.1687 144.118C93.2202 143.931 93.2968 143.753 93.3966 143.588C93.4708 143.452 93.5738 143.334 93.6983 143.243C93.8229 143.151 93.9659 143.088 94.1174 143.058C94.2287 143.045 94.3405 143.077 94.4293 143.145C94.5182 143.213 94.5773 143.313 94.5944 143.423C94.6138 143.616 94.5846 143.811 94.5096 143.99Z" fill="#455A64"/>
<path d="M96.0625 143.858C95.9645 144.315 95.6903 144.715 95.2993 144.971C95.1191 145.088 95.0502 144.844 95.2304 144.732C95.4821 144.565 95.669 144.316 95.7604 144.028C95.7604 143.98 95.7869 143.927 95.7922 143.884C95.8349 143.725 95.8349 143.557 95.7922 143.397C95.7702 143.329 95.7252 143.271 95.665 143.233H95.6226C95.5779 143.218 95.5295 143.218 95.4848 143.233C95.4019 143.269 95.3292 143.326 95.2728 143.397C95.1725 143.533 95.0889 143.681 95.0237 143.837V143.869C95.0224 143.886 95.0224 143.904 95.0237 143.921C95.0214 143.934 95.0214 143.946 95.0237 143.959H94.7428C94.795 143.773 94.8716 143.594 94.9707 143.429C95.0449 143.293 95.1479 143.175 95.2724 143.084C95.397 142.992 95.54 142.929 95.6915 142.899C95.8028 142.886 95.9145 142.918 96.0034 142.986C96.0923 143.054 96.1514 143.154 96.1685 143.264C96.1858 143.468 96.1493 143.673 96.0625 143.858Z" fill="#455A64"/>
<path d="M97.6153 143.725C97.5195 144.181 97.2469 144.579 96.8575 144.833C96.6773 144.955 96.6031 144.711 96.7833 144.595C97.0334 144.428 97.2201 144.181 97.3133 143.895C97.3264 143.846 97.337 143.797 97.3451 143.747C97.3878 143.587 97.3878 143.419 97.3451 143.259C97.32 143.193 97.2757 143.136 97.2178 143.095H97.1808C97.1316 143.091 97.0823 143.1 97.0377 143.121C96.9541 143.157 96.8811 143.214 96.8257 143.286C96.752 143.369 96.6929 143.464 96.6508 143.566C96.6208 143.615 96.5959 143.666 96.5766 143.72V143.757C96.5736 143.775 96.5736 143.793 96.5766 143.81C96.5766 143.81 96.5766 143.81 96.5766 143.842L96.2957 143.869C96.3478 143.683 96.4245 143.504 96.5236 143.339C96.5995 143.204 96.7029 143.088 96.8272 142.996C96.9514 142.905 97.0936 142.841 97.2444 142.809C97.3562 142.798 97.4679 142.83 97.5566 142.899C97.6453 142.968 97.7043 143.068 97.7214 143.18C97.7333 143.368 97.6968 143.556 97.6153 143.725Z" fill="#455A64"/>
<path d="M99.1683 143.588C99.1218 143.814 99.0308 144.029 98.9007 144.22C98.7706 144.411 98.604 144.574 98.4104 144.701C98.2302 144.817 98.156 144.573 98.3362 144.462C98.5894 144.296 98.7767 144.047 98.8662 143.757C98.8798 143.71 98.8905 143.662 98.898 143.614C98.9407 143.454 98.9407 143.286 98.898 143.127C98.8748 143.059 98.8301 143.001 98.7708 142.962H98.7443H98.7072C98.6621 142.95 98.6144 142.95 98.5694 142.962C98.4846 143.001 98.4102 143.059 98.3521 143.132C98.2802 143.216 98.2213 143.311 98.1772 143.413C98.1493 143.462 98.1245 143.514 98.103 143.566V143.598V143.651C98.103 143.651 98.103 143.651 98.103 143.688L97.8168 143.715C97.8682 143.529 97.9449 143.35 98.0447 143.185C98.1206 143.051 98.2241 142.934 98.3483 142.843C98.4725 142.751 98.6147 142.687 98.7655 142.655C98.8774 142.642 98.9898 142.673 99.0795 142.742C99.1692 142.81 99.2295 142.909 99.2478 143.021C99.2688 143.213 99.2415 143.408 99.1683 143.588Z" fill="#455A64"/>
<path d="M100.726 143.455C100.628 143.912 100.354 144.312 99.9633 144.568C99.7831 144.685 99.7089 144.441 99.8891 144.33C100.142 144.163 100.33 143.914 100.419 143.625C100.419 143.577 100.446 143.524 100.451 143.482C100.494 143.322 100.494 143.154 100.451 142.994C100.431 142.925 100.385 142.867 100.324 142.83H100.287C100.242 142.814 100.193 142.814 100.149 142.83C100.064 142.866 99.9898 142.923 99.9315 142.994C99.8614 143.082 99.8026 143.178 99.7566 143.28C99.7301 143.328 99.7089 143.381 99.6824 143.434V143.466C99.6783 143.483 99.6783 143.501 99.6824 143.519C99.6824 143.519 99.6824 143.519 99.6824 143.556H99.4015C99.4503 143.37 99.5253 143.191 99.6241 143.026C99.6983 142.89 99.8013 142.773 99.9258 142.681C100.05 142.589 100.193 142.526 100.345 142.496C100.457 142.482 100.57 142.513 100.66 142.581C100.75 142.649 100.81 142.75 100.827 142.862C100.846 143.065 100.811 143.269 100.726 143.455Z" fill="#455A64"/>
<path d="M102.29 143.323C102.192 143.778 101.917 144.176 101.527 144.43C101.347 144.552 101.272 144.308 101.453 144.192C101.704 144.027 101.892 143.779 101.983 143.492C101.997 143.443 102.01 143.394 102.02 143.344C102.062 143.186 102.062 143.019 102.02 142.862C102 142.792 101.957 142.732 101.898 142.692H101.76C101.712 142.688 101.665 142.697 101.622 142.718C101.537 142.753 101.462 142.81 101.405 142.883C101.335 142.969 101.276 143.063 101.23 143.164C101.23 143.211 101.182 143.264 101.156 143.317V143.354C101.153 143.372 101.153 143.39 101.156 143.407C101.156 143.407 101.156 143.407 101.156 143.439H100.875C100.925 143.253 101 143.075 101.097 142.909C101.174 142.775 101.278 142.659 101.402 142.568C101.526 142.477 101.668 142.412 101.818 142.379C101.931 142.368 102.043 142.401 102.133 142.469C102.222 142.538 102.282 142.639 102.301 142.75C102.345 142.939 102.341 143.136 102.29 143.323Z" fill="#455A64"/>
<path d="M103.832 143.19C103.732 143.645 103.458 144.043 103.069 144.298C102.889 144.414 102.82 144.171 102.995 144.059C103.25 143.895 103.437 143.645 103.525 143.354C103.54 143.308 103.553 143.26 103.562 143.211C103.605 143.052 103.605 142.883 103.562 142.724C103.541 142.657 103.498 142.599 103.44 142.559H103.414H103.35C103.305 142.547 103.257 142.547 103.212 142.559C103.127 142.598 103.053 142.656 102.995 142.729C102.925 142.815 102.866 142.909 102.82 143.01C102.793 143.058 102.772 143.111 102.746 143.164V143.201C102.744 143.217 102.744 143.233 102.746 143.248C102.744 143.261 102.744 143.273 102.746 143.286H102.465C102.514 143.098 102.59 142.92 102.693 142.756C102.767 142.62 102.87 142.502 102.994 142.411C103.119 142.319 103.262 142.256 103.414 142.226C103.525 142.213 103.637 142.244 103.725 142.313C103.814 142.381 103.873 142.481 103.891 142.591C103.923 142.793 103.903 142.999 103.832 143.19Z" fill="#455A64"/>
<path d="M105.385 143.052C105.287 143.509 105.013 143.909 104.622 144.165C104.442 144.282 104.373 144.038 104.553 143.927C104.805 143.759 104.992 143.51 105.083 143.222C105.083 143.174 105.11 143.121 105.115 143.079C105.158 142.919 105.158 142.751 105.115 142.591C105.093 142.523 105.048 142.465 104.988 142.427H104.945C104.901 142.412 104.852 142.412 104.807 142.427C104.725 142.464 104.652 142.52 104.595 142.591C104.522 142.676 104.463 142.773 104.421 142.877C104.391 142.926 104.366 142.977 104.346 143.031V143.063V143.116C104.344 143.128 104.344 143.141 104.346 143.153H104.065C104.119 142.967 104.195 142.789 104.293 142.623C104.368 142.488 104.471 142.37 104.595 142.278C104.72 142.187 104.863 142.124 105.014 142.093C105.125 142.081 105.237 142.112 105.326 142.18C105.415 142.248 105.474 142.348 105.491 142.459C105.508 142.662 105.472 142.867 105.385 143.052Z" fill="#455A64"/>
<path d="M106.938 142.92C106.842 143.375 106.57 143.773 106.18 144.027C106 144.149 105.926 143.906 106.106 143.794C106.355 143.624 106.542 143.376 106.636 143.089C106.649 143.041 106.66 142.991 106.668 142.941C106.711 142.783 106.711 142.617 106.668 142.459C106.644 142.39 106.6 142.331 106.541 142.289H106.482C106.433 142.285 106.384 142.295 106.339 142.316C106.256 142.351 106.183 142.408 106.127 142.48C106.055 142.564 105.996 142.659 105.952 142.761C105.922 142.809 105.897 142.861 105.878 142.914V142.952C105.876 142.969 105.876 142.987 105.878 143.005C105.878 143.005 105.878 143.005 105.878 143.036L105.597 143.063C105.649 142.877 105.726 142.699 105.825 142.533C105.901 142.399 106.004 142.282 106.129 142.191C106.253 142.099 106.395 142.035 106.546 142.003C106.658 141.992 106.769 142.025 106.858 142.094C106.947 142.163 107.006 142.263 107.023 142.374C107.039 142.56 107.01 142.747 106.938 142.92Z" fill="#455A64"/>
<path d="M108.491 142.787C108.395 143.242 108.123 143.641 107.733 143.895C107.553 144.012 107.479 143.768 107.659 143.657C107.911 143.489 108.098 143.24 108.189 142.952C108.203 142.905 108.213 142.857 108.221 142.809C108.263 142.649 108.263 142.481 108.221 142.321C108.198 142.254 108.153 142.196 108.094 142.157H108.056C108.011 142.144 107.964 142.144 107.919 142.157C107.834 142.195 107.759 142.253 107.701 142.326C107.629 142.411 107.571 142.505 107.526 142.607C107.499 142.657 107.474 142.708 107.452 142.761V142.798C107.449 142.815 107.449 142.833 107.452 142.851C107.452 142.851 107.452 142.851 107.452 142.883L107.166 142.909C107.217 142.723 107.294 142.545 107.394 142.379C107.47 142.245 107.573 142.128 107.698 142.037C107.822 141.946 107.964 141.882 108.115 141.849C108.226 141.837 108.338 141.868 108.427 141.936C108.515 142.004 108.575 142.104 108.592 142.215C108.609 142.411 108.574 142.609 108.491 142.787Z" fill="#455A64"/>
<path d="M110.049 142.65C109.951 143.107 109.677 143.506 109.286 143.763C109.106 143.879 109.032 143.635 109.212 143.524C109.465 143.358 109.652 143.109 109.742 142.819C109.755 142.772 109.766 142.724 109.774 142.676C109.816 142.516 109.816 142.348 109.774 142.188C109.753 142.12 109.708 142.061 109.646 142.024H109.609C109.565 142.009 109.516 142.009 109.472 142.024C109.388 142.063 109.314 142.119 109.254 142.188C109.184 142.276 109.125 142.372 109.079 142.475C109.079 142.522 109.032 142.575 109.005 142.628V142.66C109.001 142.678 109.001 142.696 109.005 142.713C109.005 142.713 109.005 142.74 109.005 142.75H108.724C108.772 142.563 108.847 142.385 108.947 142.22C109.021 142.085 109.124 141.967 109.249 141.875C109.373 141.784 109.516 141.721 109.668 141.69C109.78 141.677 109.893 141.707 109.983 141.775C110.073 141.844 110.133 141.944 110.15 142.056C110.169 142.259 110.134 142.464 110.049 142.65Z" fill="#455A64"/>
<path d="M111.602 142.517C111.504 142.972 111.23 143.371 110.839 143.625C110.659 143.747 110.584 143.503 110.765 143.391C111.016 143.223 111.203 142.975 111.295 142.687C111.295 142.639 111.321 142.586 111.332 142.544C111.375 142.384 111.375 142.216 111.332 142.056C111.312 141.985 111.267 141.925 111.205 141.886H111.178H111.141C111.093 141.882 111.046 141.891 111.003 141.913C110.918 141.948 110.843 142.004 110.786 142.077C110.717 142.164 110.658 142.258 110.611 142.358C110.611 142.406 110.563 142.459 110.537 142.512V142.549C110.534 142.566 110.534 142.584 110.537 142.602C110.537 142.602 110.537 142.602 110.537 142.634L110.256 142.66C110.306 142.474 110.381 142.296 110.478 142.13C110.555 141.996 110.659 141.88 110.783 141.789C110.907 141.697 111.049 141.633 111.199 141.6C111.312 141.589 111.424 141.621 111.514 141.69C111.603 141.759 111.663 141.86 111.682 141.971C111.699 142.157 111.672 142.344 111.602 142.517Z" fill="#455A64"/>
<path d="M111.581 148.766C112.599 150.933 115.169 153.631 115.37 155.401C115.437 155.835 115.361 156.279 115.155 156.667C114.948 157.055 114.623 157.365 114.226 157.553C114.226 157.553 115.985 158.444 115.906 160.076C115.863 160.919 114.485 161.592 114.485 161.592C114.485 161.592 115.863 162.366 115.699 163.812C115.572 164.968 114.21 165.471 114.21 165.471C114.21 165.471 115.185 166.828 114.676 167.962C113.648 170.263 103.668 170.215 102.147 166.531C101.437 164.814 103.875 164.941 103.875 164.941C103.875 164.941 100.424 163.881 100.382 161.83C100.34 159.779 103.493 160.155 103.493 160.155C103.493 160.155 100.154 159.095 100.313 156.975C100.488 154.749 103.578 155.672 103.578 155.672C103.578 155.672 101.368 154.156 101.877 152.55C102.709 149.9 106.896 153.26 109.09 152.751L110.32 149.142L111.581 148.766Z" fill="#D3766A"/>
<path d="M113.563 151.919C112.784 149.799 115.439 147.149 114.983 145.029C114.369 142.12 111.083 144.95 110.335 149.169V152.545L113.563 151.919Z" fill="#D3766A"/>
<path d="M114.003 165.583C114.035 165.583 114.045 165.625 114.003 165.63C110.591 166.456 107.009 166.225 103.732 164.968C103.626 164.925 103.652 164.74 103.774 164.761C107.126 165.53 110.572 165.807 114.003 165.583Z" fill="#263238"/>
<path d="M114.533 161.613C114.57 161.613 114.575 161.671 114.533 161.682C111.141 162.472 106.811 162.185 103.371 160.261C103.249 160.193 103.212 160.018 103.371 160.081C105.746 161.189 111.3 161.867 114.533 161.613Z" fill="#263238"/>
<path d="M103.387 155.46C106.758 157.177 110.341 157.643 114.088 157.58C114.141 157.58 114.136 157.649 114.088 157.659C112.265 158.189 109.848 157.967 108.025 157.659C106.303 157.389 104.682 156.673 103.324 155.582C103.276 155.534 103.318 155.423 103.387 155.46Z" fill="#263238"/>
<path d="M188.039 211.327C187.578 212.567 165.021 240.609 163.484 241.134C162.906 241.336 158.629 238.288 153.568 234.461C152.476 233.635 151.352 232.771 150.213 231.891C142.83 226.188 135.15 219.95 135.15 219.95L150.186 201.151L164.83 213.59L168.052 216.32C168.052 216.32 181.488 209.43 183.237 209.053C184.986 208.677 188.5 210.081 188.039 211.327Z" fill="#D3766A"/>
<path d="M188.039 211.327C187.578 212.567 165.021 240.609 163.484 241.134C162.774 241.378 156.594 236.831 150.234 231.891L164.83 213.59L168.052 216.32C168.052 216.32 181.488 209.43 183.237 209.053C184.986 208.677 188.5 210.081 188.039 211.327Z" fill="white"/>
<path d="M188.039 211.327C187.578 212.567 165.021 240.609 163.484 241.134C162.906 241.336 158.629 238.288 153.568 234.461L168.058 216.341C168.058 216.341 181.493 209.451 183.242 209.074C184.991 208.698 188.5 210.081 188.039 211.327Z" fill="url(#paint9_linear_202_4)"/>
<path d="M186.592 210.823C182.696 215.434 167.416 234.382 163.913 239.231C163.913 239.274 163.913 239.295 163.945 239.258C167.904 234.774 183.025 215.699 186.671 210.887C186.745 210.786 186.677 210.728 186.592 210.823Z" fill="#263238"/>
<path d="M180.783 210.065C180.352 210.574 180.031 211.166 179.839 211.804C179.648 212.443 179.59 213.114 179.67 213.775C179.808 214.975 180.404 216.074 181.334 216.844C181.361 216.844 181.403 216.812 181.377 216.786C180.576 215.877 180.091 214.732 179.996 213.525C179.9 212.317 180.199 211.11 180.847 210.087C180.846 210.08 180.843 210.073 180.838 210.068C180.834 210.062 180.828 210.058 180.821 210.056C180.815 210.054 180.808 210.053 180.801 210.055C180.794 210.057 180.788 210.06 180.783 210.065Z" fill="#263238"/>
<path d="M169.992 214.894C168.455 216.754 167.342 219.468 167.962 221.874C167.962 221.969 168.116 221.938 168.132 221.874C168.593 219.535 169.304 217.251 170.252 215.063C170.274 215.029 170.282 214.987 170.274 214.947C170.265 214.907 170.241 214.871 170.207 214.849C170.172 214.826 170.13 214.818 170.09 214.827C170.05 214.835 170.015 214.859 169.992 214.894Z" fill="#263238"/>
<path d="M171.72 213.897C170.183 215.758 169.07 218.471 169.69 220.878C169.69 220.973 169.844 220.936 169.86 220.878C170.321 218.538 171.032 216.255 171.98 214.067C172.002 214.033 172.01 213.991 172.002 213.95C171.993 213.91 171.969 213.875 171.935 213.852C171.9 213.83 171.858 213.822 171.818 213.83C171.778 213.839 171.742 213.863 171.72 213.897Z" fill="#263238"/>
<path d="M173.464 212.901C171.921 214.761 170.814 217.475 171.428 219.881C171.428 219.977 171.582 219.939 171.598 219.881C172.06 217.544 172.771 215.262 173.718 213.076C173.73 213.059 173.738 213.04 173.742 213.021C173.746 213.001 173.746 212.98 173.743 212.96C173.739 212.94 173.731 212.921 173.72 212.904C173.709 212.887 173.695 212.873 173.678 212.861C173.662 212.85 173.643 212.842 173.623 212.837C173.603 212.833 173.583 212.833 173.563 212.837C173.543 212.84 173.524 212.848 173.507 212.859C173.49 212.87 173.475 212.884 173.464 212.901Z" fill="#263238"/>
<path d="M175.197 211.905C173.655 213.765 172.547 216.479 173.162 218.885C173.162 218.98 173.321 218.943 173.337 218.885C173.798 216.547 174.509 214.266 175.457 212.08C175.48 212.045 175.488 212.003 175.48 211.962C175.472 211.921 175.449 211.885 175.414 211.862C175.38 211.839 175.337 211.83 175.297 211.838C175.256 211.846 175.22 211.87 175.197 211.905Z" fill="#263238"/>
<path d="M160.415 234.446C158.719 236.566 162.005 239.216 163.701 237.096C165.397 234.976 162.106 232.326 160.415 234.446Z" fill="white"/>
<path d="M166.605 208.82C165.053 209.138 164.856 210.94 165.206 212.207C165.841 214.336 167.026 216.261 168.641 217.788C168.647 217.795 168.654 217.802 168.663 217.806C168.672 217.81 168.681 217.812 168.691 217.812C168.701 217.812 168.71 217.81 168.719 217.806C168.728 217.802 168.735 217.795 168.741 217.788C168.783 217.809 168.829 217.821 168.875 217.821C168.922 217.821 168.968 217.81 169.01 217.789C169.051 217.768 169.087 217.737 169.114 217.699C169.141 217.661 169.159 217.617 169.165 217.57C169.319 215.487 169.738 213.277 169.245 211.21C168.959 209.981 168.079 208.523 166.605 208.82ZM168.725 214.348C168.672 215.376 168.572 216.394 168.561 217.422C167.861 216.354 167.216 215.252 166.627 214.12C166.35 213.566 166.111 212.994 165.911 212.408C165.62 211.502 165.535 208.391 167.729 209.848C168.969 210.654 168.81 213.124 168.752 214.348H168.725Z" fill="#263238"/>
<path d="M165.577 223.019C167.167 221.588 168.042 219.521 169.086 217.719C169.105 217.677 169.115 217.631 169.113 217.585C169.112 217.539 169.1 217.494 169.077 217.454C169.055 217.414 169.024 217.379 168.986 217.353C168.947 217.327 168.904 217.311 168.858 217.305C168.858 217.263 168.831 217.226 168.784 217.236C166.589 217.591 164.527 218.518 162.805 219.924C161.82 220.761 160.956 222.377 162.069 223.512C163.182 224.646 164.66 223.861 165.577 223.019ZM163.595 223.294C160.945 223.268 162.774 220.745 163.526 220.157C164.02 219.785 164.539 219.446 165.079 219.144C166.202 218.537 167.355 217.986 168.535 217.496C167.968 218.355 167.475 219.25 166.945 220.146C166.303 221.18 165.047 223.31 163.595 223.294Z" fill="#263238"/>
<path d="M164.051 210.776L148.4 231.886L95.612 195.247L90.5187 191.717C90.5187 191.717 89.0771 192.687 86.9094 193.885C83.8937 195.549 79.4894 197.658 75.5674 198.236C69.0166 199.206 59.1374 199.1 53.6095 191.717C48.9561 185.495 50.4295 177.38 50.4295 177.38L57.6269 174.291C57.6269 174.291 74.6611 160.102 85.7169 159.673C90.4021 159.488 97.2232 163.039 103.541 166.749C109.858 170.459 164.051 210.776 164.051 210.776Z" fill="#37474F"/>
<path d="M90.5187 191.717C90.5187 191.717 89.0771 192.687 86.9094 193.885C83.0722 189.295 74.9473 180.953 74.7194 180.635L90.5187 191.717Z" fill="#263238"/>
<path d="M63.8597 169.542C62.8421 170.247 61.8563 170.999 60.8493 171.725C59.8423 172.451 58.8459 173.109 57.9025 173.888C56.9591 174.667 56.0422 175.525 55.1465 176.379C54.7119 176.792 54.2773 177.206 53.8586 177.635C53.4167 178.046 53.0074 178.491 52.6343 178.965C52.6025 179.008 52.6661 179.061 52.7085 179.034C53.1859 178.694 53.6408 178.324 54.0706 177.926L55.4963 176.713C56.4132 175.934 57.346 175.181 58.2576 174.397C59.1692 173.612 60.0066 172.775 60.9076 171.99C61.8086 171.206 62.8845 170.369 63.8862 169.574C63.8968 169.558 63.8809 169.526 63.8597 169.542Z" fill="#263238"/>
<path d="M160.378 210.018C159.36 211.115 158.422 212.292 157.474 213.447C156.525 214.602 155.582 215.779 154.643 216.95C152.767 219.293 150.875 221.625 149.031 223.994C148.013 225.298 147.017 226.607 146.073 227.964C146.031 228.022 146.126 228.091 146.179 228.038C148.193 225.817 150.043 223.448 151.914 221.111C153.785 218.773 155.656 216.41 157.5 214.035C158.507 212.737 159.546 211.444 160.468 210.087C160.473 210.075 160.475 210.061 160.471 210.049C160.468 210.036 160.461 210.025 160.45 210.017C160.44 210.009 160.427 210.005 160.414 210.005C160.401 210.005 160.388 210.01 160.378 210.018Z" fill="#263238"/>
<path d="M120.31 212.318C117.66 210.251 111.708 206.207 108.984 204.267C106.26 202.328 103.567 200.398 100.817 198.522C100.029 197.989 99.2355 197.459 98.4369 196.932C97.6419 196.402 96.8151 195.914 96.036 195.369C95.9936 195.337 95.9512 195.411 95.9936 195.443C96.7091 195.973 97.3822 196.529 98.1136 197.059C98.845 197.589 99.4492 198.082 100.122 198.58C101.442 199.556 102.772 200.515 104.108 201.479C106.8 203.425 109.519 205.354 112.265 207.235C113.823 208.295 118.625 211.475 120.215 212.482C120.273 212.53 120.39 212.392 120.31 212.318Z" fill="#263238"/>
<path d="M136.862 190.508C134.434 188.5 128.912 184.631 126.357 182.77C123.803 180.91 121.227 178.992 118.64 177.121L110.95 171.566C108.47 169.77 105.995 167.941 103.371 166.351C101.935 165.482 100.461 164.676 98.9457 163.95C97.4796 163.197 95.951 162.573 94.3771 162.085C94.3681 162.084 94.3591 162.086 94.3514 162.09C94.3437 162.095 94.3377 162.102 94.3341 162.11C94.3306 162.118 94.3298 162.128 94.3318 162.136C94.3338 162.145 94.3385 162.153 94.3453 162.159C95.6385 162.885 96.9953 163.489 98.3044 164.189C99.6135 164.888 100.875 165.604 102.131 166.362C104.733 167.952 107.192 169.738 109.662 171.513C114.798 175.223 119.918 178.933 125.085 182.548C127.979 184.588 133.745 188.797 136.745 190.667C136.766 190.677 136.79 190.679 136.812 190.673C136.835 190.667 136.855 190.654 136.868 190.635C136.882 190.617 136.889 190.594 136.888 190.571C136.886 190.548 136.877 190.526 136.862 190.508Z" fill="#263238"/>
<defs>
<linearGradient id="paint0_linear_202_4" x1="83.6605" y1="46.8564" x2="125.39" y2="111.921" gradientUnits="userSpaceOnUse">
<stop stop-color="#01F0FF"/>
<stop offset="1" stop-color="#4441ED"/>
</linearGradient>
<linearGradient id="paint1_linear_202_4" x1="163.372" y1="153.427" x2="202.13" y2="216.82" gradientUnits="userSpaceOnUse">
<stop stop-color="#01F0FF"/>
<stop offset="1" stop-color="#4441ED"/>
</linearGradient>
<linearGradient id="paint2_linear_202_4" x1="200.282" y1="128.662" x2="203.1" y2="146.176" gradientUnits="userSpaceOnUse">
<stop stop-color="#01F0FF"/>
<stop offset="1" stop-color="#4441ED"/>
</linearGradient>
<linearGradient id="paint3_linear_202_4" x1="85.2675" y1="205.519" x2="116.905" y2="251.641" gradientUnits="userSpaceOnUse">
<stop stop-color="#01F0FF"/>
<stop offset="1" stop-color="#4441ED"/>
</linearGradient>
<linearGradient id="paint4_linear_202_4" x1="67.494" y1="132.669" x2="95.6526" y2="183.183" gradientUnits="userSpaceOnUse">
<stop stop-color="#01F0FF"/>
<stop offset="1" stop-color="#4441ED"/>
</linearGradient>
<linearGradient id="paint5_linear_202_4" x1="50.4188" y1="131.586" x2="91.1391" y2="179.831" gradientUnits="userSpaceOnUse">
<stop stop-color="#01F0FF"/>
<stop offset="1" stop-color="#4441ED"/>
</linearGradient>
<linearGradient id="paint6_linear_202_4" x1="71.3224" y1="131.964" x2="81.9413" y2="128.237" gradientUnits="userSpaceOnUse">
<stop stop-color="#01F0FF"/>
<stop offset="1" stop-color="#4441ED"/>
</linearGradient>
<linearGradient id="paint7_linear_202_4" x1="46.6632" y1="132.634" x2="86.3371" y2="176.692" gradientUnits="userSpaceOnUse">
<stop stop-color="#01F0FF"/>
<stop offset="1" stop-color="#4441ED"/>
</linearGradient>
<linearGradient id="paint8_linear_202_4" x1="85.33" y1="139.888" x2="110.77" y2="178.033" gradientUnits="userSpaceOnUse">
<stop stop-color="#01F0FF"/>
<stop offset="1" stop-color="#4441ED"/>
</linearGradient>
<linearGradient id="paint9_linear_202_4" x1="153.568" y1="206.059" x2="181.433" y2="252.705" gradientUnits="userSpaceOnUse">
<stop stop-color="#01F0FF"/>
<stop offset="1" stop-color="#4441ED"/>
</linearGradient>
</defs>
</svg>
