<svg width="639" height="571" viewBox="0 0 639 571" fill="none" xmlns="http://www.w3.org/2000/svg">
<g clip-path="url(#clip0_136_2984)">
<path d="M58.1199 430.965C56.6586 430.965 55.4064 430.464 54.7715 429.627C54.4819 429.247 53.672 428.849 52.5528 428.849C52.4304 428.849 52.3064 428.855 52.1819 428.864L50.4606 429.005C50.2939 429.02 50.1294 429.027 49.9663 429.027C48.5428 429.027 47.2642 428.523 46.6304 427.715C46.257 427.237 46.1252 426.675 46.2606 426.127C46.2794 426.049 46.2846 425.94 46.158 425.777C45.8715 425.412 45.06 425.017 43.958 425.017C43.8335 425.017 43.7095 425.023 43.5824 425.033C43.4132 425.047 43.248 425.055 43.084 425.055C41.6616 425.055 40.3851 424.551 39.7496 423.741C39.3772 423.267 39.2466 422.703 39.3819 422.156C39.3996 422.079 39.4059 421.968 39.2783 421.804C38.9919 421.44 38.1819 421.047 37.0819 421.047C36.9575 421.047 36.8314 421.052 36.7032 421.063C36.5366 421.076 36.3715 421.084 36.209 421.084C34.7856 421.084 33.5054 420.58 32.872 419.769C32.4975 419.293 32.3668 418.731 32.5023 418.183C32.5204 418.105 32.5262 417.996 32.3991 417.833C32.1132 417.468 31.3032 417.075 30.2023 417.075C30.0778 417.075 29.9507 417.08 29.8242 417.091C29.6559 417.104 29.4903 417.111 29.3272 417.111C27.9048 417.111 26.6262 416.607 25.9914 415.799C25.619 415.323 25.4871 414.759 25.6226 414.212C25.6408 414.135 25.6471 414.025 25.5184 413.861C25.2319 413.496 24.422 413.101 23.3199 413.101C23.1955 413.101 23.071 413.108 22.9444 413.117C22.7762 413.132 22.61 413.139 22.4475 413.139C21.0236 413.139 19.7471 412.636 19.1127 411.827C18.7392 411.351 18.6086 410.788 18.7439 410.24L18.9882 409.247C19.0611 408.947 18.598 408.485 17.7215 408.263C15.8756 407.797 15.2835 406.711 15.3356 405.847C15.409 404.653 16.596 403.737 18.3595 403.516L19.0808 403.425C19.9699 403.313 20.5174 402.976 20.7304 402.697C20.859 402.531 20.845 402.424 20.8387 402.387L20.6611 401.039C20.5919 400.505 20.7616 399.988 21.1507 399.543C21.8054 398.796 23.0532 398.332 24.4064 398.332L24.6747 398.337L26.319 398.407C27.3824 398.407 28.1752 398.044 28.4908 397.685C28.6554 397.497 28.6382 397.373 28.633 397.332L28.5231 396.5C28.4532 395.967 28.6226 395.448 29.0142 395.003C29.669 394.256 30.9147 393.792 32.2679 393.792L32.5362 393.797L34.183 393.867C35.246 393.867 36.0387 393.505 36.3518 393.148C36.5174 392.96 36.5002 392.835 36.4944 392.793L36.3846 391.96C36.3152 391.427 36.4846 390.911 36.8742 390.465C37.5304 389.717 38.7762 389.253 40.1294 389.253L40.3975 389.26L42.0414 389.328C43.1059 389.328 43.8986 388.965 44.2132 388.608C44.3788 388.42 44.3616 388.295 44.3559 388.255L44.2455 387.423C44.1767 386.888 44.346 386.371 44.7366 385.927C45.3914 385.179 46.6387 384.713 47.9923 384.713L48.2606 384.72L49.9059 384.789C50.9695 384.789 51.7616 384.428 52.0752 384.069C52.2398 383.881 52.2231 383.757 52.2179 383.716L52.109 382.88C52.0382 382.349 52.2075 381.833 52.5975 381.388C53.2518 380.64 54.4991 380.176 55.8538 380.176L56.122 380.181L58.6638 380.289C59.8642 380.289 60.7862 379.813 60.9528 379.373L61.1116 378.957C61.6252 377.592 63.4054 377.108 64.7726 377.108C66.2324 377.108 67.4846 377.607 68.1215 378.444C68.409 378.827 69.2204 379.223 70.3408 379.223C70.4638 379.223 70.5862 379.219 70.709 379.209L72.4304 379.068C72.5986 379.053 72.7652 379.047 72.9272 379.047C74.3496 379.047 75.6272 379.549 76.2606 380.359C76.6346 380.835 76.7658 381.397 76.6304 381.945C76.6122 382.023 76.6064 382.133 76.7335 382.296C77.0199 382.66 77.8299 383.055 78.9319 383.055C79.0564 383.055 79.1819 383.048 79.31 383.039C79.4767 383.025 79.6414 383.017 79.8038 383.017C81.2283 383.017 82.5065 383.521 83.1403 384.332C83.5142 384.807 83.6455 385.371 83.5095 385.917C83.4914 385.995 83.4862 386.104 83.6133 386.268C83.8991 386.633 84.7106 387.027 85.8142 387.027C85.9382 387.027 86.0622 387.021 86.1898 387.012C86.357 386.997 86.5226 386.989 86.6866 386.989C88.1086 386.989 89.3856 387.493 90.0204 388.303C90.3934 388.779 90.5247 389.343 90.3893 389.888C90.371 389.967 90.3647 390.076 90.4934 390.24C90.7804 390.605 91.5903 390.999 92.6923 390.999C92.8163 390.999 92.9403 390.993 93.0674 390.984C93.2366 390.969 93.4032 390.963 93.5652 390.963C94.9876 390.963 96.2652 391.465 96.8986 392.275C97.2726 392.751 97.4038 393.313 97.2685 393.861C97.2502 393.939 97.2444 394.048 97.3715 394.211C97.658 394.576 98.4679 394.971 99.569 394.971C99.6928 394.971 99.8199 394.964 99.9471 394.955C100.114 394.94 100.278 394.933 100.44 394.933C101.866 394.933 103.144 395.437 103.78 396.247C104.152 396.723 104.284 397.287 104.148 397.832L103.904 398.827C103.83 399.127 104.293 399.589 105.17 399.811C107.015 400.275 107.608 401.361 107.555 402.225C107.482 403.42 106.296 404.336 104.531 404.557L103.812 404.648C102.923 404.76 102.377 405.097 102.161 405.375C102.032 405.541 102.047 405.649 102.052 405.687L102.23 407.035C102.299 407.567 102.13 408.085 101.739 408.532C101.085 409.277 99.8382 409.741 98.4846 409.741L98.2163 409.736L96.5699 409.667C95.5075 409.667 94.7158 410.028 94.4007 410.387C94.2362 410.575 94.2529 410.699 94.2581 410.74L94.369 411.573C94.4376 412.107 94.2685 412.623 93.8789 413.069C93.2242 413.816 91.9767 414.28 90.6231 414.28L90.3548 414.275L88.7111 414.205C87.6475 414.205 86.8538 414.568 86.5393 414.925C86.3747 415.115 86.3914 415.239 86.3966 415.28L86.507 416.112C86.5757 416.645 86.4065 417.163 86.0158 417.609C85.3611 418.356 84.1138 418.82 82.7622 418.82L82.4939 418.813L80.8466 418.745C79.7841 418.745 78.9914 419.107 78.6783 419.463C78.5127 419.652 78.5299 419.777 78.5356 419.817L78.6455 420.651C78.7142 421.185 78.5455 421.701 78.1559 422.147C77.4997 422.895 76.2532 423.359 74.9002 423.359L74.6324 423.352L72.9876 423.284C71.9242 423.284 71.1314 423.647 70.8168 424.003C70.6512 424.192 70.6684 424.317 70.6742 424.357L70.7841 425.189C70.8533 425.724 70.684 426.241 70.2923 426.687C69.6382 427.433 68.3908 427.899 67.0387 427.899L66.7704 427.892L64.2335 427.784C63.0299 427.784 62.1048 428.26 61.9392 428.7L61.7819 429.115C61.2674 430.48 59.4876 430.964 58.1199 430.965Z" fill="#DADBD8"/>
<path d="M111.216 462.85C109.754 462.85 108.502 462.348 107.866 461.512C107.578 461.131 106.768 460.733 105.649 460.733C105.526 460.733 105.402 460.738 105.278 460.748L103.556 460.89C103.39 460.903 103.225 460.911 103.063 460.911C101.639 460.911 100.36 460.407 99.7247 459.596C99.3528 459.121 99.2215 458.559 99.3569 458.012C99.3752 457.935 99.3813 457.824 99.2523 457.66C98.9657 457.295 98.1559 456.902 97.0537 456.902C96.9299 456.902 96.8059 456.907 96.6788 456.917C96.5095 456.931 96.3428 456.938 96.1808 456.938C94.758 456.938 93.4808 456.436 92.8475 455.626C92.4736 455.151 92.3419 454.587 92.4772 454.04C92.496 453.962 92.5017 453.852 92.3747 453.688C92.0881 453.324 91.2783 452.931 90.1772 452.931C90.0528 452.931 89.9272 452.936 89.7991 452.945C89.6299 452.96 89.4663 452.967 89.3037 452.967C87.8799 452.967 86.6012 452.463 85.9663 451.653C85.5939 451.177 85.4627 450.615 85.598 450.068C85.6168 449.991 85.622 449.88 85.4939 449.717C85.2075 449.352 84.3975 448.957 83.2955 448.957C83.1709 448.957 83.0465 448.964 82.9195 448.974C82.7501 448.987 82.584 448.995 82.4215 448.995C80.9991 448.995 79.7225 448.492 79.0887 447.681C78.7141 447.207 78.5835 446.644 78.7189 446.096C78.7371 446.019 78.7428 445.908 78.6152 445.744C78.3288 445.38 77.5189 444.987 76.4189 444.987C76.2944 444.987 76.1689 444.992 76.0408 445.003C75.8741 445.016 75.7085 445.024 75.5465 445.024C74.1215 445.024 72.8428 444.52 72.208 443.709C71.8351 443.233 71.7037 442.672 71.8397 442.126L72.0835 441.131C72.1575 440.829 71.6944 440.368 70.8179 440.147C68.972 439.681 68.3793 438.595 68.4313 437.731C68.5048 436.537 69.6919 435.621 71.4553 435.4L72.1756 435.309C73.0641 435.197 73.6105 434.86 73.8261 434.583C73.9548 434.416 73.9403 434.308 73.9351 434.271L73.7575 432.923C73.6876 432.389 73.8575 431.872 74.248 431.427C74.9032 430.679 76.1491 430.215 77.5023 430.215L77.7704 430.22L79.4173 430.291C80.4799 430.291 81.2715 429.929 81.5851 429.569C81.7517 429.383 81.7345 429.257 81.7288 429.216L81.6189 428.383C81.5496 427.849 81.7189 427.333 82.1085 426.888C82.7632 426.141 84.0105 425.676 85.3641 425.676L85.6319 425.683L87.2788 425.751C88.3413 425.751 89.1345 425.389 89.4475 425.032C89.6127 424.843 89.596 424.719 89.5903 424.677L89.4799 423.845C89.4111 423.312 89.5804 422.793 89.9715 422.348C90.6261 421.601 91.8731 421.137 93.2256 421.137L93.4939 421.143L95.1403 421.212C96.2028 421.212 96.996 420.851 97.3095 420.493C97.4741 420.304 97.4575 420.181 97.4523 420.14L97.3423 419.305C97.2725 418.772 97.4419 418.256 97.8313 417.811C98.4881 417.063 99.7329 416.599 101.087 416.599L101.355 416.604L103.002 416.672C104.065 416.672 104.858 416.311 105.171 415.955C105.336 415.765 105.319 415.641 105.314 415.6L105.203 414.767C105.135 414.235 105.304 413.716 105.694 413.271C106.349 412.524 107.597 412.059 108.95 412.059L109.218 412.065L111.753 412.173C112.957 412.173 113.882 411.699 114.049 411.257L114.207 410.84C114.721 409.477 116.501 408.991 117.867 408.991C119.329 408.991 120.58 409.492 121.217 410.329C121.505 410.709 122.315 411.108 123.434 411.108C123.557 411.108 123.68 411.103 123.805 411.093L125.527 410.952C125.693 410.937 125.859 410.931 126.02 410.931C127.444 410.931 128.723 411.433 129.357 412.244C129.731 412.72 129.862 413.283 129.726 413.828C129.708 413.907 129.702 414.016 129.83 414.18C130.117 414.545 130.927 414.939 132.031 414.939C132.154 414.939 132.279 414.933 132.406 414.924C132.574 414.909 132.74 414.903 132.903 414.903C134.325 414.903 135.603 415.405 136.236 416.215C136.609 416.691 136.741 417.253 136.605 417.801C136.587 417.879 136.581 417.988 136.708 418.152C136.995 418.516 137.805 418.911 138.905 418.911C139.031 418.911 139.156 418.904 139.284 418.895C139.451 418.88 139.616 418.873 139.777 418.873C141.201 418.873 142.481 419.377 143.116 420.187C143.489 420.663 143.62 421.227 143.484 421.773C143.467 421.851 143.461 421.96 143.588 422.124C143.875 422.489 144.685 422.883 145.788 422.883C145.912 422.883 146.036 422.877 146.163 422.868C146.331 422.853 146.497 422.845 146.66 422.845C148.084 422.845 149.361 423.348 149.995 424.159C150.369 424.633 150.5 425.197 150.364 425.744C150.345 425.821 150.34 425.932 150.467 426.096C150.753 426.46 151.564 426.853 152.664 426.853C152.788 426.853 152.915 426.848 153.043 426.839C153.209 426.824 153.375 426.817 153.536 426.817C154.96 426.817 156.24 427.32 156.873 428.131C157.248 428.607 157.379 429.169 157.244 429.717L157 430.711C156.925 431.011 157.389 431.472 158.265 431.693C160.111 432.16 160.704 433.247 160.651 434.109C160.579 435.304 159.392 436.22 157.627 436.441L156.908 436.532C156.019 436.643 155.473 436.98 155.257 437.259C155.128 437.425 155.143 437.535 155.148 437.571L155.325 438.919C155.395 439.452 155.225 439.969 154.836 440.415C154.181 441.162 152.933 441.626 151.581 441.626L151.313 441.62L149.665 441.551C148.603 441.551 147.812 441.912 147.499 442.269C147.332 442.457 147.348 442.584 147.355 442.626L147.464 443.457C147.533 443.991 147.364 444.508 146.975 444.953C146.319 445.7 145.069 446.165 143.716 446.165L143.452 446.16L141.804 446.091C140.741 446.091 139.949 446.452 139.635 446.809C139.471 446.997 139.487 447.123 139.493 447.163L139.603 447.997C139.672 448.531 139.503 449.047 139.113 449.491C138.457 450.239 137.211 450.704 135.857 450.704L135.589 450.697L133.943 450.628C132.88 450.628 132.089 450.99 131.775 451.347C131.609 451.536 131.626 451.662 131.631 451.703L131.741 452.536C131.811 453.069 131.641 453.586 131.25 454.031C130.595 454.779 129.348 455.243 127.997 455.243L127.728 455.238L126.081 455.168C125.018 455.168 124.226 455.529 123.913 455.887C123.747 456.076 123.764 456.2 123.77 456.241L123.88 457.075C123.949 457.608 123.779 458.124 123.39 458.569C122.734 459.317 121.487 459.781 120.133 459.781L119.865 459.776L117.329 459.667C116.125 459.667 115.202 460.143 115.035 460.583L114.877 461.002C114.362 462.364 112.582 462.85 111.216 462.85Z" fill="#DADBD8"/>
<path d="M560.634 297.719C585.858 312.281 585.858 335.893 560.634 350.456C535.41 365.019 494.512 365.019 469.288 350.456C444.064 335.893 444.066 312.281 469.29 297.719C494.514 283.155 535.41 283.155 560.634 297.719Z" fill="#DADBD8"/>
<path d="M547.215 285.152C547.215 285.152 545.274 269.088 550.167 255.099C555.06 241.109 563.948 230.989 573.736 227.828C583.524 224.668 593.762 231.929 584.588 240.769C575.415 249.609 557.982 260.551 554.863 286.197L547.215 285.152Z" fill="#857CF4"/>
<path d="M554.863 286.197L547.215 285.152C547.215 285.152 546.835 282.008 546.835 277.291C546.835 271.345 547.439 262.9 550.167 255.099C555.06 241.109 563.948 230.989 573.736 227.828C575.33 227.313 576.938 227.075 578.47 227.075C583.76 227.075 588.17 229.916 588.167 234.025C588.164 236.032 587.11 238.34 584.588 240.769C575.415 249.609 557.982 260.551 554.863 286.197Z" fill="#49BA7C"/>
<path d="M549.173 280.395L549.06 280.39C548.76 280.344 548.556 280.064 548.603 279.766C552.963 251.338 570.428 235.747 579.055 231.475C579.324 231.339 579.654 231.452 579.788 231.723C579.922 231.994 579.812 232.322 579.54 232.456C571.091 236.64 553.978 251.95 549.686 279.931C549.644 280.192 549.425 280.382 549.173 280.395Z" fill="white"/>
<path d="M597.292 263.851C596.92 265.979 595.078 267.497 593.324 268.765C591.583 270.025 589.672 271.401 589.072 273.475C587.864 277.66 592.623 281.94 591.236 286.069C590.654 287.8 589.075 289.029 587.408 289.777C586.026 290.409 584.548 290.775 583.108 291.265C582.398 291.425 581.684 291.548 580.978 291.623C578.888 291.831 576.675 292.283 575.084 293.775C572.584 296.132 572.603 300.028 571.543 303.299C570.268 307.216 567.078 310.368 563.276 311.883C560.087 313.14 554.959 313.631 553.744 312.384C552.819 311.436 553.92 307.612 553.642 306.317C552.926 302.999 552.528 299.612 552.448 296.219C552.41 294.565 552.38 293.22 551.97 291.613C551.538 289.932 551.118 288.247 550.708 286.559C550.267 284.732 549.483 283.405 549.683 281.407C549.872 279.5 550.6 277.66 551.34 275.911C552.078 274.172 552.828 272.44 553.595 270.715C554.5 268.68 555.439 266.632 556.816 264.881C559.207 261.845 562.902 259.869 566.755 259.567C569.948 259.316 573.378 260.293 576.503 259.36C579.542 258.453 582.35 256.88 585.543 256.317C588.883 255.728 592.579 256.287 595.152 258.639C596.599 259.96 597.63 261.921 597.292 263.851Z" fill="#27975A"/>
<path d="M554.419 303.532L554.378 303.534C554.111 303.528 553.896 303.307 553.901 303.039C554.404 272.476 583.571 260.816 590.763 259.567C591.024 259.524 591.277 259.699 591.325 259.963C591.371 260.227 591.195 260.479 590.93 260.526C583.895 261.747 555.367 273.154 554.872 303.056C554.868 303.311 554.668 303.516 554.419 303.532Z" fill="white"/>
<path d="M584.355 280.656L584.072 280.586C583.977 280.528 574.385 274.852 562.081 279.914C561.832 280.012 561.547 279.898 561.445 279.65C561.344 279.4 561.463 279.116 561.709 279.015C574.491 273.762 584.477 279.695 584.577 279.756C584.807 279.895 584.879 280.194 584.74 280.424C584.653 280.564 584.508 280.647 584.355 280.656Z" fill="white"/>
<path d="M106.148 320.736C106.279 309.821 98.6579 287.123 87.5031 272.817C76.3495 258.511 58.6694 247.935 45.9698 252.111C34.1413 255.999 35.2313 271.467 49.4006 281.88C63.5698 292.292 84.8985 305.415 90.9703 323.192L103.897 345.071L106.148 320.736Z" fill="#96DE5E"/>
<path d="M106.774 335.679C106.427 335.647 106.129 335.387 106.064 335.028C99.2038 297.687 69.4314 267.045 51.4742 260.139C51.0632 259.98 50.8575 259.517 51.0158 259.108C51.172 258.699 51.6252 258.484 52.0466 258.649C70.3455 265.688 100.668 296.833 107.632 334.74C107.712 335.173 107.425 335.588 106.992 335.668L106.774 335.679Z" fill="white"/>
<path d="M100.932 359.458C99.2525 353.302 91.881 343.088 79.8634 334.58C66.5675 325.17 49.653 320.711 45.8279 313.464C41.2337 304.759 48.6227 296.675 62.3727 298.548C76.1238 300.422 100.11 319.502 103.641 347.836L100.932 359.458Z" fill="#33B758"/>
<path d="M103.674 353.052C103.372 353.024 103.099 352.823 102.994 352.516C91.953 320.464 67.7383 308.971 56.4774 307.371C56.042 307.31 55.7388 306.904 55.7998 306.47C55.8618 306.032 56.2487 305.728 56.7014 305.791C69.1534 307.56 93.2321 319.282 104.502 351.998C104.645 352.414 104.423 352.868 104.007 353.012L103.674 353.052Z" fill="white"/>
<path d="M99.2441 194.046L320.046 66.5655L328.88 71.6669C331.166 72.9855 333.034 76.2229 333.034 78.8602V241.742C333.034 244.379 331.166 247.618 328.88 248.936L116.387 371.619C114.103 372.938 110.364 372.938 108.08 371.619L103.398 368.916C101.114 367.598 99.2452 364.36 99.2452 361.722L99.2441 194.046Z" fill="#857CF4"/>
<path d="M118.724 370.27L158.371 347.376V347.38L118.724 370.27ZM114.407 202.803L110.189 200.367L111 200.834L114.409 202.803C114.408 202.803 114.408 202.803 114.407 202.803ZM114.433 202.794C114.642 202.7 114.865 202.636 115.088 202.588C115.323 202.547 115.565 202.526 115.815 202.526C115.905 202.526 115.995 202.528 116.086 202.534C116.006 202.53 115.926 202.527 115.848 202.527C115.338 202.527 114.862 202.62 114.433 202.794ZM118.98 201.298L117.882 200.895L105.918 194.092L118.98 186.55V201.298ZM313.984 95.6697V73.9577L320.112 70.4204L328.008 74.9724C327.82 75.0911 327.642 75.2231 327.478 75.3697C327.474 75.3724 327.471 75.3751 327.468 75.3778C327.467 75.3791 327.467 75.3791 327.467 75.3791C327.294 75.5338 327.13 75.7098 326.982 75.9164L313.984 95.6697Z" fill="#6A5EDE"/>
<path d="M318.827 52.2467L319.73 51.7547L316.299 49.7613V49.764C316.006 49.5933 315.7 49.444 315.39 49.3293L218.214 13.3214C215.642 12.368 212.3 13.4307 210.751 15.6934L102.049 174.437C100.5 176.7 99.2441 180.757 99.2441 183.5C99.2441 188.037 99.2441 194.043 99.2441 194.043L102.613 196L320.046 66.5653V56.0213C320.046 54.7373 319.576 53.4054 318.827 52.2467Z" fill="#857CF4"/>
<path d="M103.381 180.92L100.019 178.975C100.266 178.147 100.565 177.336 100.896 176.575L100.929 176.508C101.078 176.177 101.227 175.863 101.392 175.548L101.475 175.399C101.658 175.051 101.856 174.72 102.054 174.439L118.979 149.721V156.585L105.415 176.392C105.271 176.607 105.128 176.836 104.989 177.079C104.36 178.168 103.8 179.528 103.381 180.92ZM159.531 90.5013L210.75 15.7012C210.867 15.5239 210.994 15.3733 211.128 15.2213C211.184 15.16 211.24 15.0986 211.298 15.0386C211.286 15.0506 211.274 15.0626 211.262 15.0759C211.272 15.0639 211.284 15.0506 211.295 15.0386C211.308 15.0266 211.322 15.0133 211.334 14.9999C211.322 15.0133 211.31 15.0253 211.298 15.0386C211.334 15.0026 211.368 14.9666 211.404 14.932C211.472 14.8666 211.54 14.8026 211.61 14.7399C211.698 14.6613 211.787 14.5853 211.878 14.5106L215.234 16.452C214.806 16.8 214.427 17.2013 214.12 17.6493L167.311 86.0093L159.531 90.5013ZM211.7 14.66C211.758 14.608 211.816 14.5586 211.875 14.5093L211.878 14.5106C211.818 14.56 211.758 14.6093 211.7 14.66Z" fill="#574EC5"/>
<path d="M316.066 49.6348C315.846 49.5174 315.619 49.4148 315.39 49.3294L313.984 48.8081V48.8028L315.388 49.3228C315.62 49.4081 315.844 49.5121 316.066 49.6348ZM263.895 30.2481L218.214 13.3215C217.716 13.1361 217.19 13.0281 216.652 12.9881C217.188 13.0268 217.715 13.1334 218.215 13.3174L263.9 30.2454L263.895 30.2481Z" fill="white"/>
<path d="M319.42 51.5815C319.204 51.4695 318.983 51.3695 318.758 51.2868L313.984 49.5175V48.8082L315.39 49.3295C315.619 49.4149 315.846 49.5175 316.066 49.6349C316.144 49.6775 316.222 49.7215 316.299 49.7695L319.42 51.5815ZM263.148 30.6789L221.575 15.2708C220.94 15.0348 220.256 14.9229 219.566 14.9229C218.924 14.9229 218.276 15.0189 217.654 15.2029C216.77 15.4575 215.934 15.8829 215.234 16.4522L211.878 14.5109L211.875 14.5095C213.079 13.5348 214.664 12.9735 216.212 12.9735C216.359 12.9735 216.507 12.9776 216.652 12.9882C217.19 13.0282 217.716 13.1362 218.214 13.3216L263.895 30.2482L263.148 30.6789Z" fill="#6A5EDE"/>
<path d="M211.297 15.0391C211.48 14.8524 211.675 14.6764 211.88 14.5097C211.675 14.6764 211.477 14.8484 211.297 15.0391Z" fill="#857CF4"/>
<path d="M100.013 178.979C100.262 178.147 100.562 177.328 100.896 176.571C100.56 177.33 100.262 178.147 100.013 178.979Z" fill="#857CF4"/>
<path d="M100.924 176.501C101.073 176.169 101.23 175.855 101.39 175.551C101.23 175.855 101.073 176.169 100.924 176.501Z" fill="#857CF4"/>
<path d="M210.759 15.6813C210.908 15.4653 211.078 15.2653 211.262 15.076C211.216 15.1253 211.171 15.1734 211.128 15.2214C210.996 15.3694 210.871 15.52 210.759 15.6813Z" fill="#574EC5"/>
<path d="M211.128 15.2217C211.171 15.1737 211.216 15.1256 211.261 15.0763C211.273 15.063 211.285 15.051 211.297 15.039C211.24 15.099 211.184 15.1603 211.128 15.2217Z" fill="#0EAE96"/>
<path d="M214.12 17.6494L105.418 176.395C103.869 178.657 102.613 182.715 102.613 185.457C102.613 189.993 102.613 196 102.613 196L323.418 68.512L323.415 57.9774C323.415 55.2347 321.33 52.24 318.758 51.2867L221.583 15.2774C219.011 14.3254 215.67 15.3867 214.12 17.6494Z" fill="#857CF4"/>
<path d="M103.395 180.928L103.381 180.92C103.893 179.219 104.616 177.566 105.418 176.395L118.979 156.59V171.908L103.395 180.928ZM167.311 86.0096L214.12 17.6496C215.284 15.9509 217.459 14.9282 219.559 14.9282C220.255 14.9282 220.943 15.0402 221.583 15.2776L263.148 30.6802L167.311 86.0096ZM313.984 59.0416V49.5175L318.757 51.2869C321.32 52.2362 323.399 55.2136 323.415 57.9482C323.407 56.6976 322.955 55.4029 322.235 54.2669L313.984 59.0416Z" fill="#564DC3"/>
<path d="M102.617 195.994L102.613 195.991C102.613 195.991 102.613 195.991 102.613 195.99L102.617 195.992C102.617 195.992 102.617 190 102.617 185.464C102.617 184.14 102.916 182.518 103.396 180.928L118.979 171.908V186.55L105.918 194.092L105.867 194.063L102.617 195.994Z" fill="#352F6C"/>
<path d="M313.984 73.9575V59.0415L322.235 54.2669C322.955 55.4029 323.407 56.6975 323.415 57.9482C323.415 57.9589 323.415 57.9682 323.415 57.9775L323.418 68.5095L320.106 70.4122L320.115 70.4175L320.112 70.4202L313.984 73.9575Z" fill="#352F6C"/>
<path d="M313.984 13.2337C313.984 12.1004 313.588 11.2991 312.948 10.9218C312.299 10.5391 306.858 7.40574 306.208 7.03107C305.56 6.65774 304.664 6.71243 303.675 7.28309L122.565 111.842C120.586 112.986 118.981 115.764 118.981 118.05L118.982 334.947C118.982 336.09 119.383 336.892 120.031 337.267C120.679 337.642 126.109 340.775 126.757 341.15C127.405 341.524 128.301 341.47 129.291 340.899L310.402 236.339C312.38 235.196 313.986 232.416 313.986 230.131L313.984 13.2337Z" fill="#EDEDEB"/>
<path d="M129.292 340.899L310.402 236.339C312.38 235.196 313.986 232.416 313.986 230.131L313.984 13.2335C313.984 10.9481 312.379 10.0215 310.4 11.1641L129.29 115.724C127.31 116.867 125.706 119.647 125.706 121.932L125.707 338.829C125.707 341.115 127.312 342.041 129.292 340.899Z" fill="#FAFAF9"/>
<path d="M125.7 338.827C125.7 339.838 126.015 340.582 126.545 341.012C125.336 340.334 120.635 337.602 120.039 337.271C119.377 336.891 118.979 336.096 118.979 334.954V118.046C118.979 116.903 119.377 115.644 120.039 114.519L126.76 118.392C126.097 119.519 125.7 120.794 125.7 121.935V338.827Z" fill="#DADBD8"/>
<path d="M293.494 44.3283L261.316 62.9056C259.722 63.8269 258.43 65.9723 258.43 67.6989C258.431 69.4269 259.724 70.0803 261.318 69.1603L293.495 50.5816C295.088 49.6603 296.382 47.5149 296.382 45.7883C296.38 44.0616 295.088 43.4069 293.494 44.3283Z" fill="#DADBD8"/>
<path d="M147.616 141.056L206.838 106.867C208.432 105.947 209.724 106.6 209.724 108.327C209.724 110.055 208.431 112.2 206.838 113.122L147.618 147.311C146.024 148.232 144.731 147.578 144.731 145.85C144.73 144.124 146.023 141.978 147.616 141.056Z" fill="#DADBD8"/>
<path d="M147.618 159.819L293.495 75.5977C295.088 74.6763 296.382 75.331 296.382 77.0576C296.38 78.7856 295.088 80.931 293.494 81.851L147.616 166.072C146.023 166.992 144.731 166.339 144.731 164.612C144.731 162.886 146.024 160.739 147.618 159.819Z" fill="#DADBD8"/>
<path d="M147.618 172.327L293.495 88.1055C295.088 87.1841 296.382 87.8388 296.382 89.5655C296.38 91.2935 295.088 93.4388 293.494 94.3601L147.616 178.58C146.023 179.5 144.731 178.847 144.731 177.12C144.731 175.393 146.024 173.247 147.618 172.327Z" fill="#DADBD8"/>
<path d="M147.618 184.835L293.495 100.614C295.088 99.6924 296.382 100.347 296.382 102.074C296.38 103.8 295.088 105.947 293.494 106.868L147.616 191.088C146.023 192.01 144.731 191.355 144.731 189.628C144.731 187.902 146.024 185.756 147.618 184.835Z" fill="#DADBD8"/>
<path d="M147.618 205.39L293.495 121.168C295.088 120.248 296.382 120.902 296.382 122.628C296.38 124.356 295.088 126.503 293.494 127.423L147.618 211.644C146.023 212.564 144.731 211.91 144.731 210.183C144.731 208.458 146.024 206.311 147.618 205.39Z" fill="#DADBD8"/>
<path d="M147.618 217.899L293.495 133.676C295.088 132.756 296.382 133.409 296.382 135.137C296.38 136.864 295.088 139.011 293.494 139.931L147.618 224.152C146.023 225.072 144.731 224.419 144.731 222.691C144.731 220.964 146.024 218.819 147.618 217.899Z" fill="#DADBD8"/>
<path d="M147.618 230.407L293.495 146.184C295.088 145.264 296.382 145.918 296.382 147.646C296.38 149.372 295.088 151.518 293.494 152.439L147.618 236.659C146.023 237.58 144.731 236.927 144.731 235.2C144.731 233.472 146.024 231.327 147.618 230.407Z" fill="#DADBD8"/>
<path d="M327.432 243.911L327.202 244.241L235.19 215.067C227.964 211.857 219.503 214.471 215.306 221.187L116.94 367.388L113.303 369.488L113.27 369.505C112.167 370.117 111.179 370.2 110.455 369.819L211.619 219.12C215.816 212.403 224.292 209.789 231.519 212.983L327.432 243.911Z" fill="#857CF4"/>
<path d="M332.958 77.819H332.94C332.743 76.627 332.114 76.2976 331.303 76.859C330.987 77.075 330.624 77.439 330.243 77.9523L329.779 78.5976L238.98 216.64L225.422 235.53C223.899 237.68 220.555 238.923 217.956 238.327L206.252 235.546L116.909 202.655C116.264 202.506 115.651 202.488 115.088 202.588C114.857 202.638 114.625 202.704 114.41 202.803L117.777 200.856L203.434 232.25L214.711 236.274C217.294 236.887 220.638 235.646 222.178 233.476L235.735 214.604L326.982 75.9163C327.279 75.5017 327.643 75.2043 328.008 74.9723L320.112 70.4203L323.422 68.5163L328.886 71.6616C330.871 72.8203 332.543 75.419 332.958 77.819Z" fill="#857CF4"/>
<path d="M313.984 95.6724V95.6697L326.982 75.9164L313.984 95.6724Z" fill="#6459D6"/>
<path d="M274.686 155.394L279.571 147.97L279.58 147.964L274.696 155.388L274.686 155.394ZM286.207 137.884L292.843 127.799L292.85 127.795L286.215 137.879L286.207 137.884ZM296.376 122.436C296.375 122.434 296.375 122.432 296.375 122.431L313.984 95.6696V95.6722L296.376 122.436Z" fill="#EAEAE7"/>
<path d="M292.843 127.799L296.375 122.431C296.375 122.432 296.375 122.433 296.376 122.436L292.849 127.795L292.843 127.799Z" fill="#CED0CD"/>
<path d="M279.571 147.97L286.207 137.884L286.215 137.879L279.58 147.964L279.571 147.97Z" fill="#CED0CD"/>
<path d="M327.477 75.3696C327.641 75.2229 327.82 75.0909 328.008 74.9722C327.828 75.0869 327.648 75.2162 327.477 75.3696Z" fill="#6459D6"/>
<path d="M331.081 73.6694C331.08 73.6681 331.08 73.6668 331.079 73.6668C331.08 73.6668 331.081 73.6694 331.081 73.6694ZM331.068 73.6521C330.432 72.8268 329.684 72.1268 328.885 71.6614L323.904 68.7934L323.416 68.5121H323.417V68.5094L328.879 71.6548C329.68 72.1214 330.431 72.8241 331.068 73.6521Z" fill="#EFEFED"/>
<path d="M320.229 70.3521L323.417 68.5121L323.904 68.7934L323.421 68.5161L320.229 70.3521Z" fill="#6459D6"/>
<path d="M320.115 70.4175L320.105 70.4122L323.417 68.5095V68.5122L320.229 70.3521L320.115 70.4175Z" fill="#685CDB"/>
<path d="M274.696 155.388L279.58 147.964L286.215 137.879L292.85 127.795L296.376 122.436L313.984 95.6722L326.982 75.9162C327.126 75.7162 327.288 75.5389 327.467 75.3789C327.467 75.3789 327.467 75.3789 327.468 75.3775C327.471 75.3749 327.474 75.3722 327.478 75.3695C327.648 75.2162 327.828 75.0869 328.008 74.9722L328.022 74.9802L328.002 74.9655L320.115 70.4175L320.23 70.3522L323.422 68.5162L323.904 68.7935L328.886 71.6615C329.684 72.1269 330.432 72.8269 331.068 73.6522C331.072 73.6575 331.075 73.6615 331.079 73.6669C331.08 73.6669 331.08 73.6682 331.082 73.6695C331.975 74.8375 332.644 76.2535 332.916 77.6202C332.751 76.9322 332.427 76.5802 332.002 76.5802C331.627 76.5802 331.171 76.8535 330.674 77.4109C330.532 77.5669 330.386 77.7442 330.238 77.9442L329.774 78.5909L282.052 151.14L274.696 155.388Z" fill="#574EC5"/>
<path d="M118.724 205.296L99.2441 194.046L99.2452 361.722C99.2452 364.36 101.114 367.598 103.398 368.916L108.08 371.619C110.364 372.938 114.103 372.938 116.387 371.619L118.724 370.27V205.296Z" fill="#857CF4"/>
<path d="M112.233 372.608C110.727 372.608 109.222 372.279 108.08 371.619L103.398 368.916C101.114 367.598 99.2452 364.36 99.2452 361.722L99.2441 194.046L102.617 195.994L102.607 196L110.189 200.367L114.407 202.803C113.101 203.343 112.242 204.634 112.242 206.33V366.508L112.235 369.215C112.235 369.552 112.265 369.863 112.322 370.147C112.323 370.148 112.323 370.151 112.323 370.152C112.498 371.03 112.929 371.644 113.532 371.954C113.821 372.104 114.153 372.183 114.515 372.183C114.596 372.183 114.678 372.179 114.762 372.171C115.253 372.128 115.793 371.951 116.362 371.63L116.394 371.614L118.724 370.268V370.27L116.387 371.619C116.271 371.686 116.151 371.75 116.029 371.81C114.939 372.342 113.586 372.608 112.234 372.608H112.233Z" fill="#6A5EDE"/>
<path d="M333.04 78.8628V241.739C333.04 243.114 332.543 244.619 331.749 245.944C331.087 247.036 330.259 248.014 329.315 248.675L329.149 248.757L328.885 248.94L116.396 371.606L116.363 371.623C115.254 372.252 114.26 372.335 113.532 371.954C112.887 371.623 112.44 370.944 112.291 369.967C112.257 369.736 112.241 369.487 112.241 369.223V206.33C112.241 203.698 114.31 202.043 116.909 202.655L206.252 235.546L217.956 238.327C220.555 238.923 223.899 237.68 225.421 235.53L238.98 216.64L329.779 78.5975L330.243 77.9522C331.783 75.8162 333.04 76.2148 333.04 78.8628Z" fill="#857CF4"/>
<path d="M114.515 372.183C114.152 372.183 113.821 372.104 113.532 371.953C112.928 371.644 112.498 371.029 112.323 370.152C112.499 371.023 112.928 371.635 113.526 371.947L126.977 352.023L113.532 371.949C113.826 372.103 114.162 372.181 114.528 372.181C114.605 372.181 114.683 372.177 114.762 372.171C114.678 372.179 114.596 372.183 114.515 372.183ZM282.07 151.131L329.779 78.5973L330.243 77.952C330.908 77.0293 331.52 76.58 332.002 76.58C332.635 76.58 333.04 77.3573 333.04 78.8626V121.705L282.07 151.131Z" fill="#574EC5"/>
<path d="M112.241 366.508V206.33C112.241 204.632 113.101 203.342 114.408 202.803H114.41L114.416 202.8C114.849 202.623 115.331 202.527 115.847 202.527C116.188 202.527 116.543 202.568 116.909 202.655L163.261 219.719L162.692 220.048C162.204 220.33 161.736 220.694 161.299 221.119C160.66 221.735 160.091 222.478 159.629 223.278C158.859 224.618 158.371 226.14 158.371 227.502V298.092L112.241 366.508Z" fill="#574EC5"/>
<path d="M205.703 235.344L113.526 371.947C112.732 371.532 112.235 370.589 112.235 369.215L112.242 366.508L202.903 232.055L205.703 235.344Z" fill="#857CF4"/>
<path d="M113.526 371.947L158.371 305.488V305.495L126.977 352.023L113.526 371.947Z" fill="#4E47BA"/>
<path d="M112.241 366.508L158.371 298.092V298.098L112.241 366.508Z" fill="#4E47BA"/>
<path d="M113.526 371.947C112.929 371.635 112.499 371.023 112.323 370.152C112.265 369.867 112.235 369.553 112.235 369.215L112.242 366.508L158.371 298.097V305.488L113.526 371.947Z" fill="#564DC3"/>
<path d="M328.883 248.941L329.155 248.765L329.313 248.669C330.257 248.015 331.091 247.039 331.745 245.952C332.531 244.647 333.019 243.157 333.033 241.816L238.985 216.643L301.965 264.481L328.883 248.941Z" fill="#857CF4"/>
<path d="M331.745 245.952C331.091 247.039 330.257 248.015 329.313 248.67L329.155 248.766L116.394 371.614L116.362 371.63C115.259 372.252 114.268 372.332 113.532 371.95L215.284 221.144C219.501 214.412 228.023 211.798 235.289 215.006L331.745 245.952Z" fill="#857CF4"/>
<path d="M114.528 372.182C114.161 372.182 113.826 372.103 113.532 371.95L158.371 305.495V347.376L116.394 371.614L116.362 371.63C115.701 372.003 115.079 372.182 114.528 372.182Z" fill="#564DC3"/>
<path d="M99.2438 194.04L99.2407 194.039C99.2407 194.039 99.2407 188.029 99.2407 183.493C99.2407 182.967 99.2886 182.389 99.3777 181.784C99.2907 182.391 99.2438 182.969 99.2438 183.5C99.2438 187.989 99.2438 193.916 99.2438 194.04Z" fill="#D2D4D1"/>
<path d="M102.613 195.989L99.2441 194.04C99.2441 193.916 99.2441 187.989 99.2441 183.5C99.2441 182.969 99.2911 182.391 99.378 181.784C99.5097 180.885 99.7316 179.924 100.019 178.975L103.382 180.92C102.958 182.331 102.68 183.776 102.624 185.009C102.623 185.015 102.623 185.02 102.623 185.025C102.623 185.028 102.623 185.031 102.623 185.033C102.616 185.179 102.613 185.32 102.613 185.457C102.613 189.888 102.613 195.721 102.613 195.989Z" fill="#695FCD"/>
<path d="M102.624 185.01C102.679 183.776 102.957 182.331 103.381 180.92L103.395 180.928L103.374 180.963C102.957 182.362 102.68 183.788 102.624 185.01Z" fill="#685CDB"/>
<path d="M102.613 185.458C102.613 185.32 102.616 185.179 102.623 185.034C102.616 185.179 102.613 185.32 102.613 185.458Z" fill="#0EAE97"/>
<path d="M102.617 195.992L102.613 195.99C102.613 195.722 102.613 189.888 102.613 185.458C102.613 185.32 102.616 185.179 102.623 185.034C102.623 185.031 102.623 185.028 102.623 185.026C102.623 185.02 102.623 185.015 102.624 185.01C102.68 183.788 102.958 182.362 103.374 180.963L103.396 180.928C102.916 182.518 102.617 184.14 102.617 185.464C102.617 190 102.617 195.992 102.617 195.992Z" fill="#06A088"/>
<path d="M117.777 200.856L114.41 202.803L111 200.833L102.606 196L105.867 194.063L117.777 200.856Z" fill="#857CF4"/>
<path d="M117.881 200.895L117.777 200.856L105.918 194.092L117.881 200.895Z" fill="#6459D6"/>
<path d="M163.263 219.719L123.693 205.152L116.903 202.647C116.527 202.56 116.163 202.519 115.811 202.519C115.56 202.519 115.317 202.54 115.082 202.581C114.865 202.627 114.649 202.693 114.445 202.783L117.777 200.856L117.881 200.895L117.927 200.92L165.581 218.38L163.263 219.719Z" fill="#574EC5"/>
<path d="M114.41 202.803L111 200.833L110.189 200.367L102.606 196L105.867 194.063L105.918 194.092L117.777 200.856L114.445 202.783L114.41 202.803Z" fill="#574EC5"/>
<path d="M158.4 227.483C158.4 224.744 160.322 221.416 162.692 220.048L374.455 97.7963C376.826 96.4283 380.67 96.427 383.039 97.7963L387.878 100.59C390.25 101.958 392.171 105.286 392.171 108.024V276.343C392.171 279.068 390.239 282.414 387.878 283.776L176.116 406.028C173.755 407.391 169.892 407.391 167.531 406.028L162.694 403.236C160.334 401.872 158.402 398.527 158.402 395.8L158.4 227.483Z" fill="#857CF4"/>
<path d="M159.629 223.277L171.813 230.303L390.887 103.816C390.115 102.476 389.039 101.299 387.861 100.608L383.008 97.8267C380.652 96.4454 376.795 96.4454 374.439 97.8267L162.675 220.069C161.477 220.76 160.401 221.937 159.629 223.277Z" fill="#857CF4"/>
<path d="M171.813 230.303L159.629 223.277C160.401 221.937 161.477 220.76 162.675 220.069L374.439 97.8267C375.616 97.1361 377.171 96.7907 378.724 96.7907C380.277 96.7907 381.831 97.1361 383.008 97.8267L387.861 100.608C389.039 101.299 390.115 102.476 390.887 103.816L171.813 230.303Z" fill="#6A5EDE"/>
<path d="M171.806 407.071C171.351 407.071 170.896 407.043 170.452 406.985C169.823 406.904 169.235 406.763 168.686 406.58C168.26 406.437 167.874 406.255 167.508 406.052L162.675 403.249C160.3 401.889 158.371 398.559 158.371 395.817V353.737L158.402 353.72V395.8C158.402 398.527 160.334 401.872 162.694 403.236L167.531 406.028C168.711 406.709 170.267 407.051 171.823 407.051C172.902 407.051 173.982 406.887 174.935 406.559C175.023 406.536 175.111 406.508 175.202 406.476C175.047 406.537 174.868 406.595 174.686 406.656C174.422 406.737 174.131 406.809 173.847 406.871C173.186 407.005 172.495 407.071 171.806 407.071Z" fill="#C0C1BF"/>
<path d="M158.371 353.737V347.38L158.402 347.361V353.72L158.371 353.737Z" fill="#C0C1BF"/>
<path d="M158.371 347.38V347.376L158.402 347.359V347.362L158.371 347.38Z" fill="#069983"/>
<path d="M158.371 298.092V227.502C158.371 226.14 158.859 224.618 159.63 223.278L159.639 223.283C158.874 224.62 158.4 226.124 158.4 227.483V298.048L158.371 298.092Z" fill="#09AC93"/>
<path d="M158.371 305.495V305.488L158.4 305.444V305.451L158.371 305.495Z" fill="#6459D6"/>
<path d="M158.371 298.098V298.092L158.4 298.048V298.052L158.371 298.098Z" fill="#6459D6"/>
<path d="M158.371 305.488V298.098L158.4 298.052V305.444L158.371 305.488Z" fill="#05A58D"/>
<path d="M158.371 347.376V305.495L158.4 305.451L158.402 347.359L158.371 347.376Z" fill="#6A5EDE"/>
<path d="M171.823 407.051C170.267 407.051 168.711 406.709 167.531 406.028L162.694 403.236C160.334 401.872 158.402 398.527 158.402 395.8V353.72V347.361V347.359L158.4 305.451V305.444V298.052V298.048V227.483C158.4 226.124 158.874 224.62 159.639 223.283L171.814 230.303C171.814 230.303 171.814 233.491 171.814 235.259V403.575C171.814 404.996 172.322 405.971 173.134 406.397C173.456 406.559 173.824 406.653 174.227 406.653C174.452 406.653 174.688 406.624 174.935 406.559C173.982 406.887 172.902 407.051 171.823 407.051Z" fill="#665AD8"/>
<path d="M195.21 244.914L256.736 209.39C257.694 208.838 258.468 209.286 258.47 210.39V210.875C258.47 211.98 257.695 213.323 256.738 213.875L195.21 249.399C194.252 249.951 193.478 249.503 193.478 248.399V247.914C193.478 246.81 194.252 245.467 195.21 244.914Z" fill="#5048BC"/>
<path d="M195.21 255.18L256.736 219.655C257.694 219.103 258.468 219.551 258.47 220.655V221.14C258.47 222.245 257.695 223.588 256.738 224.14L195.21 259.664C194.252 260.216 193.478 259.768 193.478 258.664V258.18C193.478 257.075 194.252 255.732 195.21 255.18Z" fill="#5048BC"/>
<path d="M195.21 265.445L256.736 229.921C257.694 229.369 258.468 229.816 258.47 230.921V231.405C258.47 232.511 257.695 233.853 256.738 234.405L195.21 269.929C194.252 270.481 193.478 270.035 193.478 268.929V268.445C193.478 267.34 194.252 265.997 195.21 265.445Z" fill="#5048BC"/>
<path d="M306.975 262.284L368.501 226.76C369.459 226.208 370.235 226.655 370.235 227.76V228.246C370.235 229.35 369.46 230.692 368.503 231.246L306.975 266.768C306.017 267.32 305.243 266.874 305.243 265.768V265.284C305.243 264.18 306.017 262.836 306.975 262.284Z" fill="#5048BC"/>
<path d="M306.975 272.549L368.501 237.025C369.459 236.473 370.235 236.921 370.235 238.025V238.511C370.235 239.615 369.46 240.959 368.503 241.511L306.975 277.033C306.017 277.587 305.243 277.139 305.243 276.033V275.549C305.243 274.445 306.017 273.101 306.975 272.549Z" fill="#5048BC"/>
<path d="M306.975 282.815L368.501 247.291C369.459 246.739 370.235 247.186 370.235 248.291V248.776C370.235 249.88 369.46 251.224 368.503 251.776L306.975 287.299C306.017 287.852 305.243 287.404 305.243 286.299V285.815C305.243 284.711 306.017 283.368 306.975 282.815Z" fill="#5048BC"/>
<path d="M306.975 293.08L368.501 257.556C369.459 257.004 370.235 257.452 370.235 258.556V259.041C370.235 260.147 369.46 261.489 368.503 262.041L306.975 297.565C306.017 298.117 305.243 297.669 305.243 296.565V296.08C305.243 294.976 306.017 293.632 306.975 293.08Z" fill="#5048BC"/>
<path d="M336.375 212.624C335.616 212.624 335.093 211.603 335.448 209.999L335.452 209.979C335.708 208.819 335.496 207.791 334.932 207.463L334.213 207.047C333.376 206.561 333.376 204.628 334.213 203.176C335.051 201.725 335.051 199.791 334.213 199.305C333.376 198.82 333.376 196.887 334.213 195.435C335.051 193.984 335.051 192.049 334.213 191.565C333.376 191.08 333.376 189.147 334.213 187.695C335.051 186.243 335.051 184.309 334.213 183.824C333.376 183.339 333.376 181.405 334.213 179.955C335.051 178.503 335.051 176.569 334.213 176.084C333.376 175.599 333.376 173.664 334.213 172.213L334.932 170.967C335.496 169.988 335.708 168.715 335.452 167.851L335.448 167.836C334.939 166.123 336.237 163.52 337.447 163.52C337.552 163.52 337.659 163.54 337.761 163.583L337.925 163.649C337.152 164.519 336.613 166.167 336.973 167.375L336.977 167.389C337.235 168.252 337.023 169.527 336.457 170.505L335.74 171.751C334.903 173.203 334.903 175.136 335.74 175.621C336.576 176.107 336.576 178.04 335.74 179.492C334.903 180.944 334.903 182.877 335.74 183.363C336.576 183.847 336.576 185.781 335.74 187.233C334.903 188.684 334.903 190.619 335.74 191.103C336.576 191.588 336.576 193.521 335.74 194.973C334.903 196.425 334.903 198.359 335.74 198.844C336.576 199.329 336.576 201.263 335.74 202.715C334.903 204.165 334.903 206.1 335.74 206.585L336.457 207.001C337.023 207.328 337.235 208.356 336.977 209.517L336.973 209.536C336.696 210.787 336.952 211.683 337.437 212.017C337.073 212.433 336.701 212.624 336.375 212.624ZM341.552 211.639C341.313 211.639 341.092 211.537 340.913 211.319L340.124 210.359C340.065 210.288 340.001 210.228 339.935 210.181C340.287 209.787 340.668 209.577 341.011 209.577C341.251 209.577 341.472 209.681 341.649 209.897L342.439 210.856C342.497 210.928 342.561 210.988 342.628 211.035C342.28 211.424 341.897 211.639 341.552 211.639ZM347.297 208.321C347.06 208.321 346.839 208.22 346.659 208.001L346.172 207.408C346.113 207.336 346.049 207.277 345.981 207.231C346.329 206.841 346.712 206.627 347.059 206.627C347.296 206.627 347.517 206.728 347.697 206.947L348.185 207.54C348.244 207.611 348.308 207.671 348.375 207.717C348.027 208.107 347.644 208.321 347.297 208.321ZM353.043 205.004C352.805 205.004 352.584 204.903 352.405 204.684L351.917 204.092C351.857 204.02 351.795 203.96 351.728 203.913C352.076 203.524 352.459 203.309 352.804 203.309C353.043 203.309 353.263 203.411 353.443 203.629L353.929 204.221C353.989 204.293 354.052 204.353 354.12 204.4C353.772 204.789 353.389 205.004 353.043 205.004ZM358.789 201.687C358.551 201.687 358.329 201.584 358.149 201.367L357.663 200.773C357.604 200.703 357.54 200.643 357.473 200.596C357.821 200.207 358.204 199.992 358.549 199.992C358.788 199.992 359.009 200.093 359.189 200.312L359.676 200.905C359.735 200.976 359.799 201.036 359.867 201.083C359.517 201.472 359.135 201.687 358.789 201.687ZM364.535 198.369C364.296 198.369 364.076 198.268 363.896 198.049L363.409 197.456C363.349 197.385 363.287 197.325 363.219 197.279C363.567 196.889 363.951 196.675 364.296 196.675C364.535 196.675 364.756 196.776 364.935 196.995L365.421 197.587C365.481 197.659 365.544 197.717 365.612 197.765C365.264 198.155 364.881 198.369 364.535 198.369ZM369.749 193.357C369.643 193.357 369.537 193.337 369.433 193.295L369.28 193.231C369.62 192.856 369.995 192.643 370.34 192.643C370.443 192.643 370.543 192.661 370.639 192.701L370.796 192.765C370.472 193.129 370.107 193.357 369.749 193.357ZM339.907 163.311C339.804 163.311 339.704 163.292 339.608 163.252L339.44 163.184C339.699 162.899 339.936 162.523 340.124 162.075L340.913 160.205C341.361 159.144 342.065 158.508 342.66 158.508C342.82 158.508 342.972 158.553 343.109 158.649C342.859 158.929 342.627 159.299 342.439 159.743L341.649 161.613C341.213 162.649 340.512 163.311 339.907 163.311ZM345.951 159.279C345.791 159.279 345.639 159.233 345.501 159.137C345.752 158.857 345.984 158.487 346.172 158.043L346.659 156.888C347.107 155.827 347.811 155.189 348.405 155.189C348.565 155.189 348.717 155.236 348.855 155.332C348.604 155.612 348.372 155.981 348.185 156.427L347.697 157.581C347.249 158.643 346.545 159.279 345.951 159.279ZM351.696 155.961C351.536 155.961 351.384 155.916 351.247 155.819C351.497 155.54 351.729 155.169 351.917 154.725L352.405 153.571C352.852 152.509 353.557 151.873 354.152 151.873C354.312 151.873 354.464 151.919 354.6 152.015C354.349 152.295 354.117 152.664 353.929 153.108L353.443 154.264C352.995 155.325 352.291 155.961 351.696 155.961ZM357.443 152.644C357.283 152.644 357.131 152.599 356.993 152.501C357.243 152.223 357.476 151.852 357.663 151.408L358.149 150.253C358.597 149.192 359.303 148.556 359.897 148.556C360.057 148.556 360.209 148.601 360.347 148.697C360.096 148.977 359.864 149.347 359.676 149.791L359.189 150.947C358.741 152.008 358.037 152.644 357.443 152.644ZM363.188 149.327C363.028 149.327 362.876 149.281 362.739 149.185C362.989 148.905 363.221 148.535 363.409 148.091L363.896 146.936C364.344 145.875 365.048 145.239 365.643 145.239C365.803 145.239 365.955 145.284 366.092 145.381C365.841 145.66 365.609 146.031 365.421 146.475L364.935 147.629C364.487 148.691 363.783 149.327 363.188 149.327ZM369.236 146.376C369.075 146.376 368.923 146.329 368.787 146.233C368.899 146.108 369.009 145.963 369.113 145.799L369.433 145.296C369.895 144.575 370.396 144.252 370.821 144.252C370.989 144.252 371.145 144.303 371.284 144.399C371.175 144.523 371.067 144.668 370.96 144.835L370.639 145.337C370.208 146.011 369.688 146.376 369.236 146.376Z" fill="#665AD8"/>
<path d="M344.824 158.367L345.311 158.958C345.939 159.722 347.071 159.068 347.698 157.582L348.186 156.427C348.811 154.939 349.943 154.287 350.571 155.048L351.058 155.642C351.686 156.404 352.815 155.751 353.443 154.264L353.93 153.108C354.558 151.622 355.69 150.968 356.315 151.732L356.804 152.324C357.431 153.087 358.562 152.434 359.19 150.947L359.676 149.791C360.304 148.304 361.434 147.652 362.062 148.414L362.548 149.007C363.176 149.77 364.308 149.116 364.935 147.63L365.422 146.475C366.05 144.987 367.18 144.335 367.808 145.098L368.596 146.056C369.107 146.678 369.978 146.371 370.639 145.338L370.96 144.835C372.242 142.827 373.827 143.912 373.274 146.418L373.268 146.436C373.012 147.596 373.224 148.626 373.79 148.952L374.507 149.368C375.344 149.854 375.344 151.788 374.507 153.239C373.67 154.691 373.67 156.624 374.507 157.11C375.344 157.595 375.344 159.528 374.507 160.98C373.67 162.431 373.67 164.366 374.507 164.85C375.344 165.335 375.344 167.268 374.507 168.72C373.67 170.172 373.67 172.106 374.507 172.591C375.344 173.076 375.344 175.01 374.507 176.462C373.67 177.914 373.67 179.847 374.507 180.332C375.344 180.818 375.344 182.751 374.507 184.203L373.788 185.448C373.224 186.427 373.012 187.702 373.268 188.564L373.272 188.579C373.827 190.444 372.242 193.36 370.96 192.832L370.639 192.702C369.978 192.43 369.107 193.128 368.596 194.34L367.808 196.211C367.18 197.698 366.05 198.35 365.422 197.587L364.935 196.995C364.308 196.232 363.176 196.886 362.548 198.372L362.062 199.527C361.434 201.014 360.304 201.667 359.676 200.906L359.19 200.312C358.562 199.55 357.431 200.203 356.804 201.69L356.315 202.846C355.69 204.332 354.558 204.986 353.93 204.222L353.443 203.63C352.815 202.867 351.686 203.52 351.058 205.007L350.571 206.162C349.943 207.65 348.811 208.302 348.186 207.54L347.698 206.947C347.071 206.184 345.939 206.838 345.311 208.324L344.824 209.479C344.198 210.967 343.067 211.62 342.439 210.856L341.65 209.898C341.14 209.276 340.267 209.583 339.608 210.616L339.287 211.119C338.006 213.127 336.419 212.042 336.974 209.536L336.978 209.518C337.235 208.356 337.023 207.328 336.458 207.002L335.74 206.586C334.903 206.1 334.903 204.166 335.74 202.715C336.576 201.263 336.576 199.33 335.74 198.844C334.903 198.359 334.903 196.426 335.74 194.974C336.576 193.522 336.576 191.588 335.74 191.103C334.903 190.619 334.903 188.684 335.74 187.234C336.576 185.782 336.576 183.847 335.74 183.363C334.903 182.878 334.903 180.944 335.74 179.492C336.576 178.04 336.576 176.107 335.74 175.622C334.903 175.136 334.903 173.203 335.74 171.751L336.458 170.506C337.023 169.527 337.235 168.252 336.978 167.39L336.974 167.375C336.419 165.51 338.006 162.594 339.287 163.122L339.608 163.252C340.267 163.524 341.14 162.824 341.65 161.614L342.439 159.743C343.067 158.256 344.198 157.603 344.824 158.367Z" fill="#EDEDEB"/>
<path d="M343.412 163.516L366.835 149.994C369.067 148.704 370.876 149.75 370.876 152.327V185.436C370.876 188.014 369.067 191.148 366.835 192.436L343.412 205.96C341.18 207.25 339.37 206.204 339.37 203.627V170.516C339.37 167.939 341.18 164.806 343.412 163.516Z" fill="white"/>
<path d="M362.898 178.199L362.731 178.156L361.282 175.583L358.603 165.551C358.559 165.383 358.598 165.141 358.702 164.949L360.186 162.213V161.864L359.579 162.213C359.47 162.277 359.379 162.191 359.379 162.02C359.379 161.849 359.47 161.66 359.579 161.597L360.268 161.199C360.442 161.097 360.584 161.236 360.584 161.507V162.044C360.584 162.191 360.542 162.353 360.468 162.489L358.999 165.2L361.648 175.127L363.063 177.625C363.124 177.732 363.098 177.937 363.007 178.084L362.898 178.199Z" fill="#857CF4"/>
<path d="M362.898 171.292C360.55 172.648 358.64 176.711 358.64 180.349C358.64 183.987 360.55 185.844 362.898 184.489C365.244 183.133 367.154 179.072 367.154 175.432C367.154 171.793 365.244 169.936 362.898 171.292ZM362.898 185.312C360.256 186.837 358.108 184.747 358.108 180.655C358.108 176.563 360.256 171.993 362.898 170.469C365.536 168.944 367.686 171.033 367.686 175.125C367.686 179.219 365.536 183.788 362.898 185.312Z" fill="#EDEDEB"/>
<path d="M368.072 175.108L367.939 174.98C367.939 170.669 365.677 168.469 362.897 170.075C360.116 171.68 357.855 176.492 357.855 180.801L357.721 181.084L357.588 180.956C357.588 176.419 359.971 171.353 362.897 169.664C365.824 167.973 368.204 170.289 368.204 174.825L368.072 175.108Z" fill="#857CF4"/>
<path d="M357.721 181.084L357.588 180.956C357.588 176.419 359.971 171.353 362.897 169.664C363.547 169.289 364.169 169.111 364.745 169.111C366.764 169.111 368.204 171.296 368.204 174.825L368.072 175.108L367.939 174.98C367.939 171.627 366.569 169.551 364.652 169.551C364.105 169.551 363.515 169.719 362.897 170.075C362.153 170.505 361.445 171.164 360.809 171.983C360.687 172.139 360.568 172.303 360.451 172.471C358.903 174.7 357.855 177.868 357.855 180.801L357.721 181.084Z" fill="#574EC5"/>
<path d="M352.525 184.086L352.392 183.956C352.392 179.647 350.131 177.447 347.35 179.051C344.57 180.656 342.307 185.47 342.307 189.779L342.174 190.062L342.042 189.931C342.042 185.395 344.423 180.33 347.35 178.64C350.276 176.951 352.657 179.266 352.657 183.803L352.525 184.086Z" fill="#857CF4"/>
<path d="M342.174 190.062L342.042 189.931C342.042 185.395 344.423 180.33 347.35 178.64C347.999 178.266 348.621 178.087 349.197 178.087C351.216 178.087 352.657 180.272 352.657 183.803L352.525 184.086L352.392 183.956C352.392 180.603 351.023 178.527 349.104 178.527C348.557 178.527 347.967 178.695 347.35 179.051C344.57 180.656 342.307 185.47 342.307 189.779L342.174 190.062Z" fill="#574EC5"/>
<path d="M347.35 180.268C345.002 181.624 343.091 185.687 343.091 189.326C343.091 192.963 345.002 194.82 347.35 193.466C349.698 192.111 351.607 188.047 351.607 184.41C351.607 180.771 349.698 178.914 347.35 180.268ZM347.35 194.29C344.708 195.814 342.562 193.724 342.562 189.631C342.562 185.54 344.708 180.97 347.35 179.446C349.99 177.922 352.139 180.011 352.139 184.103C352.139 188.195 349.99 192.764 347.35 194.29Z" fill="#EDEDEB"/>
<path d="M353.864 184.912L353.835 184.927L347.32 187.189L347.162 187.08L347.2 186.747L351.606 176.583C351.68 176.412 351.807 176.331 351.887 176.396C351.97 176.463 351.976 176.653 351.903 176.823L347.746 186.417L353.787 184.319L359.947 170.103C360.022 169.933 360.147 169.851 360.228 169.917C360.311 169.984 360.316 170.175 360.244 170.344L354.012 184.724L353.864 184.912Z" fill="#857CF4"/>
<path d="M353.863 184.912L353.676 184.817L350.503 172.931C350.467 172.792 350.52 172.584 350.623 172.467C350.726 172.351 350.84 172.368 350.878 172.507L354.051 184.392C354.088 184.531 354.034 184.739 353.931 184.856L353.863 184.912Z" fill="#857CF4"/>
<path d="M353.399 183.17L353.383 183.179L348.016 185.61C347.907 185.659 347.824 185.558 347.834 185.383C347.843 185.208 347.947 185.024 348.047 184.976L353.415 182.544C353.524 182.495 353.606 182.598 353.596 182.771C353.588 182.938 353.502 183.111 353.399 183.17Z" fill="#857CF4"/>
<path d="M351.292 171.192C350.892 171.316 350.917 171.117 350.187 171.6C349.572 172.008 349.232 172.561 349.196 173.412C349.189 173.604 349.296 173.697 349.417 173.605C349.623 173.449 349.919 173.247 350.052 173.253C350.269 173.264 350.54 173.269 350.78 173.053C351.019 172.837 351.332 172.272 351.765 171.884C352.2 171.495 352.384 171.521 352.767 171.284L353.013 171.117C353.14 171.027 353.225 170.781 353.184 170.62C353.123 170.387 352.993 170.132 352.725 170.244C352.343 170.404 351.74 171.053 351.292 171.192Z" fill="#857CF4"/>
<path d="M349.326 173.642C349.251 173.642 349.196 173.562 349.196 173.431C349.196 173.426 349.196 173.419 349.196 173.412C349.232 172.562 349.572 172.008 350.187 171.6C350.918 171.118 350.892 171.316 351.292 171.192C351.74 171.054 352.343 170.404 352.726 170.244C352.771 170.226 352.811 170.218 352.85 170.218C353.035 170.218 353.134 170.427 353.184 170.62C353.191 170.648 353.195 170.679 353.195 170.71C353.195 170.862 353.118 171.043 353.014 171.118L352.767 171.284C352.384 171.522 352.2 171.495 351.766 171.884C351.438 172.178 351.178 172.574 350.967 172.843C350.9 172.928 350.838 173.002 350.78 173.054C350.712 173.115 350.643 173.159 350.571 173.188C350.443 173.244 350.311 173.258 350.19 173.258C350.142 173.258 350.096 173.255 350.052 173.254C350.051 173.254 350.048 173.254 350.046 173.254C349.91 173.254 349.619 173.452 349.418 173.606C349.384 173.63 349.354 173.642 349.326 173.642Z" fill="#574EC5"/>
<path d="M353.128 182.155L352.942 182.065C352.903 181.928 352.954 181.72 353.056 181.6C356.44 177.632 358.451 172.732 359.031 167.032C359.048 166.853 359.15 166.681 359.259 166.647C359.368 166.612 359.442 166.729 359.423 166.908C358.818 172.852 356.724 177.961 353.199 182.093L353.128 182.155Z" fill="#857CF4"/>
<path d="M357.412 176.727L357.285 176.729L356.717 176.338C356.632 176.279 356.62 176.091 356.69 175.919C356.759 175.747 356.886 175.655 356.97 175.714L357.536 176.107C357.623 176.166 357.635 176.352 357.566 176.524L357.412 176.727Z" fill="#857CF4"/>
<path d="M353.864 183.132C353.34 183.434 352.913 184.342 352.913 185.154C352.913 185.964 353.34 186.379 353.864 186.076C354.387 185.775 354.813 184.868 354.813 184.056C354.813 183.244 354.387 182.83 353.864 183.132ZM353.864 186.511C353.185 186.903 352.633 186.366 352.633 185.315C352.633 184.264 353.185 183.09 353.864 182.698C354.541 182.306 355.093 182.843 355.093 183.894C355.093 184.946 354.541 186.12 353.864 186.511Z" fill="#EDEDEB"/>
<path d="M356.014 186.218L355.926 186.22L353.776 184.824C353.716 184.786 353.706 184.655 353.754 184.534C353.803 184.411 353.891 184.344 353.951 184.384L356.099 185.78C356.16 185.82 356.171 185.951 356.123 186.072L356.014 186.218Z" fill="#EDEDEB"/>
<path d="M356.456 185.962L355.408 186.567L355.268 186.431L355.408 186.132L356.456 185.528L356.595 185.664L356.456 185.962Z" fill="#857CF4"/>
<path d="M355.408 186.567L355.268 186.431L355.408 186.132L356.456 185.528L356.595 185.664L356.456 185.962L355.408 186.567Z" fill="#574EC5"/>
<path d="M358.542 162.504C358.542 161.99 358.773 161.438 359.06 161.272C359.347 161.107 359.58 161.391 359.58 161.906C359.58 162.42 359.347 162.971 359.06 163.136C358.773 163.302 358.542 163.019 358.542 162.504Z" fill="#857CF4"/>
<path d="M358.902 163.184C358.771 163.184 358.664 163.081 358.602 162.903L359.055 162.641C359.152 162.585 359.2 162.341 359.2 162.125C359.2 161.935 359.163 161.765 359.088 161.765C359.078 161.765 359.067 161.768 359.055 161.775L358.602 162.037C358.688 161.691 358.86 161.388 359.06 161.272C359.116 161.24 359.17 161.225 359.219 161.225C359.428 161.225 359.58 161.489 359.58 161.905C359.58 162.42 359.347 162.971 359.06 163.136C359.006 163.168 358.951 163.184 358.902 163.184Z" fill="#4E47BA"/>
<path d="M359.055 162.641L357.319 163.643C357.099 163.769 357.099 162.904 357.319 162.777L359.055 161.775C359.249 161.663 359.249 162.529 359.055 162.641Z" fill="#857CF4"/>
<path d="M357.278 163.656C357.195 163.656 357.153 163.491 357.155 163.304C357.155 163.088 357.209 162.84 357.319 162.778L359.055 161.775C359.067 161.768 359.077 161.766 359.088 161.766C359.163 161.766 359.2 161.935 359.2 162.126C359.2 162.342 359.152 162.586 359.055 162.642L358.601 162.903L357.319 163.643C357.304 163.652 357.291 163.656 357.278 163.656Z" fill="#574EC5"/>
<path d="M362.565 178.081C362.565 177.799 362.713 177.483 362.897 177.377C363.08 177.272 363.228 177.416 363.228 177.7C363.228 177.983 363.08 178.299 362.897 178.404C362.713 178.509 362.565 178.365 362.565 178.081Z" fill="#EDEDEB"/>
<path d="M347.019 187.059C347.019 186.775 347.167 186.46 347.349 186.353C347.533 186.248 347.681 186.392 347.681 186.676C347.681 186.96 347.533 187.275 347.349 187.38C347.167 187.487 347.019 187.341 347.019 187.059Z" fill="#EDEDEB"/>
<path d="M544.624 408.439L544.607 408.228V408.163L544.575 407.968L544.509 407.693L544.38 407.385C544.185 406.963 543.828 406.573 543.343 406.233L543.293 406.184L543.132 406.088L542.953 405.973L542.888 405.925L403.287 325.315L403.011 325.168C400.497 323.773 397.675 323.141 394.901 323.255L394.772 323.271C392.387 323.384 390.035 324.065 387.911 325.297L387.879 325.315L377.741 331.153L201.679 432.816L179.248 445.76L179.183 445.809C177.868 446.831 177.172 448.323 177.089 449.847V449.896V461.915V461.963V462.272C177.089 464.138 177.999 465.969 179.832 467.04L179.848 467.056L182.053 468.321L318.881 547.327C320.081 548.024 321.671 548.364 323.244 548.332C324.703 548.316 326.147 547.975 327.265 547.343L327.315 547.327L515.575 438.64L542.888 422.875L543.147 422.696L543.311 422.599C544.169 421.999 544.575 421.252 544.624 420.507C544.624 420.295 544.575 409.185 544.624 408.439Z" fill="#857CF4"/>
<path d="M323.113 548.327L322.78 548.315C322.508 548.305 322.236 548.3 321.968 548.271L321.956 548.268C321.585 548.228 321.22 548.168 320.867 548.087L320.557 547.993C320.312 547.928 320.064 547.863 319.833 547.775C319.551 547.668 319.281 547.547 319.028 547.409C319.025 547.408 319.023 547.405 319.019 547.404C319.016 547.403 319.013 547.402 319.009 547.399C318.967 547.375 318.924 547.351 318.881 547.327L182.053 468.321L179.848 467.056L179.832 467.04C177.999 465.969 177.089 464.138 177.089 462.272V461.963V461.915V450.392C177.12 451.28 177.356 452.156 177.801 452.94C178.104 453.495 178.499 453.965 178.971 454.362C179.231 454.586 179.517 454.791 179.832 454.974L179.848 454.99L182.053 456.255L208.832 471.705L316.497 533.883V533.884L318.875 535.257C318.959 535.305 319.045 535.352 319.133 535.397C319.837 535.763 320.652 536.009 321.513 536.144C322.027 536.224 322.556 536.265 323.087 536.265C323.095 536.265 323.104 536.265 323.113 536.265V548.327Z" fill="#564DC3"/>
<path d="M323.244 548.332H323.113V536.265C323.119 536.265 323.125 536.265 323.131 536.265C323.168 536.265 323.207 536.265 323.244 536.265C324.172 536.255 325.093 536.114 325.929 535.848C326.408 535.698 326.861 535.505 327.272 535.274L327.273 535.272L327.315 535.259L401.535 492.407L471.42 452.047L509.783 429.895L515.555 426.563L515.58 426.564L542.888 410.799L543.148 410.63L543.307 410.535C543.307 410.534 543.308 410.534 543.308 410.532H543.311C544.169 409.932 544.575 409.186 544.624 408.439C544.607 408.69 544.601 410.102 544.601 411.879C544.601 411.883 544.601 411.888 544.601 411.894C544.601 411.899 544.601 411.904 544.601 411.91C544.603 415.414 544.624 420.308 544.624 420.503C544.624 420.504 544.624 420.504 544.624 420.504C544.624 420.504 544.624 420.504 544.624 420.506C544.624 420.506 544.624 420.506 544.624 420.507C544.575 421.252 544.169 421.999 543.311 422.599L543.147 422.696L542.888 422.875L515.575 438.64L327.315 547.327L327.265 547.343C326.147 547.975 324.703 548.316 323.244 548.332Z" fill="#564DC3"/>
<path d="M177.089 449.847C177.172 448.323 177.868 446.831 179.183 445.809L179.248 445.76L201.679 432.816L377.741 331.153L387.879 325.315L377.773 331.153L201.679 432.816L179.248 445.76L179.183 445.809C177.868 446.831 177.172 448.323 177.089 449.847ZM542.888 405.925L409.353 328.833L403.287 325.315L542.888 405.925Z" fill="#4E47BA"/>
<path d="M544.624 408.439C544.575 409.185 544.17 409.932 543.311 410.532L543.147 410.628L515.558 426.556L401.535 492.407L327.315 535.259L327.266 535.275C326.147 535.908 324.703 536.248 323.244 536.265C321.671 536.281 320.082 535.957 318.882 535.259L316.496 533.88L209.967 472.36L182.054 456.255L179.848 454.99L179.832 454.973C177.934 453.871 177.026 451.94 177.09 450.009V449.896V449.847C177.787 449.653 178.647 449.507 179.638 449.409L204.631 446.928L334.29 434.017H334.307L354.547 431.989C359.008 431.552 362.998 429.929 363.436 428.389L367.491 414.845V414.829L392.81 330.051L394.707 323.741L394.723 323.66C394.772 323.515 394.82 323.368 394.902 323.255C397.675 323.141 400.498 323.773 403.011 325.168L403.287 325.315L409.354 328.833L542.888 405.925L542.954 405.973L543.132 406.088L543.294 406.184L543.343 406.233C543.828 406.573 544.186 406.963 544.38 407.385L544.51 407.693L544.575 407.968L544.607 408.163V408.228L544.624 408.439Z" fill="#857CF4"/>
<path d="M515.58 426.564L515.555 426.563L543.148 410.629L542.888 410.799L515.58 426.564Z" fill="#069C86"/>
<path d="M544.62 408.388L544.607 408.228V408.163L544.575 407.968L544.509 407.694L544.38 407.386C544.372 407.366 544.363 407.347 544.352 407.328C544.54 407.672 544.629 408.031 544.62 408.388Z" fill="#A9ABAA"/>
<path d="M543.508 406.355C543.455 406.314 543.4 406.274 543.343 406.234L543.326 406.218C543.39 406.263 543.45 406.308 543.508 406.355Z" fill="#A9ABAA"/>
<path d="M543.191 406.123L543.132 406.088L542.954 405.974L542.95 405.971C543.034 406.02 543.114 406.071 543.191 406.123Z" fill="#A9ABAA"/>
<path d="M385.37 414.192L385.394 413.972L385.398 413.938L385.43 413.631L542.946 405.968C542.947 405.97 542.948 405.971 542.95 405.971L542.954 405.974L543.132 406.088L543.191 406.123C543.238 406.154 543.282 406.186 543.326 406.218L543.343 406.234C543.4 406.274 543.455 406.314 543.508 406.355C543.884 406.656 544.167 406.986 544.352 407.328C544.363 407.347 544.372 407.366 544.38 407.386L544.51 407.694L544.575 407.968L544.607 408.163V408.228L544.62 408.388C544.619 408.407 544.619 408.426 544.618 408.444L385.37 414.192Z" fill="#564DC3"/>
<path d="M322.792 536.26C322.36 536.247 321.931 536.208 321.514 536.144C320.655 536.008 319.839 535.76 319.134 535.398C319.048 535.353 318.964 535.307 318.882 535.259C319.967 535.89 321.37 536.217 322.792 536.26ZM318.882 535.259L316.498 533.883V533.882L318.882 535.259Z" fill="#564DC3"/>
<path d="M323.087 536.265C322.556 536.265 322.027 536.224 321.514 536.144C321.931 536.208 322.36 536.247 322.792 536.26C322.89 536.263 322.988 536.265 323.087 536.265ZM319.134 535.397C319.046 535.352 318.959 535.305 318.875 535.257L316.498 533.884L318.882 535.259C318.964 535.307 319.048 535.353 319.134 535.397Z" fill="#544BC1"/>
<path d="M323.092 536.265C323.09 536.265 323.088 536.265 323.087 536.265C322.988 536.265 322.89 536.263 322.792 536.26C321.37 536.216 319.967 535.89 318.882 535.259L316.498 533.881L332.44 444.397L333.178 444.383L323.248 536.264C323.196 536.265 323.144 536.265 323.092 536.265ZM327.308 535.256L401.526 492.403L401.53 492.405L327.308 535.256Z" fill="#564DC3"/>
<path d="M544.617 408.444C544.576 409.187 544.165 409.925 543.307 410.535L543.148 410.629L327.308 535.256L327.272 535.274C326.143 535.912 324.703 536.243 323.248 536.264L335.372 424.065C335.875 419.416 346.544 415.593 360.423 415.093L544.617 408.444Z" fill="#857CF4"/>
<path d="M177.089 449.847C177.172 448.323 177.868 446.831 179.183 445.81L179.248 445.76L201.679 432.816L377.773 331.154L387.879 325.315L387.911 325.298C390.035 324.066 392.387 323.384 394.772 323.271L394.901 323.255C394.82 323.368 394.772 323.515 394.723 323.66L394.707 323.742L392.809 330.051L367.491 414.83V414.838L360.423 415.094C346.544 415.594 335.875 419.416 335.372 424.066L334.297 434.018H334.289L204.631 446.928L179.637 449.41C178.647 449.507 177.787 449.653 177.089 449.847Z" fill="#0B6658"/>
<path d="M177.089 450.009V449.847C177.787 449.653 178.647 449.507 179.637 449.409L204.631 446.928L334.289 434.017H334.297L333.179 444.371L332.44 444.397L205.068 448.988L177.089 450.009ZM367.491 414.837V414.829L392.809 330.051L394.707 323.741L394.723 323.66C394.772 323.515 394.82 323.368 394.901 323.255L394.204 329.953L385.429 413.631H385.428L385.393 413.972L385.365 414.18L385.364 414.192L367.491 414.837Z" fill="#564DC3"/>
<path d="M385.394 413.972L385.428 413.631L385.398 413.938L385.394 413.972Z" fill="#544BC1"/>
<path d="M332.44 444.397L333.179 444.371L333.178 444.383L332.44 444.397Z" fill="#544BC1"/>
<path d="M333.178 444.383L333.179 444.371L334.298 434.017L335.372 424.065C335.875 419.416 346.544 415.593 360.423 415.093L367.491 414.837L385.364 414.192L385.154 416.24L383.24 434.487C382.754 439.143 372.082 442.971 358.182 443.473L345.707 443.928H345.692L333.187 444.381L333.178 444.383Z" fill="#564DC3"/>
<path d="M394.772 323.271L394.723 323.66L394.707 323.741L393.668 329.985L379.833 414.229L379.801 414.392L379.575 415.803L377.028 431.308C376.313 435.688 366.583 439.305 353.623 440.035L341.977 440.683H341.961L333.528 441.153L333.008 441.187L204.939 448.339L177.089 449.896V449.847C177.172 448.323 177.868 446.831 179.183 445.809L179.248 445.76L201.679 432.817L377.773 331.153L387.879 325.315L387.911 325.297C390.035 324.065 392.387 323.384 394.772 323.271Z" fill="#857CF4"/>
<path d="M368.716 450.371C358.51 450.371 352.594 448.488 349.976 447.367C345.492 445.448 342.659 442.319 342.202 438.781C341.802 435.683 343.219 432.703 346.194 430.386C349.588 427.742 354.706 426.223 360.231 426.223C360.971 426.223 361.711 426.252 362.446 426.31C362.359 425.522 362.398 424.728 362.564 423.944C363.187 421.038 365.503 418.631 369.087 417.168C371.483 416.19 374.359 415.672 377.403 415.672C382.864 415.672 388.315 417.311 391.984 420.055C394.388 421.854 401.888 428.702 397.504 441.353L395.387 447.414L385.211 448.996C379.312 449.908 373.764 450.371 368.719 450.371H368.716Z" fill="#FAFAF9"/>
<path d="M370.093 419.638C364.721 421.831 363.571 426.16 367.057 429.816C360.507 427.931 352.341 428.978 347.831 432.491C342.769 436.431 344.2 441.995 351.025 444.916C354.467 446.39 364.645 449.479 384.8 446.362L393.397 445.024L394.984 440.481C398.673 429.834 392.999 424.143 390.388 422.191C385.209 418.319 376.124 417.175 370.093 419.638Z" fill="#292929"/>
<path d="M24.6423 397.48L26.0857 397.543C27.9434 397.624 29.4903 396.731 29.3491 395.658L29.2398 394.826C29.0986 393.752 30.6455 392.859 32.5043 392.94L33.9475 393.004C35.8054 393.086 37.3523 392.192 37.2111 391.12L37.1018 390.287C36.9606 389.214 38.5075 388.32 40.3653 388.402L41.809 388.464C43.6669 388.547 45.2142 387.654 45.0731 386.58L44.9633 385.747C44.8221 384.675 46.3695 383.782 48.2273 383.863L49.671 383.927C51.5289 384.008 53.0757 383.115 52.9346 382.042L52.8253 381.208C52.6841 380.135 54.2309 379.242 56.0898 379.323L58.4262 379.427C59.9393 379.492 61.3054 378.906 61.6294 378.05L61.7862 377.634C62.4138 375.97 66.3622 375.743 67.5445 377.303L67.5543 377.315C68.1018 378.038 69.4163 378.459 70.7685 378.348L72.4898 378.207C74.4961 378.043 76.2138 379.036 75.9294 380.194C75.645 381.351 77.3633 382.344 79.369 382.18C81.3747 382.015 83.0934 383.007 82.8081 384.166C82.5237 385.323 84.2423 386.316 86.2481 386.151C88.2543 385.987 89.9726 386.979 89.6877 388.138C89.4029 389.295 91.1215 390.288 93.1273 390.123C95.133 389.958 96.8518 390.951 96.5669 392.108C96.2825 393.267 98.0013 394.259 100.007 394.095C102.013 393.931 103.731 394.923 103.446 396.08L103.202 397.075C103.01 397.855 103.742 398.614 104.993 398.93L105.014 398.935C107.714 399.619 107.322 401.898 104.441 402.26L103.721 402.351C102.239 402.538 101.22 403.327 101.336 404.2L101.513 405.55C101.654 406.622 100.107 407.515 98.2491 407.434L96.8065 407.371C94.9481 407.29 93.4007 408.182 93.5419 409.255L93.6513 410.088C93.7929 411.162 92.2461 412.055 90.3877 411.974L88.9445 411.91C87.0862 411.828 85.5387 412.722 85.6799 413.794L85.7903 414.627C85.9314 415.7 84.3841 416.594 82.5257 416.512L81.0825 416.448C79.2242 416.367 77.6773 417.26 77.819 418.334L77.9283 419.167C78.0695 420.239 76.5226 421.132 74.6642 421.051L73.221 420.987C71.3627 420.906 69.8153 421.799 69.957 422.872L70.0663 423.704C70.2081 424.778 68.6606 425.671 66.8023 425.59L64.4658 425.487C62.9529 425.42 61.5857 426.008 61.2627 426.864L61.1059 427.28C60.4773 428.943 56.5294 429.17 55.3466 427.611L55.3377 427.599C54.7903 426.876 53.4757 426.454 52.1231 426.564L50.4023 426.706C48.3961 426.87 46.6773 425.878 46.9627 424.72C47.2471 423.562 45.5283 422.57 43.5231 422.734H43.5226C41.5163 422.899 39.7986 421.906 40.083 420.748C40.3685 419.59 38.6491 418.598 36.6434 418.763C34.6377 418.927 32.919 417.934 33.2038 416.776C33.4887 415.619 31.7699 414.627 29.7638 414.79C27.7581 414.955 26.0393 413.963 26.3247 412.804C26.609 411.647 24.8909 410.654 22.8851 410.819C20.8794 410.983 19.1606 409.991 19.445 408.834L19.6898 407.839C19.8819 407.059 19.1491 406.299 17.8981 405.984L17.8773 405.978C15.1767 405.295 15.5695 403.015 18.4502 402.652L19.1699 402.563C20.6533 402.375 21.671 401.587 21.5554 400.714L21.3778 399.364C21.2366 398.292 22.7841 397.398 24.6423 397.48Z" fill="#FAFAF9"/>
<path d="M26.5617 400.82L58.6101 382.316C61.6642 380.554 65.9971 380.196 68.2871 381.518L97.7122 398.507C100.002 399.828 99.3841 402.33 96.3299 404.094L64.2809 422.598C61.2267 424.36 56.895 424.718 54.6043 423.396L25.1794 406.407C22.8887 405.084 23.5075 402.583 26.5617 400.82Z" fill="#F6FFFC"/>
<path d="M76.2692 398.732C76.1806 398.784 76.0509 398.809 75.9186 398.792L70.9045 398.187L56.9509 394.363C56.7165 394.299 56.5754 394.155 56.6009 394.005L56.9613 391.869L56.6509 391.689L55.8206 392.169C55.6701 392.256 55.4249 392.255 55.2738 392.168C55.1222 392.08 55.1217 391.939 55.2717 391.852L56.2149 391.308C56.453 391.171 56.8421 391.171 57.0826 391.309L57.5602 391.585C57.691 391.661 57.7561 391.765 57.7389 391.871L57.3816 393.987L71.1905 397.772L76.0706 398.356C76.2806 398.38 76.416 398.499 76.3744 398.62L76.2692 398.732Z" fill="#5048BC"/>
<path d="M70.1302 395.188C66.9182 397.043 66.9354 400.071 70.1693 401.937C73.4026 403.804 78.6469 403.815 81.8583 401.96C85.0702 400.105 85.0526 397.077 81.8197 395.211C78.5859 393.344 73.3421 393.335 70.1302 395.188ZM82.5901 402.383C78.977 404.468 73.0791 404.456 69.4421 402.357C65.8051 400.257 65.7859 396.852 69.3983 394.765C73.0114 392.681 78.9093 392.692 82.5464 394.791C86.1828 396.891 86.2026 400.296 82.5901 402.383Z" fill="#EDEDEB"/>
<path d="M83.2588 394.592L82.8941 394.591C79.0644 392.38 72.8534 392.368 69.0493 394.564C65.2446 396.761 65.2654 400.347 69.0952 402.557L69.0962 402.768L68.7316 402.767C64.7004 400.44 64.6785 396.665 68.6832 394.353C72.6878 392.04 79.2258 392.053 83.2577 394.381L83.2588 394.592Z" fill="#857CF4"/>
<path d="M69.096 402.768L68.7314 402.767C66.708 401.599 65.6944 400.067 65.6934 398.536C65.6928 397.019 66.6882 395.504 68.683 394.353C70.6767 393.201 73.298 392.627 75.9256 392.627C78.5762 392.627 81.2324 393.212 83.2575 394.381L83.2586 394.592L82.8939 394.591C80.9704 393.48 78.4466 392.924 75.9288 392.924C73.4324 392.924 70.9428 393.471 69.0491 394.564C68.0308 395.152 67.2866 395.84 66.8158 396.573C66.7256 396.715 66.6455 396.856 66.5756 397C66.3308 397.503 66.2086 398.02 66.209 398.539C66.21 399.992 67.1726 401.448 69.095 402.557L69.096 402.768Z" fill="#574EC5"/>
<path d="M61.9855 406.873L61.6203 406.872C57.7912 404.661 51.5803 404.649 47.7755 406.845C43.9714 409.043 43.9918 412.628 47.8219 414.84L47.823 415.051L47.4584 415.049C43.4266 412.721 43.4052 408.947 47.4099 406.635C51.4146 404.323 57.9527 404.336 61.9839 406.663L61.9855 406.873Z" fill="#857CF4"/>
<path d="M47.8231 415.051L47.4585 415.049C45.4351 413.881 44.4215 412.348 44.4204 410.819C44.4195 409.301 45.4152 407.787 47.41 406.635C49.4032 405.484 52.0252 404.909 54.6523 404.909C57.3028 404.909 59.9589 405.495 61.984 406.663L61.9856 406.873L61.6204 406.872C59.6975 405.763 57.1736 405.207 54.6559 405.207C52.1595 405.207 49.6695 405.752 47.7756 406.845C45.8808 407.94 44.9351 409.379 44.9361 410.82C44.9365 412.273 45.8991 413.729 47.822 414.84L47.8231 415.051Z" fill="#574EC5"/>
<path d="M48.857 407.471C45.6455 409.326 45.6627 412.352 48.8961 414.22C52.1299 416.087 57.3737 416.096 60.5857 414.242C63.7971 412.388 63.7805 409.36 60.5466 407.494C57.3138 405.626 52.0695 405.616 48.857 407.471ZM61.3174 414.664C57.7038 416.751 51.8065 416.739 48.1695 414.639C44.533 412.54 44.5133 409.135 48.1257 407.048C51.7387 404.963 57.6362 404.974 61.2731 407.074C64.9095 409.174 64.9299 412.579 61.3174 414.664Z" fill="#EDEDEB"/>
<path d="M65.241 406.637L65.1977 406.659L54.953 411.036C54.8389 411.084 54.6873 411.093 54.5582 411.059C54.4296 411.023 54.3436 410.949 54.3358 410.868L53.59 403.479C53.578 403.353 53.7416 403.249 53.953 403.244C54.1665 403.237 54.3493 403.332 54.3618 403.455L55.0654 410.431L64.5681 406.371L63.5249 396.035C63.5129 395.912 63.6764 395.807 63.8878 395.8C64.1009 395.795 64.2842 395.889 64.2968 396.012L65.353 406.467L65.241 406.637Z" fill="#5048BC"/>
<path d="M65.2407 406.637C65.1287 406.701 64.9547 406.721 64.8021 406.68L48.2697 402.149C48.0771 402.096 47.9927 401.963 48.0833 401.851C48.1735 401.741 48.4036 401.693 48.5979 401.745L65.1303 406.277C65.3229 406.331 65.4063 406.464 65.3156 406.575L65.2407 406.637Z" fill="#5048BC"/>
<path d="M62.8171 405.973L62.7942 405.985L54.8583 409.881C54.6958 409.961 54.452 409.949 54.3124 409.856C54.1739 409.761 54.2078 409.616 54.3546 409.541L62.2906 405.644C62.4526 405.565 62.6968 405.576 62.8359 405.671C62.9682 405.76 62.9572 405.892 62.8171 405.973Z" fill="#5048BC"/>
<path d="M48.2091 400.867C47.5659 401.128 47.4373 401.014 46.4925 401.623C45.6957 402.135 45.5514 402.587 46.2399 403.04C46.3962 403.144 46.6806 403.138 46.8263 403.031C47.0743 402.85 47.4493 402.599 47.7077 402.536C48.1254 402.435 48.6405 402.304 48.8987 402.075C49.1577 401.847 49.2441 401.402 49.7154 400.988C50.1873 400.574 50.5555 400.496 51.0654 400.186L51.3806 399.979C51.5373 399.87 51.481 399.703 51.2587 399.64C50.9373 399.551 50.4686 399.483 50.0629 399.674C49.4842 399.944 48.929 400.575 48.2091 400.867Z" fill="#857CF4"/>
<path d="M46.5254 403.115C46.4206 403.115 46.3154 403.089 46.24 403.04C45.9416 402.843 45.7993 402.647 45.7993 402.445C45.7993 402.184 46.0416 401.912 46.4925 401.623C47.4373 401.013 47.566 401.128 48.2092 400.867C48.9291 400.575 49.4842 399.944 50.0629 399.673C50.2534 399.584 50.4582 399.551 50.6545 399.551C50.8764 399.551 51.0884 399.592 51.2588 399.64C51.3962 399.679 51.4701 399.757 51.4697 399.837C51.4697 399.887 51.4405 399.937 51.3806 399.979L51.0654 400.185C50.5556 400.496 50.1873 400.573 49.7154 400.988C49.3582 401.301 49.2223 401.632 49.0649 401.873C49.0144 401.951 48.9618 402.02 48.8988 402.075C48.8258 402.14 48.7332 402.196 48.6274 402.247C48.3582 402.376 48.0077 402.463 47.7077 402.536C47.4493 402.599 47.0744 402.849 46.8264 403.031C46.7515 403.087 46.6384 403.115 46.5254 403.115Z" fill="#574EC5"/>
<path d="M61.4045 405.587C61.2957 405.65 61.1249 405.671 60.9744 405.631C60.779 405.58 60.6905 405.45 60.7764 405.336C63.6176 401.63 63.0436 398.123 59.0707 394.912C58.9452 394.812 58.9837 394.674 59.1592 394.6C59.3327 394.53 59.5749 394.554 59.6983 394.654C63.8431 398.003 64.4436 401.659 61.4843 405.519L61.4045 405.587Z" fill="#5048BC"/>
<path d="M64.6396 400.685L64.4052 400.749L62.9874 400.828C62.775 400.84 62.5854 400.751 62.5636 400.627C62.5417 400.504 62.6973 400.396 62.9078 400.384L64.325 400.305C64.538 400.293 64.727 400.383 64.7494 400.505L64.6396 400.685Z" fill="#5048BC"/>
<path d="M63.6582 405.723C62.9404 406.137 62.9446 406.813 63.6659 407.229C64.3878 407.647 65.5587 407.649 66.2754 407.235C66.992 406.82 66.9878 406.145 66.2659 405.728C65.5446 405.312 64.3743 405.309 63.6582 405.723ZM66.6607 407.457C65.7326 407.993 64.2175 407.991 63.2831 407.451C62.3487 406.911 62.344 406.037 63.2716 405.5C64.2003 404.964 65.7154 404.968 66.6492 405.507C67.5836 406.047 67.5888 406.921 66.6607 407.457Z" fill="#EDEDEB"/>
<path d="M70.443 406.246L70.282 406.291L64.9982 406.635C64.8492 406.646 64.7143 406.583 64.6962 406.496C64.679 406.411 64.7858 406.332 64.9342 406.323L70.218 405.979C70.367 405.968 70.5024 406.031 70.52 406.116L70.443 406.246Z" fill="#EDEDEB"/>
<path d="M71.0492 405.896L69.6154 406.723H69.2315L69.2295 406.5L70.6634 405.673H71.0482L71.0492 405.896Z" fill="#857CF4"/>
<path d="M69.6154 406.723H69.2315L69.2295 406.5L70.6634 405.673H71.0482L71.0492 405.896L69.6154 406.723Z" fill="#574EC5"/>
<path d="M54.1267 392.83C53.669 392.567 53.6163 392.168 54.0081 391.942C54.4002 391.716 55.0887 391.747 55.5461 392.011C56.0033 392.275 56.057 392.672 55.6642 392.899C55.2726 393.124 54.5835 393.094 54.1267 392.83Z" fill="#857CF4"/>
<path d="M55.0039 393.049C54.8675 393.049 54.7279 393.035 54.5924 393.005L55.2133 392.647C55.2513 392.625 55.2685 392.596 55.2685 392.565C55.268 392.409 54.8549 392.171 54.5852 392.171C54.5305 392.171 54.482 392.18 54.4435 392.203L53.8232 392.561C53.7727 392.484 53.7467 392.404 53.7456 392.327C53.7445 392.183 53.8305 392.044 54.0081 391.941C54.1847 391.84 54.4205 391.791 54.6691 391.791C54.9727 391.791 55.294 391.865 55.5461 392.011C55.7961 392.155 55.9257 392.339 55.9273 392.513C55.9289 392.659 55.8424 392.796 55.6643 392.899C55.4883 393 55.2519 393.049 55.0039 393.049Z" fill="#4E47BA"/>
<path d="M55.2132 392.647L52.8381 394.017C52.5371 394.192 51.7679 393.747 52.0684 393.573L54.4433 392.203C54.7089 392.049 55.4788 392.493 55.2132 392.647Z" fill="#857CF4"/>
<path d="M52.6656 394.058C52.3849 394.058 51.9989 393.835 52 393.674C52 393.635 52.0208 393.602 52.0683 393.574L54.4432 392.203C54.4817 392.18 54.5303 392.171 54.5849 392.171C54.8547 392.171 55.2677 392.41 55.2683 392.566C55.2683 392.596 55.2511 392.626 55.2131 392.647L54.5921 393.006L52.838 394.018C52.7901 394.046 52.7307 394.058 52.6656 394.058Z" fill="#574EC5"/>
<path d="M75.5415 398.836C75.2893 398.691 75.2883 398.456 75.5383 398.311C75.7888 398.167 76.1956 398.168 76.4476 398.313C76.6997 398.457 76.7008 398.693 76.4508 398.837C76.2003 398.983 75.7935 398.981 75.5415 398.836Z" fill="#EDEDEB"/>
<path d="M54.2685 411.118C54.0164 410.972 54.0153 410.738 54.2653 410.594C54.5159 410.448 54.9232 410.45 55.1748 410.595C55.4268 410.74 55.4284 410.975 55.1784 411.12C54.9273 411.264 54.5205 411.264 54.2685 411.118Z" fill="#EDEDEB"/>
<path d="M77.7377 429.364L79.1815 429.427C81.0393 429.508 82.5872 428.615 82.4456 427.542L82.3357 426.708C82.1945 425.636 83.742 424.743 85.5997 424.824L87.0435 424.888C88.9013 424.97 90.4481 424.076 90.3071 423.003L90.1976 422.171C90.0565 421.098 91.6033 420.204 93.4612 420.286L94.9044 420.348C96.7628 420.431 98.3101 419.538 98.1691 418.464L98.0591 417.631C97.918 416.559 99.4653 415.666 101.323 415.747L102.766 415.809C104.625 415.892 106.172 414.999 106.031 413.925L105.921 413.092C105.779 412.019 107.327 411.127 109.185 411.207L111.522 411.311C113.035 411.376 114.401 410.79 114.725 409.932L114.882 409.518C115.51 407.854 119.458 407.627 120.641 409.187L120.65 409.199C121.198 409.922 122.512 410.344 123.864 410.234L125.586 410.092C127.591 409.927 129.31 410.92 129.025 412.077C128.741 413.236 130.459 414.228 132.465 414.064C134.471 413.899 136.19 414.891 135.904 416.05C135.62 417.207 137.339 418.2 139.344 418.035C141.35 417.871 143.068 418.863 142.783 420.022C142.499 421.179 144.218 422.171 146.223 422.007C148.228 421.843 149.948 422.835 149.663 423.992C149.378 425.151 151.096 426.143 153.103 425.979C155.108 425.815 156.827 426.807 156.542 427.964L156.298 428.959C156.106 429.739 156.839 430.498 158.09 430.815L158.11 430.819C160.81 431.503 160.418 433.782 157.538 434.144L156.816 434.235C155.335 434.422 154.316 435.211 154.431 436.084L154.61 437.434C154.751 438.507 153.203 439.399 151.344 439.319L149.902 439.255C148.044 439.174 146.496 440.067 146.638 441.139L146.748 441.972C146.89 443.046 145.342 443.939 143.483 443.856L142.04 443.793C140.182 443.712 138.635 444.605 138.776 445.679L138.886 446.511C139.027 447.584 137.479 448.477 135.622 448.396L134.179 448.332C132.32 448.251 130.773 449.144 130.914 450.217L131.024 451.051C131.166 452.123 129.618 453.016 127.76 452.935L126.317 452.872C124.459 452.791 122.911 453.683 123.052 454.756L123.163 455.59C123.304 456.662 121.757 457.555 119.898 457.474L117.562 457.371C116.049 457.304 114.682 457.892 114.359 458.748L114.202 459.164C113.573 460.827 109.625 461.053 108.442 459.495L108.433 459.483C107.886 458.762 106.572 458.338 105.219 458.448L103.498 458.59C101.492 458.755 99.7732 457.762 100.058 456.604C100.343 455.446 98.6248 454.453 96.6191 454.617H96.618C94.6123 454.783 92.8945 453.791 93.1789 452.632C93.4639 451.474 91.7451 450.481 89.7393 450.647C87.7336 450.811 86.0148 449.817 86.2997 448.66C86.5847 447.503 84.8659 446.511 82.8596 446.675C80.8539 446.839 79.1352 445.847 79.42 444.688C79.7049 443.531 77.9867 442.539 75.9809 442.703C73.9748 442.867 72.2565 441.875 72.5415 440.717L72.7857 439.723C72.9773 438.943 72.2451 438.183 70.994 437.867L70.9732 437.862C68.2727 437.179 68.6648 434.899 71.5461 434.538L72.2664 434.447C73.7492 434.26 74.7669 433.471 74.6519 432.598L74.4743 431.248C74.3325 430.175 75.88 429.282 77.7377 429.364Z" fill="#FAFAF9"/>
<path d="M79.6577 432.704L111.706 414.2C114.76 412.436 119.093 412.079 121.383 413.403L150.808 430.391C153.098 431.712 152.48 434.213 149.426 435.977L117.377 454.481C114.323 456.244 109.991 456.602 107.7 455.279L78.2755 438.291C75.9848 436.968 76.604 434.467 79.6577 432.704Z" fill="#FCAB32"/>
<path d="M125.848 425.942C125.848 425.942 126.215 424.85 124.995 424.478C123.775 424.104 122.225 425.011 122.225 425.011C122.225 425.011 121.509 424.331 119.403 424.531C117.248 424.736 115.919 425.606 114.7 428.246C114.573 428.52 114.503 428.768 114.459 429.006C114.31 428.372 114.028 427.78 113.575 427.207C112.682 426.076 110.719 423.707 107.671 423.955C104.799 424.19 105.051 425.291 105.051 425.291C105.051 425.291 103.367 424.752 102.375 425.307C101.384 425.862 102.398 426.992 102.398 426.992C102.398 426.992 101.057 427.175 100.736 428.394C100.408 429.64 101.368 430.595 105.534 431.892C106.731 432.264 108.034 432.614 109.276 432.922C107.028 432.75 104.647 432.583 103.64 432.558C101.489 432.504 96.8771 432.74 96.3443 434.491C95.8432 436.14 97.7339 436.343 97.7339 436.343C97.7339 436.343 96.3271 437.1 96.9344 437.816C97.5417 438.532 99.7177 438.324 99.7177 438.324C99.7177 438.324 99.6047 439.119 101.513 439.671C103.465 440.236 105.335 440.005 108.758 438.118C109.677 437.611 110.59 437.047 111.431 436.498C110.468 437.664 109.481 438.891 109.134 439.428C108.381 440.594 107.345 443.199 110.064 444.032C112.625 444.818 113.542 443.842 113.542 443.842C113.542 443.842 114.357 444.848 115.723 444.735C117.091 444.623 117.421 443.364 117.421 443.364C117.421 443.364 118.693 443.672 120.193 442.795C121.727 441.898 121.923 440.799 119.872 438.336C119.262 437.602 118.531 436.847 117.815 436.156C119.465 437.062 121.231 438.011 122.023 438.374C123.71 439.147 127.681 440.52 129.895 439.286C131.979 438.122 130.655 437.316 130.655 437.316C130.655 437.316 132.565 437.18 132.803 436.395C133.04 435.61 131.069 435.039 131.069 435.039C131.069 435.039 131.968 434.435 130.986 433.342C129.982 432.222 128.044 431.54 123.353 431.903C123.096 431.924 122.835 431.946 122.573 431.974C123.692 431.65 124.719 431.268 125.166 431.052C126.988 430.171 130.208 428.564 128.857 426.967C127.584 425.463 125.848 425.942 125.848 425.942Z" fill="#EDEDEB"/>
<path d="M122.649 427.825C120.648 428.105 118.313 429.544 117.107 430.437C116.231 431.087 114.438 432.457 115.257 433.36C115.347 433.46 115.633 433.461 115.79 433.423C117.375 433.027 117.94 431.723 118.812 430.908C119.964 429.833 121.61 429.121 122.994 428.16C123.236 427.992 123.035 427.771 122.649 427.825Z" fill="#DADBD8"/>
<path d="M114.647 434.12L114.645 434.14L114.5 434.236C114.502 434.111 114.459 433.994 114.369 433.895C114.593 433.826 114.774 433.703 114.791 433.568C115.107 431.086 109.804 428.472 106.155 427.756C106.036 427.732 105.565 427.822 105.75 427.923C107.474 428.87 109.102 429.822 110.479 430.967C111.373 431.71 112.159 432.84 113.188 433.586C112.943 433.57 112.697 433.563 112.438 433.563C111.351 433.562 110.229 433.658 109.209 433.859C106.651 434.364 103.161 435.228 101.727 436.656C101.569 436.816 102.083 436.804 102.207 436.763C104.135 436.111 106.086 435.612 108.27 435.334C109.7 435.151 111.502 434.874 112.944 435.16C113.295 435.231 113.615 435.171 113.874 435.044C113.318 436.111 113.146 437.616 113.12 438.043C113.054 439.124 113.376 440.457 114.657 441.298C114.864 441.434 115.575 441.25 115.413 441.067C115.007 440.611 115.192 439.887 115.101 439.364C114.971 438.614 115.051 437.891 115.205 437.146C115.309 436.643 115.436 436.158 115.663 435.671C115.741 435.504 115.806 435.34 115.869 435.171L115.876 435.15L115.954 435.008C116.952 435.168 118.247 435.159 118.866 435.198C121.017 435.327 123.744 435.674 125.624 436.308C125.828 436.376 126.404 436.239 126.191 436.083C124.578 434.898 122.271 434.351 119.871 433.874C118.674 433.635 115.038 432.866 114.647 434.12Z" fill="#DADBD8"/>
<path d="M116.767 432.596C117.95 433.28 117.95 434.388 116.767 435.071C115.583 435.755 113.664 435.755 112.48 435.071C111.296 434.388 111.296 433.28 112.48 432.596C113.664 431.912 115.583 431.912 116.767 432.596Z" fill="#857CF4"/>
<path d="M114.624 435.584C113.864 435.584 113.105 435.42 112.518 435.092C112.506 435.085 112.492 435.079 112.48 435.071C112.476 435.069 112.473 435.067 112.469 435.065C112.468 435.064 112.465 435.063 112.464 435.061C112.462 435.06 112.461 435.06 112.459 435.059C112.454 435.056 112.45 435.053 112.446 435.051C112.446 435.051 112.446 435.051 112.446 435.051C111.729 434.624 111.465 434.039 111.651 433.493C111.966 434.231 113.202 434.901 114.63 434.901C114.826 434.901 115.027 434.888 115.23 434.861C116.615 434.676 117.308 434.027 117.56 433.423C117.783 433.956 117.576 434.536 116.923 434.975C116.92 434.976 116.918 434.979 116.914 434.98C116.913 434.98 116.913 434.981 116.912 434.981C116.87 435.009 116.826 435.036 116.781 435.063C116.776 435.065 116.772 435.068 116.768 435.071C116.752 435.08 116.736 435.089 116.72 435.097C116.135 435.421 115.379 435.584 114.624 435.584Z" fill="#574EC5"/>
<path d="M490.516 89.6922C485.868 85.9229 474.075 78.5295 470.724 76.3429C466.863 73.8215 461.753 70.2549 458.016 67.5535C458.016 67.5535 442.948 43.4549 442.815 41.1069L439.469 32.0495C438.973 30.6029 439.5 27.0682 439.767 24.8295C440.065 22.3362 440.668 20.1549 440.847 19.0802C441.552 14.8189 435.417 12.8522 432.648 14.9415C431.028 16.1655 429.041 18.5268 427.913 21.9482C424.384 32.6335 431.411 45.1269 431.411 45.1269C431.411 45.1269 441.343 67.6495 443.364 71.7122C445.515 76.0389 447.343 78.3735 449.193 79.9789C449.193 79.9789 467.287 94.6055 471.173 97.5722C476.056 101.298 478.088 103.083 481.515 103.795C483.417 104.191 483.432 104.143 489.076 104.166C489.765 102.706 490.461 100.966 490.707 99.3642C490.907 98.0615 491.527 90.5122 490.516 89.6922Z" fill="#C35363"/>
<path d="M473.004 99.7906L479.733 104.905L495.588 90.0613C493.637 88.4853 489.551 86.7986 485.899 85.0279C484.011 84.1133 481.963 83.1373 479.06 81.4333C479.06 81.4333 473.063 89.9079 473.004 99.7906Z" fill="#5048BC"/>
<path d="M405.946 11.0324C405.848 10.6417 406.095 10.2364 406.499 10.1271L443.887 0.0337018C444.291 -0.0756316 445.024 0.0643476 445.527 0.345681L446.55 0.921723C447.051 1.20439 447.536 1.74968 447.636 2.14034L453.66 26.1777C453.758 26.567 453.51 26.975 453.107 27.083L415.719 37.1764C415.318 37.2857 414.58 37.1444 414.082 36.863L413.056 36.2884C412.558 36.007 412.07 35.459 411.972 35.0697L405.946 11.0324Z" fill="#857CF4"/>
<path d="M406.035 10.4734C406.087 10.3867 406.157 10.3094 406.243 10.2481C406.159 10.3094 406.087 10.3867 406.035 10.4734ZM446.763 1.05744C446.693 1.00811 446.621 0.961436 446.549 0.921436L446.145 0.693441L446.551 0.921436C446.623 0.961436 446.693 1.00811 446.763 1.05744ZM445.045 0.140056C444.761 0.048056 444.463 -0.00388935 444.211 -0.00388935C444.208 -0.00388935 444.205 -0.00388935 444.203 -0.00388935C444.207 -0.00388935 444.211 -0.00388935 444.215 -0.00388935C444.465 -0.00388935 444.764 0.048056 445.045 0.140056Z" fill="white"/>
<path d="M408.611 11.9214L406.035 10.4733C406.087 10.3867 406.159 10.3093 406.243 10.248C406.319 10.1947 406.404 10.1521 406.5 10.1267L443.888 0.0346687C443.979 0.00933535 444.085 -0.00260476 444.203 -0.00393809C444.205 -0.00393809 444.208 -0.00393809 444.211 -0.00393809C444.463 -0.00393809 444.761 0.0480072 445.045 0.140007C445.215 0.194674 445.379 0.264046 445.524 0.346713L446.145 0.693393L446.549 0.921387C446.621 0.961387 446.693 1.00806 446.763 1.05739C446.937 1.18272 447.103 1.33339 447.243 1.49072L408.611 11.9214Z" fill="#5CC8BC"/>
<path d="M412.632 35.9844C412.304 35.7017 412.039 35.3457 411.969 35.0684L405.944 11.0311C405.896 10.8377 405.933 10.6377 406.035 10.4737C405.935 10.6377 405.896 10.8364 405.945 11.0324L411.972 35.0697C412.04 35.3457 412.305 35.7004 412.632 35.9844Z" fill="#C3C5C2"/>
<path d="M415.319 37.2109C415.118 37.2029 414.895 37.1656 414.676 37.1043C414.554 37.0696 414.435 37.0283 414.324 36.9816L414.082 36.8629L413.058 36.2869C412.911 36.2056 412.767 36.1002 412.632 35.9842C412.306 35.7002 412.04 35.3456 411.972 35.0696L405.946 11.0323C405.896 10.8363 405.935 10.6376 406.035 10.4736L408.611 11.9216L409.086 12.1896C408.848 12.2189 408.726 12.3776 408.788 12.6296L414.714 36.2669L414.814 36.6669C414.866 36.8696 414.996 37.0269 415.167 37.1176C415.27 37.1709 415.382 37.2003 415.502 37.2003C415.52 37.2003 415.54 37.2003 415.56 37.1989L415.471 37.2096L415.319 37.2109Z" fill="#574EC5"/>
<path d="M447.305 1.56152C447.304 1.56152 447.304 1.56019 447.303 1.55885L447.381 1.45221L447.305 1.56152Z" fill="#C3C5C2"/>
<path d="M415.167 37.1177C414.996 37.027 414.866 36.8697 414.814 36.667L414.714 36.267L426.607 20.5843L408.611 11.9217L429.387 21.0577C430.051 21.3497 430.711 21.4937 431.289 21.4937C431.999 21.4937 432.584 21.2763 432.901 20.851L435.124 17.8737L447.303 1.55902C447.304 1.56035 447.304 1.56169 447.305 1.56169L435.779 18.1271L453.663 26.1883C453.708 26.3843 453.667 26.587 453.56 26.751L435.747 18.1737L433.21 21.819C432.898 22.2657 432.3 22.4924 431.574 22.4924C430.94 22.4924 430.211 22.3203 429.487 21.971L426.695 20.6271L415.167 37.1177Z" fill="#574EC5"/>
<path d="M445.033 31.4974C445.168 29.1228 444.596 26.7934 445.105 24.4347C445.231 23.8521 445.263 23.0281 444.684 22.8908C444.52 22.8521 444.348 22.8908 444.189 22.9441C442.72 23.4414 441.961 24.6734 441.447 26.1361C441.012 27.3721 440.767 29.7828 439.029 31.0241L442.979 41.7188C442.823 38.9468 444.832 35.0268 445.033 31.4974Z" fill="#C35363"/>
<path d="M496.717 304.498C497.012 304.582 497.241 304.764 497.34 305.099C497.719 306.388 497.704 307.858 497.967 309.18C498.377 311.25 498.818 314.228 498.479 315.89C498.142 317.551 495.895 319.164 491.682 320.36C489.143 321.08 484.611 323.274 482.537 325.158C479.999 327.466 474.569 329.392 470.899 329.503C466.593 329.632 462.107 328.484 461.069 325.384C460.633 324.083 460.294 321.85 466.444 319.434C469.648 318.175 470.908 317.519 472.448 316.611C475.303 314.93 479.593 312.702 481.967 310.487C482.847 309.667 485.512 306.42 485.468 302.292C487.107 301.738 489.02 302.078 490.368 303.163C491.716 304.25 492.456 306.046 492.264 307.766C492.557 307.928 492.923 307.651 493.028 307.332C493.132 307.015 493.079 306.667 493.133 306.338C493.251 305.623 493.868 305.071 494.548 304.822C495.143 304.604 496.084 304.319 496.717 304.498Z" fill="#273E47"/>
<path d="M555.617 304.635C555.156 305.6 555.216 306.565 555.088 307.593C554.981 308.448 554.735 309.212 554.739 310.111C554.743 310.856 554.563 311.751 553.867 312.02C553.321 312.231 552.697 311.932 552.299 311.503C551.9 311.073 551.653 310.528 551.309 310.055C550.583 309.057 549.393 308.412 548.161 308.344C546.928 308.276 546.841 308.391 546.009 309.301C546.109 309.536 546.625 310.763 546.717 310.999C549.096 317.061 549.239 322.435 547.76 328.716C547.459 329.997 545.607 332.084 544.589 333.1C543.987 333.703 543.356 334.272 542.683 334.795C542.087 335.257 541.492 335.808 541.421 336.32C541.323 337.036 541.436 337.783 541.787 338.415C542.3 339.34 543.153 339.78 544.117 340.113C547.76 341.371 551.719 341.336 555.235 339.752C556.983 338.963 558.624 337.225 558.993 336.58C561.053 332.983 560.823 329.557 560.851 326.461C560.911 319.623 562.039 316.088 562.588 312.667C563.252 308.527 556.913 304.013 555.617 304.635Z" fill="#273E47"/>
<path d="M482.632 308.353C485.165 305.615 485.651 302.973 485.304 297.893C484.956 292.813 482.419 247.875 481.38 236.789C479.64 218.167 478.759 165.817 480.305 152.897L529.963 156.804C533.571 165.821 536.221 176.924 535.661 194.344C535.235 207.629 535.545 243.667 535.545 243.667C535.545 243.667 541.605 248.963 545.933 259.421C549.759 268.661 554.163 300.587 554.163 300.587C554.839 302.704 555.384 304.319 555.617 304.635C556.661 306.051 557.407 307.569 557.407 309.293C557.405 314.809 556.817 320.324 555.656 325.715C555.055 328.507 553.312 330.303 550.528 331.411C549.912 331.656 549.243 331.781 548.581 331.732C548.243 331.708 547.88 331.625 547.639 331.383C547.168 330.911 547.596 329.793 547.687 329.233C547.829 328.331 547.908 327.419 547.935 326.505C547.988 324.711 547.932 322.521 547.813 320.733C547.504 316.049 546.821 312.251 545.884 308.835C545.884 308.833 545.5 307.921 544.919 306.535C544.919 306.535 523.365 263.075 517.244 252.481C512.376 244.169 509.144 211.9 505.692 194.259L499.865 236.424C499.865 236.424 502.421 244.041 503.093 249.867C503.997 257.689 498.475 288.348 496.821 299.248C496.516 301.273 496.492 303.323 496.751 305.355C496.168 310.079 492.623 311.536 488.956 314.211C487.133 315.541 479.117 320.411 474.276 321.392C470.337 322.191 467.316 319.832 469.737 318.316C474.328 315.204 480.097 311.092 482.632 308.353Z" fill="#C35363"/>
<path d="M507.716 207.661C507.214 202.921 505.846 196.437 505.846 196.437L504.25 207.4L501.85 235.696C501.85 235.696 502.655 238.823 503.406 244.22C504.19 249.861 503.816 258.925 502.787 264.983C501.756 271.04 499.611 281.907 499.611 281.907C490.606 286.608 483.779 281.792 483.779 281.792C483.779 281.792 482.903 269.676 481.223 251.909C479.544 234.144 478.96 216.385 478.838 201.627C478.838 201.627 476.704 164.821 482.922 139.991C490.227 145.133 511.931 146.163 520.692 139.253C520.692 139.253 524.203 145.057 531.867 158.009C537.884 168.179 536.118 184.515 536.222 198.172C536.383 219.241 536.27 243.033 536.27 243.033C536.27 243.033 539.864 246.821 543.703 253.011C547.543 259.199 549.514 272.943 549.514 272.943C549.514 272.943 545.636 281.189 532.398 281.543C532.398 281.543 519.536 258.125 516.304 252.811C513.071 247.496 508.218 212.404 507.716 207.661Z" fill="#273E47"/>
<path d="M505.846 196.438L501.012 177.842C501.012 177.842 491.755 176.854 484.548 171.559C484.548 171.559 486.035 178.36 498.779 180.362L504.267 198.615L503.947 209.824L505.846 196.438Z" fill="#17282F"/>
<path d="M477.988 107.033C482.816 99.5641 492.448 92.4535 495.575 89.9775L513.772 90.1095C517.351 90.2908 522.581 90.7561 522.581 90.7561C526.372 92.7774 526.187 97.4775 526.313 101.924C526.463 106.8 526.487 108.944 525.145 117L522.7 127.264L522.325 128.84C522.259 129.112 522.201 129.383 522.136 129.661C521.284 133.471 521.589 137.515 523.589 141.329C527.757 149.28 532.688 155.295 534.079 161.972C534.079 161.972 530.871 161.293 527.788 158.339C525.103 155.768 523.485 154.575 521.336 151.543C521.336 151.543 521.121 156.065 516.627 161.993C515.557 163.413 514.261 164.825 512.7 166.132C504.635 172.892 480.363 175.823 479.569 154.655C479.569 154.655 480.483 145.013 480.632 137.847C480.483 131.425 479.977 126.224 479.925 124.74C474.384 119.761 474.472 112.467 477.988 107.033Z" fill="#857CF4"/>
<path d="M498.7 129.675C491.923 129.675 488.706 123.916 488.706 123.916C488.706 123.916 492.874 127.6 498.522 127.6C499.636 127.6 500.808 127.457 502.019 127.113C509.356 125.029 510.806 118.824 510.806 118.824C510.806 118.824 511.04 127.075 501.811 129.292C500.702 129.559 499.664 129.675 498.7 129.675Z" fill="#665AD8"/>
<path d="M510.707 36.5723C502.787 34.9323 497.444 36.4389 493.903 37.9003C477.339 33.6416 468.323 56.3736 483.844 64.1723C483.844 64.1723 487.275 80.0483 500.102 81.7563L512.767 82.0869C515.872 76.4096 525.999 73.7509 526.882 58.9603C528.527 46.5976 519.166 38.3229 510.707 36.5723Z" fill="#17282F"/>
<path d="M541.787 88.8774L541.259 88.9094C533.888 89.3627 527.545 83.756 527.091 76.3854L525.525 50.9254L526.052 50.8934C533.421 50.4387 539.765 56.0467 540.219 63.4174L541.787 88.8774Z" fill="#17282F"/>
<path d="M488.075 46.4721C485.511 48.0521 482.428 54.6281 482.996 68.2854C483.477 79.8614 487.284 82.6521 489.184 83.4427C491.084 84.2334 494.709 83.6641 498.232 83.0094L498.361 89.9601C498.361 89.9601 493.929 93.4934 494.296 96.6747C494.661 99.8561 501.767 100.919 506.281 97.7214C510.793 94.5241 512.94 91.5267 512.94 91.5267L512.608 73.5161C512.608 73.5161 514.959 76.0667 518.812 73.4027C522.667 70.7401 522.236 65.6627 519.924 63.4027C517.613 61.1401 513.316 62.4227 512.464 65.6214C512.464 65.6214 507.443 65.4001 500.112 60.9721C492.171 56.1761 490.179 51.2974 488.075 46.4721Z" fill="#C35363"/>
<path d="M497.955 64.8227C497.928 65.6573 498.559 66.3534 499.363 66.3774C500.167 66.4 500.84 65.7427 500.867 64.9067C500.894 64.072 500.263 63.376 499.459 63.352C498.655 63.3293 497.982 63.988 497.955 64.8227Z" fill="#17282F"/>
<path d="M496.475 74.9215L492.313 76.3335C492.683 77.5255 493.913 78.1748 495.063 77.7855C496.211 77.3948 496.844 76.1135 496.475 74.9215Z" fill="#AA3B4B"/>
<path d="M485.145 60.8643L488.055 58.7669C487.503 57.9363 486.403 57.7309 485.599 58.3096C484.796 58.8883 484.593 60.0323 485.145 60.8643Z" fill="#17282F"/>
<path d="M485.888 64.2694C485.863 65.1054 486.492 65.8001 487.296 65.8241C488.1 65.8481 488.773 65.1894 488.8 64.3534C488.827 63.5187 488.197 62.8227 487.393 62.7987C486.588 62.7761 485.916 63.4334 485.888 64.2694Z" fill="#17282F"/>
<path d="M492.986 63.304L492.916 72.0747L488.276 70.7307L492.986 63.304Z" fill="#AA3B4B"/>
<path d="M498.232 83.0095C501.948 82.4521 509.57 80.1108 510.707 77.0601C510.707 77.0601 510.344 78.9708 508.091 80.9748C505.839 82.9788 498.275 85.3281 498.275 85.3281L498.232 83.0095Z" fill="#AA3B4B"/>
<path d="M565.552 171.558C565.552 171.558 563.206 145.198 562.571 140.171C561.811 134.172 560.624 131.862 559.075 129.607C559.075 129.607 544.61 106.586 541.242 102.29C537.01 96.8924 535.162 93.8084 531.659 92.0764C529.715 91.1137 528.728 90.9791 523.243 90.7977C517.7 106.992 527.492 116.547 527.492 116.547L547.155 141.184C547.155 141.184 554.303 169.82 553.786 172.396C553.27 174.971 551.391 178.272 550.368 181.455C549.68 183.598 549.65 185.866 548.624 187.904C548.371 188.407 548.144 189.154 548.643 189.418C548.783 189.491 548.95 189.498 549.108 189.486C550.572 189.38 551.559 188.432 552.378 187.215C553.07 186.188 553.187 185.363 553.876 184.336C554.007 186.039 553.548 188.171 553.055 190.64C552.784 191.991 552.563 193.568 552.295 194.755C551.778 197.035 555.043 197.947 557.248 197.467C559.658 196.943 560.951 195.811 562.383 193.919C567.488 187.172 565.552 171.558 565.552 171.558Z" fill="#C35363"/>
<path d="M522.533 90.7508C522.533 90.7508 527.743 90.4961 530.629 91.2748C533.515 92.0534 535.832 94.6721 538.935 98.5974C542.036 102.521 546.095 108.808 546.095 108.808C546.095 108.808 537.443 117.143 528.989 119.1L525.917 115.043C525.917 115.043 521.996 110.484 521.016 103.848C519.964 96.7148 522.533 90.7508 522.533 90.7508Z" fill="#5048BC"/>
</g>
<defs>
<clipPath id="clip0_136_2984">
<rect width="638.507" height="570.8" fill="white"/>
</clipPath>
</defs>
</svg>
